<svg width="20" height="20" viewBox="0 0 20 20" fill="none" xmlns="http://www.w3.org/2000/svg">
<path d="M10 0C4.47748 0 0 4.47748 0 10C0 15.5232 4.47748 20 10 20C15.5232 20 20 15.5238 20 10C20 4.47748 15.5231 0 10 0ZM10 18.125C5.51253 18.125 1.87503 14.4875 1.87503 10C1.87503 5.51253 5.51253 1.87503 10 1.87503C14.4875 1.87503 18.125 5.51253 18.125 10C18.125 14.4875 14.4875 18.125 10 18.125ZM10.0006 4.38561C9.2844 4.38561 8.74248 4.75938 8.74248 5.36311V10.9006C8.74248 11.505 9.28433 11.8775 10.0006 11.8775C10.6994 11.8775 11.2588 11.4894 11.2588 10.9006V5.36311C11.2587 4.77371 10.6994 4.38561 10.0006 4.38561ZM10.0006 13.125C9.31251 13.125 8.75247 13.685 8.75247 14.3737C8.75247 15.0612 9.31251 15.6212 10.0006 15.6212C10.6888 15.6212 11.2482 15.0612 11.2482 14.3737C11.2481 13.685 10.6888 13.125 10.0006 13.125Z" fill="#F7AAAA"/>
</svg>
