<svg width="32" height="30" viewBox="0 0 32 30" fill="none" xmlns="http://www.w3.org/2000/svg">
<path d="M31.0832 14.1417C30.5739 14.1417 30.1664 14.5669 30.1664 15.0983V23.7998C30.1664 26.1665 28.3192 28.0868 26.0577 28.0868H5.94228C3.67402 28.0868 1.83362 26.1594 1.83362 23.7998V14.9566C1.83362 14.4252 1.42615 14 0.916808 14C0.40747 14 0 14.4252 0 14.9566V23.7998C0 27.2223 2.66893 30 5.94228 30H26.0577C29.3379 30 32 27.2152 32 23.7998V15.0983C32 14.574 31.5925 14.1417 31.0832 14.1417Z" fill="#44A2EE"/>
<path d="M14.8816 0.263868C15.0517 0.0923538 15.2808 0 15.5033 0C15.7258 0 15.9548 0.0857582 16.125 0.263868L21.7399 5.92384C22.0867 6.27346 22.0867 6.83418 21.7399 7.18381C21.393 7.53343 20.8368 7.53343 20.4899 7.18381L16.3867 3.04108V21.1094C16.3867 21.6042 15.9941 22 15.5033 22C15.0125 22 14.6198 21.6042 14.6198 21.1094V3.04108L10.5101 7.18381C10.1632 7.53343 9.60697 7.53343 9.26013 7.18381C8.91329 6.83418 8.91329 6.27346 9.26013 5.92384L14.8816 0.263868Z" fill="#44A2EE"/>
</svg>
