<svg width="20" height="20" viewBox="0 0 20 20" fill="none" xmlns="http://www.w3.org/2000/svg">
<path fill-rule="evenodd" clip-rule="evenodd" d="M8.45644 16.4719C13.1268 16.4719 16.9129 12.7845 16.9129 8.23593C16.9129 3.68738 13.1268 0 8.45644 0C3.78611 0 0 3.68738 0 8.23593C0 12.7845 3.78611 16.4719 8.45644 16.4719ZM8.45644 15.2953C12.4596 15.2953 15.7048 12.1347 15.7048 8.23593C15.7048 4.33714 12.4596 1.17656 8.45644 1.17656C4.45326 1.17656 1.20806 4.33714 1.20806 8.23593C1.20806 12.1347 4.45326 15.2953 8.45644 15.2953Z" fill="#808080"/>
<path d="M13.3785 15.0382C12.9569 14.6276 12.9569 13.9618 13.3785 13.5512C13.8001 13.1406 14.4837 13.1406 14.9053 13.5512L19.6838 18.205C20.1054 18.6157 20.1054 19.2814 19.6838 19.692C19.2622 20.1027 18.5786 20.1027 18.157 19.692L13.3785 15.0382Z" fill="#808080"/>
</svg>
