<svg xmlns="http://www.w3.org/2000/svg" viewBox="0 0 57.58 60"><path fill="#F7F9FC" d="M36.15 19.34c-3.2-1.85-15 1.31-16.81 4.51s1.31 15 4.51 16.81 15-1.31 16.81-4.51-1.31-14.96-4.51-16.81zm4.5 13.51c-.86 3.2-10.3 8.66-13.5 7.8s-8.66-10.3-7.8-13.5 10.3-8.66 13.5-7.8 8.66 10.3 7.8 13.5z"/><path fill="#F7F9FC" d="M19.91 12.52c-5.25 3-10.42 22.32-7.39 27.57s22.32 10.42 27.57 7.39 10.42-22.32 7.39-27.57-22.32-10.42-27.57-7.39zm22.88 30.27c-3.84 3.84-21.74 3.84-25.58 0s-3.84-21.74 0-25.58 21.74-3.84 25.58 0 3.84 21.79 0 25.58z"/><path fill="#F7F9FC" d="M30 23c-2.09 0-7 4.87-7 7s4.87 7 7 7 7-4.87 7-7-4.91-7-7-7zm1.61 13c-1.81.48-7.15-2.6-7.64-4.41s2.6-7.16 4.41-7.65 7.16 2.6 7.65 4.41-2.6 7.19-4.42 7.65z"/><path fill="#F7F9FC" d="M57.58 23.16C51.81 13.2 37.14 0 30 0 21 0 0 21 0 30s21 30 30 30c7.14 0 21.81-13.2 27.58-23.16V23.16zM37 56.23C29.15 58.35 5.88 44.91 3.77 37S15.09 5.88 23 3.77C30.91 1.66 54.12 15.09 56.23 23 58.34 30.91 44.91 54.12 37 56.23z"/></svg>