<svg enable-background="new -292 384 26 26" viewBox="-292 384 26 26" xmlns="http://www.w3.org/2000/svg"><g fill="#030104"><path d="m-274.2 392.7c-.4 0-.7-.3-.7-.7v-1.4c0-.4.3-.7.7-.7h1.4c.4 0 .7.3.7.7v1.4c0 .4-.3.7-.7.7z"/><path d="m-279 394.3c-.5 0-1 .2-1.3.4.1 0 .3-.1.4-.1.7 0 1.3.6 1.3 1.4s-.6 1.4-1.3 1.4-1.3-.6-1.3-1.4c0-.1 0-.3.1-.4-.2.4-.4.9-.4 1.4 0 1.5 1.2 2.7 2.6 2.7s2.6-1.2 2.6-2.7-1.3-2.7-2.7-2.7z"/><path d="m-279 392.7c2.3 0 4.1 1.9 4.1 4.3s-1.8 4.3-4.1 4.3-4.1-1.9-4.1-4.3 1.8-4.3 4.1-4.3m0-1.5c-3 0-5.5 2.6-5.5 5.8s2.5 5.8 5.5 5.8 5.5-2.6 5.5-5.8-2.5-5.8-5.5-5.8z"/><path d="m-273.5 387.6h-11.1c-1.8 0-3.3 1.6-3.3 3.5v11.7c0 1.9 1.5 3.5 3.3 3.5h11.1c1.8 0 3.3-1.6 3.3-3.5v-11.7c.1-1.9-1.4-3.5-3.3-3.5zm2 6.5h-4.5c.7.8 1 1.8 1 2.9 0 2.4-1.8 4.3-4.1 4.3s-4.1-1.9-4.1-4.3c0-1.1.4-2.1 1-2.9h-4.5v-3c0-1.1.9-2.1 2-2.1h11.1c1.1 0 2 .9 2 2.1v3z"/></g></svg>