<svg enable-background="new -272 395.9 50 50" viewBox="-272 395.9 50 50" xmlns="http://www.w3.org/2000/svg"><g fill="#201600"><path d="m-255.8 406.7.6.3c.9.6 3.5 3.9 4.3 5.6.5.9.6 1.6.5 2.2-.2.6-.4.8-1.6 1.8-.5.4-.9.8-1 .9-.2.3-.3.8-.3 1.1 0 .8.5 2.3 1.2 3.4.5.9 1.5 2 2.4 2.9 1.1 1 2.1 1.7 3.2 2.3 1.4.7 2.3.9 2.9.6.2-.1.3-.2.4-.2 0 0 .4-.5.8-1 .8-1 1-1.2 1.5-1.3.7-.2 1.4-.2 2.1.2.5.3 1.7 1 2.5 1.5 1 .7 3.1 2.4 3.4 2.8.5.6.6 1.4.3 2.3-.4.9-1.8 2.7-2.7 3.4s-1.5.9-2.3 1c-.7 0-1 0-1.8-.4-6.8-2.8-12.3-7-16.6-12.8-2.3-3-4-6.2-5.2-9.4-.7-1.9-.7-2.7-.2-3.7.2-.4 1.3-1.4 2-2 1.3-.9 1.8-1.3 2.3-1.4.4-.3.9-.2 1.3-.1z"/><path d="m-244.4 405.8c1.7.2 3 .6 4.5 1.3s2.4 1.4 3.6 2.6 1.8 2 2.5 3.4c.9 1.9 1.5 4.2 1.6 6.7 0 .9 0 1-.2 1.3-.4.5-1.2.4-1.5-.1-.1-.2-.1-.3-.1-1 0-1-.1-1.7-.3-2.5-.6-3.2-2.1-5.7-4.5-7.5-2-1.5-4.1-2.3-6.8-2.4-.9-.1-1.1-.1-1.3-.2-.4-.3-.4-1 0-1.4.2-.2.4-.2 1.2-.2.4-.1 1 0 1.3 0z"/><path d="m-244 409.3c3 .4 5.2 1.8 6.7 4 .8 1.3 1.4 2.7 1.5 4.3.1.6.1 1.6 0 1.8s-.3.4-.4.5c-.2.1-.6.1-.8 0-.4-.2-.5-.5-.5-1.3 0-1.3-.3-2.6-.9-3.6-.6-1.2-1.6-2.2-2.7-2.8-1-.6-2.4-1-3.7-1.1-.5 0-.7-.1-.9-.3-.3-.3-.3-.7-.1-1.1.2-.5.6-.5 1.8-.4z"/><path d="m-243 413c1 .2 1.7.6 2.3 1.2.8.8 1.3 1.7 1.4 3 .1.9.1 1.2-.2 1.5s-.8.3-1.1 0c-.2-.2-.3-.4-.4-.9-.1-.7-.2-1.1-.4-1.6-.4-.9-1.2-1.4-2.5-1.6-.6-.1-.8-.1-1-.4-.4-.4-.2-1.1.3-1.4.2-.1.3-.1.7-.1.3.2.7.3.9.3z"/></g></svg>