<?xml version="1.0" encoding="UTF-8" standalone="no"?>
<!-- Svg Vector Icons : http://www.onlinewebfonts.com/icon -->

<svg
   xmlns:dc="http://purl.org/dc/elements/1.1/"
   xmlns:cc="http://creativecommons.org/ns#"
   xmlns:rdf="http://www.w3.org/1999/02/22-rdf-syntax-ns#"
   xmlns:svg="http://www.w3.org/2000/svg"
   xmlns="http://www.w3.org/2000/svg"
   xmlns:sodipodi="http://sodipodi.sourceforge.net/DTD/sodipodi-0.dtd"
   xmlns:inkscape="http://www.inkscape.org/namespaces/inkscape"
   version="1.1"
   x="0px"
   y="0px"
   viewBox="0 0 1000 1000"
   enable-background="new 0 0 1000 1000"
   xml:space="preserve"
   id="svg3554"
   inkscape:version="0.91 r13725"
   sodipodi:docname="vk.svg"><defs
     id="defs3564" /><sodipodi:namedview
     pagecolor="#ffffff"
     bordercolor="#666666"
     borderopacity="1"
     objecttolerance="10"
     gridtolerance="10"
     guidetolerance="10"
     inkscape:pageopacity="0"
     inkscape:pageshadow="2"
     inkscape:window-width="1920"
     inkscape:window-height="1017"
     id="namedview3562"
     showgrid="false"
     inkscape:zoom="0.236"
     inkscape:cx="500"
     inkscape:cy="500"
     inkscape:window-x="1280"
     inkscape:window-y="30"
     inkscape:window-maximized="1"
     inkscape:current-layer="svg3554" /><metadata
     id="metadata3556"> Svg Vector Icons : http://www.onlinewebfonts.com/icon <rdf:RDF><cc:Work
     rdf:about=""><dc:format>image/svg+xml</dc:format><dc:type
       rdf:resource="http://purl.org/dc/dcmitype/StillImage" /><dc:title></dc:title></cc:Work></rdf:RDF></metadata><g
     id="g3558"
     transform="matrix(0.86378148,0,0,0.86378148,68.116069,68.109305)"><path
       d="m 987.4,260.4 c 7.8,21.8 -17.7,71.9 -76.7,150.3 -8.2,10.9 -19.3,25.4 -33.2,43.4 -26.6,34.1 -41.9,56.4 -46,67 -5.8,14 -3.4,27.8 7.2,41.4 5.8,7.2 19.6,21.1 41.4,41.9 l 0.5,0 0.5,0.5 0.5,0.5 1,1 c 48,44.6 80.6,82.3 97.6,112.9 1,1.7 2.1,3.8 3.3,6.4 1.2,2.6 2.4,7.1 3.6,13.5 1.2,6.5 2,12.3 2.6,17.4 0.6,5.1 -3.7,9.8 -12.8,14.1 -9,4.3 -19.1,6.4 -30.2,6.4 l -130.8,2 c -8.2,1.7 -17.7,0.9 -28.6,-2.6 -10.9,-3.4 -19.8,-7.2 -26.6,-11.2 l -10.2,-6.1 c -10.2,-7.2 -22.1,-18.1 -35.8,-32.7 -13.7,-14.6 -25.3,-27.9 -35,-39.6 -9.7,-11.8 -20.1,-21.6 -31.2,-29.6 -11.1,-8 -20.7,-10.6 -28.9,-7.9 -1,0.3 -2.4,0.9 -4.1,1.8 -1.7,0.9 -4.6,3.3 -8.7,7.4 -4.1,4.1 -7.8,9.1 -11,15.1 -3.2,6 -6.1,14.8 -8.7,26.6 -2.6,11.8 -3.7,25 -3.3,39.6 0,5.1 -0.6,9.8 -1.8,14.1 -1.2,4.3 -2.5,7.4 -3.8,9.5 l -2,2.6 c -6.1,6.5 -15.2,10.2 -27.1,11.2 l -58.8,0 c -24.2,1.4 -49.1,-1.4 -74.6,-8.4 -25.6,-7 -48,-16 -67.2,-27.1 -19.3,-11.1 -36.8,-22.3 -52.6,-33.7 -15.8,-11.4 -27.9,-21.2 -36,-29.4 L 247.1,666.4 C 243.7,663 239,657.9 233,651.1 227,644.3 214.9,628.8 196.5,604.6 178.1,580.4 160,554.7 142.3,527.4 124.7,500 103.8,464 79.8,419.4 c -24,-44.6 -46.3,-91 -66.7,-139 -2,-5.5 -3.1,-10.1 -3.1,-13.8 0,-3.7 0.5,-6.5 1.5,-8.2 l 2,-3.1 c 5.1,-6.5 14.8,-9.7 29.1,-9.7 l 140,-1 c 4.1,0.7 8,1.8 11.8,3.3 3.7,1.5 6.5,3 8.2,4.3 l 2.6,1.5 c 5.5,3.7 9.5,9.2 12.3,16.4 6.8,17 14.7,34.7 23.5,52.9 8.9,18.2 15.8,32.1 21,41.7 l 8.2,14.8 c 9.9,20.4 19.4,38.2 28.6,53.2 9.2,15 17.5,26.7 24.8,35 7.3,8.3 14.4,14.9 21.2,19.7 6.8,4.8 12.6,7.2 17.4,7.2 4.8,0 9.4,-0.9 13.8,-2.6 0.7,-0.3 1.5,-1.2 2.6,-2.6 1,-1.4 3.1,-5.1 6.1,-11.2 3.1,-6.1 5.4,-14.1 6.9,-24 1.5,-9.9 3.2,-23.7 4.9,-41.4 1.7,-17.7 1.7,-39 0,-63.9 -0.7,-13.6 -2.2,-26.1 -4.6,-37.3 -2.4,-11.2 -4.8,-19.1 -7.2,-23.5 l -3.1,-6.1 c -8.5,-11.6 -23,-18.9 -43.4,-22 -4.4,-0.7 -3.6,-4.8 2.6,-12.3 5.8,-6.5 12.3,-11.6 19.4,-15.3 18.1,-8.9 58.8,-12.9 122.1,-12.3 27.9,0.3 50.9,2.6 69,6.6 6.8,1.7 12.5,4 17.1,6.9 4.6,2.9 8.1,7 10.5,12.3 2.4,5.3 4.2,10.7 5.4,16.4 1.2,5.6 1.8,13.4 1.8,23.3 0,9.9 -0.2,19.3 -0.5,28.1 -0.3,8.9 -0.8,20.9 -1.3,36 -0.5,15.2 -0.8,29.2 -0.8,42.2 0,3.7 -0.2,10.9 -0.5,21.5 -0.3,10.6 0.5,18.7 2.6,24.5 2.1,5.8 2.6,12.7 1.8,20.7 -0.9,8 1.1,14.7 5.9,19.9 4.8,5.3 8.6,9.5 11.5,12.5 2.7,0.7 5.6,1.4 8.7,2 3.1,0.7 7.5,-1.2 13.3,-5.6 5.8,-4.4 12.3,-10.3 19.4,-17.6 7.2,-7.3 16,-18.7 26.6,-34.2 10.6,-15.5 22.1,-33.8 34.8,-54.9 20.4,-35.4 38.7,-73.8 54.7,-115 1.4,-3.4 3.1,-6.4 5.1,-8.9 2,-2.5 3.9,-4.3 5.6,-5.4 l 2,-1.5 2.6,-1.3 6.6,-1.5 10.2,2.6 147.2,-1 c 13.3,-1.7 24.2,-1.3 32.7,1.3 8.5,2.6 13.8,5.4 15.8,8.4 l -2.7,2 z"
       id="path3560"
       inkscape:connector-curvature="0" /></g></svg>