<svg enable-background="new -272 395.9 50 50" viewBox="-272 395.9 50 50" xmlns="http://www.w3.org/2000/svg"><path d="m-236.5 411.4c-2.4-2.3-5.5-3.6-8.8-3.6-6.9 0-12.4 5.6-12.4 12.4 0 2.2.6 4.3 1.7 6.2l-1.8 6.4 6.6-1.7c1.8 1 3.9 1.5 5.9 1.5 6.9 0 12.4-5.6 12.4-12.4 0-3.4-1.3-6.5-3.6-8.8m-8.9 19c-1.9 0-3.7-.5-5.3-1.4l-.4-.2-3.9 1 1-3.8-.2-.4c-1-1.6-1.6-3.5-1.6-5.5 0-5.7 4.6-10.3 10.4-10.3 2.8 0 5.4 1.1 7.3 3 2 1.9 3 4.5 3 7.3.1 5.7-4.5 10.3-10.3 10.3m5.7-7.7c-.3-.2-1.8-.9-2.1-1s-.5-.2-.7.2c-.2.3-.8 1-1 1.2s-.4.2-.7.1c-.3-.2-1.3-.5-2.5-1.5-.9-.8-1.5-1.8-1.7-2.1s0-.5.1-.6.3-.4.5-.5c.2-.2.2-.3.3-.5s.1-.4 0-.5c-.1-.2-.7-1.7-1-2.3s-.5-.5-.7-.5-.4 0-.6 0-.5.1-.8.4-1.1 1.1-1.1 2.6 1.1 3 1.3 3.2 2.2 3.3 5.3 4.7c.7.3 1.3.5 1.8.7.7.2 1.4.2 2 .1s1.8-.7 2.1-1.5c.3-.7.3-1.3.2-1.5-.2-.5-.4-.5-.7-.7"/></svg>