<?xml version="1.0" encoding="UTF-8" standalone="no"?>
<!-- Svg Vector Icons : http://www.onlinewebfonts.com/icon -->

<svg
   xmlns:dc="http://purl.org/dc/elements/1.1/"
   xmlns:cc="http://creativecommons.org/ns#"
   xmlns:rdf="http://www.w3.org/1999/02/22-rdf-syntax-ns#"
   xmlns:svg="http://www.w3.org/2000/svg"
   xmlns="http://www.w3.org/2000/svg"
   xmlns:sodipodi="http://sodipodi.sourceforge.net/DTD/sodipodi-0.dtd"
   xmlns:inkscape="http://www.inkscape.org/namespaces/inkscape"
   version="1.1"
   x="0px"
   y="0px"
   viewBox="0 0 1000 1000"
   enable-background="new 0 0 1000 1000"
   xml:space="preserve"
   id="svg3421"
   inkscape:version="0.91 r13725"
   sodipodi:docname="ok.svg"><defs
     id="defs3433" /><sodipodi:namedview
     pagecolor="#ffffff"
     bordercolor="#666666"
     borderopacity="1"
     objecttolerance="10"
     gridtolerance="10"
     guidetolerance="10"
     inkscape:pageopacity="0"
     inkscape:pageshadow="2"
     inkscape:window-width="1920"
     inkscape:window-height="1017"
     id="namedview3431"
     showgrid="false"
     inkscape:zoom="0.422"
     inkscape:cx="249.7214"
     inkscape:cy="388.72239"
     inkscape:window-x="1280"
     inkscape:window-y="30"
     inkscape:window-maximized="1"
     inkscape:current-layer="svg3421" /><metadata
     id="metadata3423"> Svg Vector Icons : http://www.onlinewebfonts.com/icon <rdf:RDF><cc:Work
     rdf:about=""><dc:format>image/svg+xml</dc:format><dc:type
       rdf:resource="http://purl.org/dc/dcmitype/StillImage" /><dc:title></dc:title></cc:Work></rdf:RDF></metadata><g
     id="g3425"
     transform="matrix(0.76660948,0,0,0.76660948,116.69526,116.69526)"><g
       id="g3427"><path
         d="M 500,506 C 431.5,506 372.9,481.8 324.5,433.3 276,384.8 251.8,326.5 251.8,258.3 251.8,189.8 276,131.2 324.5,82.8 372.9,34.2 431.5,10 500,10 c 68.5,0 127.1,24.2 175.5,72.7 48.5,48.5 72.7,107 72.7,175.5 0,68.2 -24.2,126.5 -72.7,175 C 627.1,481.8 568.5,506 500,506 Z m 0,-370.2 c -33.5,0 -62.3,11.9 -86.1,35.8 -23.9,23.9 -35.9,52.8 -35.9,86.7 0,33.5 11.9,62.3 35.8,86.1 23.9,23.8 52.6,35.8 86.1,35.8 33.5,0 62.3,-11.9 86.1,-35.8 23.8,-23.9 35.8,-52.6 35.8,-86.1 0,-33.9 -11.9,-62.8 -35.8,-86.7 -23.7,-23.9 -52.5,-35.8 -86,-35.8 z m 286,400.3 c 4.7,9.8 7.5,18.9 8.2,27.1 0.7,8.2 -0.1,15.6 -2.5,22.1 -2.4,6.6 -7.2,13.6 -14.5,21.1 -7.3,7.5 -15,14.2 -23.2,20.2 -8.2,6 -19.4,13.6 -33.6,22.7 -41.9,26.6 -99.3,43.8 -172.3,51.4 l 39.9,39.4 146,146 c 10.9,11.3 16.4,24.8 16.4,40.5 0,15.7 -5.5,29 -16.4,39.9 l -6.6,7.1 C 716.2,984.5 702.7,990 687,990 671.3,990 657.8,984.5 646.5,973.6 622.1,948.8 573.4,900 500.5,827 l -146,146.6 C 343.2,984.5 329.7,990 314,990 c -15.7,0 -29,-5.5 -39.9,-16.4 l -6.6,-7.1 c -11.3,-10.9 -17,-24.2 -17,-39.9 0,-15.7 5.7,-29.2 17,-40.5 L 453,700.7 C 379,693 321.2,675.9 279.6,649.3 265.4,640.2 254.2,632.6 246,626.6 c -8.2,-6 -16,-12.8 -23.2,-20.2 -7.3,-7.5 -12.1,-14.5 -14.5,-21.1 -2.4,-6.6 -3.2,-13.9 -2.5,-22.1 0.7,-8.2 3.5,-17.2 8.2,-27.1 3.6,-7.3 8.8,-13.7 15.3,-19.1 6.6,-5.5 14.2,-9.5 23,-12 8.8,-2.6 19,-2.2 30.6,1.1 11.7,3.3 23.5,9.7 35.5,19.1 1.8,1.5 4.6,3.5 8.2,6 3.6,2.6 11.5,7 23.5,13.4 12,6.4 24.6,11.9 37.7,16.7 13.1,4.8 29.9,9.1 50.3,13.1 20.4,4 41,6 61.8,6 33.2,0 64.9,-4.6 95.2,-13.9 30.3,-9.3 52.1,-18.5 65.6,-27.6 l 20.8,-13.7 c 12,-9.5 23.9,-15.9 35.5,-19.1 11.7,-3.3 21.9,-3.6 30.6,-1.1 8.7,2.5 16.4,6.6 23,12 6.6,5.4 11.8,11.8 15.4,19.1 l 0,0 z"
         id="path3429"
         inkscape:connector-curvature="0" /></g></g></svg>