<svg id="Capa_1" enable-background="new 0 0 512 512" height="512" viewBox="0 0 512 512" width="512" xmlns="http://www.w3.org/2000/svg"><path d="m332.928 320.891c63.412-66.844 36.169-144.057 34.273-181.614-2.164-42.87 38.029-58.389 38.029-58.389v-.001c-.043.001-43.085.687-55.87 41.641-11.206 35.896-12.338 117.767-94.95 158.565-93.101 45.978-153.272-7.09-211.39 35.592l-24.803.565-10.217 28.569 23.185 17.177c20.865 35.535 66.414 53.08 121.55 56.446 40.969-49.71 112.099-26.771 180.193-98.551z" fill="#f9cf1e"/><path d="m124.092 466.819 27.694 8.102c52.433 42.998 150.736 17.186 237.676-38.268 145.241-92.64 138.499-320.165 56.72-360.553l-.757-50.732c-.082-5.513-4.621-9.914-10.134-9.828l-20.595.324c-5.474.086-9.856 4.566-9.821 10.041l.354 54.983s-40.193 15.519-38.029 58.389c1.896 37.557 29.139 114.77-34.273 181.614-71.464 75.331-146.271 46.339-186.049 106.482l-23.079 9.105z" fill="#ffe55a"/><path d="m455.359 81.628c53.888 72.041 43.05 256.053-83.896 337.024-63.424 40.454-152.12 65.387-215.822 59.227 53.289 38.773 148.964 12.899 233.822-41.227 139.605-89.045 138.793-302.709 65.896-355.024z" fill="#ffd91d"/><path d="m349.36 122.527c-.081.259-.159.528-.239.792-.008 1.227.016 2.476.08 3.75 1.896 37.557 29.139 114.77-34.273 181.614-70.516 74.333-138.812 39.28-188.409 107.944 8.44 1.326 17.197 2.264 26.216 2.815 40.968-49.71 112.098-26.771 180.193-98.551 63.412-66.844 36.169-144.057 34.273-181.614-2.164-42.87 38.029-58.389 38.029-58.389v-.001c-.043 0-43.085.686-55.87 41.64z" fill="#e8c11c"/><path d="m385.691 430.688c-43.899 28-89.856 47.575-129.406 55.118-53.724 10.247-83.997-3.181-99.934-16.249-.782-.641-1.685-1.118-2.655-1.402l-22.398-6.553-.188-19.659 18.318-7.227c1.434-.566 2.66-1.559 3.51-2.845 17.855-26.997 44.061-34.765 74.406-43.76 34.214-10.142 72.993-21.637 111.194-61.906 25.621-27.008 39.706-58.017 43.058-94.798.377-4.133-2.669-7.789-6.802-8.166-4.138-.377-7.789 2.668-8.166 6.802-3.033 33.285-15.788 61.357-38.994 85.819-35.43 37.347-72.157 48.234-104.561 57.839-27.506 8.154-53.686 15.926-73.766 38.329-69.979-5.101-99.576-31.317-112.08-52.614-.512-.872-1.195-1.632-2.007-2.234l-18.751-13.892 6.62-18.511 19.688-.449c1.541-.035 3.034-.543 4.277-1.456 26.088-19.158 53.365-17.386 84.949-15.337l.071.005c4.132.268 7.681-2.872 7.95-7.014s-2.906-7.719-7.048-7.988c-32.371-2.102-62.985-4.091-92.862 16.818l-22.533.513c-3.111.071-5.857 2.052-6.905 4.983l-10.237 28.625c-1.115 3.117-.058 6.597 2.602 8.569l22.027 16.319c18.853 30.903 55.617 50.412 107.035 57.026l-11.317 4.465c-2.895 1.142-4.786 3.951-4.757 7.062l.292 30.4c.032 3.311 2.227 6.211 5.404 7.141l26.312 7.697c18.664 14.772 43.318 22.279 72.553 22.278 12.086-.001 24.959-1.284 38.509-3.868 41.977-8.006 88.546-27.789 134.672-57.21 3.499-2.232 4.526-6.878 2.294-10.377-2.229-3.498-6.877-4.525-10.374-2.293z"/><path d="m510.053 179.25c-3.111-25.61-9.956-49.039-19.795-67.754-9.558-18.182-22.023-32.006-36.245-40.264l-.693-46.419c-.143-9.556-8.233-17.387-17.786-17.248l-20.637.324c-9.565.151-17.297 8.056-17.236 17.623l.311 48.269c-14.198 2.214-44.603 11.046-55.595 46.257-2.129 6.82-3.832 14.834-5.804 24.115-4.248 19.99-9.534 44.867-21.874 68.533-14.325 27.474-35.133 47.666-63.614 61.732-35.78 17.671-65.988 19.7-88.316 19.487-.024-.001-.048-.001-.072-.001-4.117 0-7.474 3.318-7.513 7.444-.039 4.15 3.294 7.546 7.444 7.585.997.009 2.005.015 3.032.015 23.668-.001 55.057-2.77 92.08-21.054 71.116-35.121 84.607-98.606 93.534-140.617 1.894-8.912 3.529-16.609 5.45-22.76 2.464-7.894 6.212-14.067 10.553-18.912-4.949 9.304-8.025 20.561-7.355 33.834.36 7.136 1.533 15.245 2.891 24.635 1.673 11.563 3.568 24.669 4.265 38.68.206 4.145 3.744 7.344 7.879 7.132 4.145-.206 7.339-3.733 7.132-7.879-.732-14.716-2.682-28.194-4.401-40.084-1.304-9.018-2.431-16.806-2.755-23.242-1.86-36.83 31.891-50.559 33.305-51.116 2.913-1.125 4.828-3.936 4.808-7.059l-.355-55.092c-.009-1.356 1.088-2.477 2.443-2.499l20.637-.324c1.357-.01 2.501 1.079 2.521 2.445l.758 50.832c.042 2.819 1.659 5.377 4.186 6.626 26.595 13.134 45.995 49.981 51.897 98.567 4.781 39.363.181 82.694-12.955 122.011-14.846 44.436-40.09 82.593-73.005 110.344-2.88 2.428-3.506 6.765-1.416 9.903 2.452 3.683 7.718 4.442 11.104 1.587 35.027-29.532 61.851-70.015 77.572-117.072 13.828-41.387 18.665-87.053 13.62-128.584z"/></svg>