<svg height="511pt" viewBox="0 -8 511.9132 511" width="511pt" xmlns="http://www.w3.org/2000/svg"><path d="m469.171875 136.988281c0 6.402344-18.429687 22.53125-44.628906 30.125l-16.808594-2.988281-63.917969-11.519531 71.085938-39.679688 10.324218-5.800781c25.855469 7.59375 43.945313 23.464844 43.945313 29.863281zm0 0" fill="#558b30"/><path d="m443.574219 136.988281c0 5.632813-14.421875 18.945313-35.839844 27.136719l-63.917969-11.519531 71.085938-39.679688c17.40625 8.105469 28.671875 19.03125 28.671875 24.0625zm0 0" fill="#8bc34a"/><path d="m425.226562 107.125c-3.433593 5.160156-7.378906 9.964844-11.777343 14.335938-12.628907 13.21875-28.089844 23.402343-45.226563 29.78125l2.132813-14.765626 11.09375-76.285156c10.222656-6.632812 21.507812-11.453125 33.367187-14.253906 12.882813-3.070312 23.039063-2.558594 25.769532.171875 5.121093 5.035156 2.476562 34.816406-15.359376 61.015625zm0 0" fill="#558b30"/><path d="m399.625 107.125c-3.433594 5.160156-7.378906 9.964844-11.773438 14.335938-5.449218 5.433593-11.296874 10.453124-17.496093 15.015624l11.09375-76.285156c10.222656-6.632812 21.507812-11.453125 33.367187-14.253906l.167969.171875c5.121094 5.035156 2.476563 34.816406-15.359375 61.015625zm0 0" fill="#8bc34a"/><path d="m502.792969 346.996094c-4.054688 42.617187-25.242188 81.761718-58.707031 108.457031-30.011719 23.566406-67.90625 34.742187-105.898438 31.234375-48.820312-4.367188-94.550781-25.75-129.195312-60.417969-.921876-.933593-1.777344-1.933593-2.5625-2.984375-5.121094-5.882812-9.773438-12.160156-13.90625-18.773437-1.109376-1.707031-2.21875-3.671875-3.242188-5.546875l259.839844-171.949219 19.027344-12.542969c0 .085938.085937.171875.085937.257813 22.015625 39.167969 38.398437 86.695312 34.558594 132.265625zm0 0" fill="#4e342e"/><path d="m477.195312 346.996094c-4.089843 42.605468-25.273437 81.738281-58.710937 108.457031-23.023437 18.238281-51.003906 29.121094-80.296875 31.234375-48.820312-4.367188-94.550781-25.75-129.195312-60.417969-.921876-.933593-1.777344-1.933593-2.5625-2.984375-5.121094-5.882812-9.773438-12.160156-13.90625-18.773437-1.109376-1.707031-2.21875-3.671875-3.242188-5.546875l259.839844-171.949219c18.6875 36.609375 31.402344 79.105469 28.074218 119.980469zm0 0" fill="#795548"/><path d="m382.21875 103.539062c1.078125-7.289062 1.617188-14.648437 1.621094-22.015624.003906-7.179688-.800782-14.332032-2.390625-21.332032-6.570313-29.699218-24.832031-51.203125-31.742188-51.203125-7.339843 0-27.394531 24.152344-32.769531 56.40625l45.484375 94.839844zm0 0" fill="#8bc34a"/><path d="m368.761719 152.886719c-27.203125-88.140625-105.242188-148.734375-191.863281-141.59375-101.914063 8.355469-176.8789068 107.257812-167.585938 220.953125 9.207031 112.25 97.007812 196.855468 197.117188 191.003906zm0 0" fill="#795548"/><g fill="#4e342e"><path d="m170.0625 137.136719c0-9.507813-11.5625-17.214844-25.820312-17.214844-14.261719 0-25.824219 7.707031-25.824219 17.214844 0 9.503906 11.5625 17.210937 25.824219 17.210937 14.257812 0 25.820312-7.707031 25.820312-17.210937zm0 0"/><path d="m255.839844 130.941406c0-9.507812-11.5625-17.214844-25.820313-17.214844-14.261719 0-25.824219 7.707032-25.824219 17.214844 0 9.503906 11.5625 17.210938 25.824219 17.210938 14.257813 0 25.820313-7.707032 25.820313-17.210938zm0 0"/><path d="m206.160156 79.296875c0-9.507813-11.5625-17.210937-25.824218-17.210937-14.261719 0-25.820313 7.703124-25.820313 17.210937 0 9.503906 11.558594 17.210937 25.820313 17.210937 14.261718 0 25.824218-7.707031 25.824218-17.210937zm0 0"/></g><path d="m404.148438 395.71875c-34.195313 29.261719-77.304688 46.046875-122.28125 47.617188-4.183594 0-8.363282-.171876-12.460938-.511719-29.25-1.871094-56.492188-15.507813-75.519531-37.800781-22.699219-27.648438-29.097657-66.476563-17.578125-106.582032 12.121094-38.644531 35.503906-72.785156 67.15625-98.046875 31.074218-26.277343 69.285156-42.679687 109.738281-47.105469 4.183594-.339843 8.363281-.511718 12.546875-.511718 33.636719-1.234375 66.007812 12.894531 87.976562 38.398437 45.058594 54.699219 23.296876 144.554688-49.578124 204.542969zm0 0" fill="#607d8b"/><path d="m379.0625 395.71875c-31.054688 26.261719-69.230469 42.664062-109.65625 47.105469-29.25-1.871094-56.492188-15.507813-75.519531-37.800781-22.699219-27.648438-29.097657-66.476563-17.578125-106.582032 12.121094-38.644531 35.503906-72.785156 67.15625-98.046875 31.074218-26.277343 69.285156-42.679687 109.738281-47.105469 29.265625 1.882813 56.515625 15.554688 75.523437 37.886719 45.054688 54.699219 23.207032 144.554688-49.664062 204.542969zm0 0" fill="#cfd8dc"/><path d="m413.449219 336.671875c-18.089844-11.351563-54.355469-11.09375-92.160157 2.386719-42.066406 15.019531-72.363281 41.472656-74.496093 63.234375-10.230469-4.140625-19.289063-10.734375-26.367188-19.203125-32.253906-39.167969-12.203125-109.054688 44.886719-156.074219 57.085938-47.019531 129.621094-53.246094 161.875-13.992187 25.429688 30.972656 18.347656 80.894531-13.738281 123.648437zm0 0" fill="#f5f5f5"/><path d="m413.449219 336.671875c-9.050781 12.011719-19.507813 22.898437-31.144531 32.425781-44.628907 36.777344-98.648438 48.554688-135.511719 33.195313 2.132812-21.761719 32.429687-48.214844 74.496093-63.234375 37.804688-13.480469 74.070313-13.738282 92.160157-2.386719zm0 0" fill="#cfd8dc"/><path d="m475.53125 210.273438c-3.3125-7.253907-7.414062-14.121094-12.230469-20.480469 0-.074219-.050781-.167969-.09375-.246094-.429687-.804687-.984375-1.539063-1.644531-2.167969-.4375-.546875-.769531-1.132812-1.203125-1.707031-5.089844-6.136719-10.84375-11.691406-17.160156-16.554687 18.414062-8.464844 34.507812-21.351563 34.507812-32.128907 0-11.773437-19.328125-26.144531-39.75-34.414062 13.398438-24.53125 17.921875-53.417969 8.714844-62.445313-8.535156-8.730468-36.113281-4.933594-59.929687 7.183594-8.328126-25.316406-24.773438-46.855469-37.035157-46.855469-12.734375 0-29.40625 22.648438-37.546875 48.546875-37.136718-33.273437-86.242187-49.964844-135.960937-46.210937-106.386719 8.757812-185.0625 111.960937-175.394531 230.15625 9.191406 111.980469 96.058593 199.125 196.050781 199.113281 1.914062 0 3.851562-.101562 5.769531-.167969.128906.125.222656.273438.351562.398438 39.222657 39.527343 92.179688 62.402343 147.847657 63.855469 35.804687.320312 70.628906-11.699219 98.609375-34.039063 35.277344-28.191406 57.613281-69.484375 61.894531-114.441406 4.386719-52.75-16.699219-103.25-35.304687-136.589844-.125-.292969-.339844-.53125-.492188-.804687zm-15.429688-73.285157c-9.570312 9.941407-21.609374 17.160157-34.882812 20.925781-9.492188-4.820312-19.574219-8.375-29.988281-10.574218 8.746093-5.761719 16.871093-12.410156 24.253906-19.839844 3.191406-3.234375 6.164063-6.675781 8.898437-10.308594 12.082032 3.800782 22.996094 10.613282 31.71875 19.796875zm-69.433593-32.195312c1.136719-7.703125 1.707031-15.480469 1.703125-23.269531-.050782-5.679688-.5625-11.347657-1.535156-16.949219 13.042968-7.984375 28.058593-12.164063 43.351562-12.0625.066406 17.910156-5.566406 35.375-16.078125 49.875-3.121094 4.679687-6.703125 9.035156-10.691406 13.003906-7.621094 7.679687-16.152344 14.394531-25.40625 19.996094 4.28125-9.75 7.195312-20.046875 8.65625-30.59375zm-40.960938-86.714844c12.148438 11.914063 20.332031 27.285156 23.433594 44.015625 1.445313 6.375 2.171875 12.890625 2.164063 19.429688-.003907 6.953124-.515626 13.894531-1.535157 20.769531-1.125 8.035156-3.195312 15.910156-6.167969 23.457031-10.039062-23.25-24.027343-44.589844-41.34375-63.066406 3.035157-16.929688 11.226563-32.507813 23.449219-44.605469zm-331.886719 213.476563c-8.902343-108.816407 62.777344-203.792969 159.777344-211.753907 77.808594-6.355469 149.855469 44.585938 179.257813 124.929688-43.753907 3.566406-85.296875 20.738281-118.800781 49.109375-33.007813 26.335937-57.378907 61.949218-69.972657 102.253906-11.65625 35.710938-6.695312 74.765625 13.515625 106.429688.085938.175781.078125.375.171875.542968 1.144531 2.082032 2.390625 4.164063 3.523438 5.976563 1.28125 2.054687 2.5625 3.863281 3.910156 5.765625-87.816406-4.417969-163.15625-82.992188-171.382813-183.253906zm182.613282 168.023437c-20.863282-25.363281-26.691406-61.378906-15.941406-98.75 11.632812-36.988281 34.066406-69.652344 64.417968-93.789063 32.632813-28.027343 73.824219-44.132812 116.8125-45.679687 31.085938-1.21875 61.042969 11.734375 81.453125 35.210937 42.007813 51.046876 20.726563 135.628907-48.445312 192.554688-32.640625 28.023438-73.828125 44.128906-116.820313 45.679688-31.089844 1.214843-61.046875-11.742188-81.453125-35.226563zm293.863281-53.316406c-3.859375 40.269531-23.890625 77.253906-55.511719 102.484375-55.40625 44.042968-131.335937 34.988281-188.175781-.402344 10.261719 2.332031 20.75 3.507812 31.273437 3.507812 46.949219-1.5625 91.972657-19.042968 127.675782-49.570312 44.535156-36.691406 70.554687-84.171875 75.1875-129.03125 7.925781 23.480469 11.175781 48.28125 9.574218 73.011719zm0 0"/><path d="m178.597656 137.144531c0-14.4375-15.089844-25.753906-34.355468-25.753906-19.269532 0-34.324219 11.316406-34.324219 25.753906s15.089843 25.742188 34.355469 25.742188c19.269531 0 34.324218-11.3125 34.324218-25.742188zm-34.355468 8.675781c-10.558594 0-17.289063-5.117187-17.289063-8.675781 0-3.558593 6.730469-8.6875 17.289063-8.6875 10.554687 0 17.285156 5.121094 17.285156 8.6875 0 3.566407-6.730469 8.675781-17.285156 8.675781zm0 0"/><path d="m195.664062 130.941406c0 14.4375 15.09375 25.753906 34.355469 25.753906 19.257813 0 34.351563-11.316406 34.351563-25.753906 0-14.441406-15.09375-25.746094-34.351563-25.746094-19.261719 0-34.355469 11.316407-34.355469 25.746094zm34.355469-8.679687c10.554688 0 17.285157 5.121093 17.285157 8.679687s-6.730469 8.683594-17.285157 8.683594c-10.558593 0-17.289062-5.117188-17.289062-8.683594 0-3.570312 6.730469-8.679687 17.289062-8.679687zm0 0"/><path d="m180.335938 105.042969c19.269531 0 34.363281-11.308594 34.363281-25.746094s-15.09375-25.746094-34.363281-25.746094c-19.269532 0-34.355469 11.308594-34.355469 25.746094s15.140625 25.746094 34.355469 25.746094zm0-34.425781c10.566406 0 17.296874 5.121093 17.296874 8.679687s-6.730468 8.675781-17.296874 8.675781c-10.5625 0-17.289063-5.117187-17.289063-8.675781s6.734375-8.679687 17.289063-8.679687zm0 0"/><path d="m60.230469 233.289062c-.519531-4.683593-4.742188-8.058593-9.425781-7.539062-4.683594.519531-8.058594 4.738281-7.539063 9.425781 8.953125 80.492188 61.753906 116.554688 64 118.046875 2.535156 1.695313 5.785156 1.90625 8.519531.558594 2.734375-1.351562 4.542969-4.058594 4.738282-7.101562.199218-3.042969-1.242188-5.960938-3.777344-7.65625-.496094-.3125-48.445313-33.074219-56.515625-105.734376zm0 0"/><path d="m60.359375 173.90625c4.710937 0 8.53125-3.820312 8.53125-8.535156 0-37.382813 21.027344-52.460938 22.066406-53.179688 3.914063-2.625 4.957031-7.929687 2.332031-11.84375-2.628906-3.914062-7.929687-4.957031-11.84375-2.328125-1.214843.851563-29.621093 20.289063-29.621093 67.351563 0 4.714844 3.820312 8.535156 8.535156 8.535156zm0 0"/><path d="m387.695312 375.703125c12.023438-9.890625 22.820313-21.183594 32.164063-33.640625.304687-.261719.589844-.546875.851563-.851562.113281-.171876.113281-.359376.207031-.539063 33.613281-45.695313 40.574219-99.429687 12.902343-133.121094-35.226562-42.808593-113.230468-37.050781-173.851562 12.800781-60.621094 49.851563-81.296875 125.3125-46.078125 168.105469 7.738281 9.296875 17.625 16.570313 28.800781 21.199219l.195313.09375c12.394531 5.039062 25.675781 7.554688 39.054687 7.398438 38.9375-1.402344 76.234375-16.023438 105.753906-41.445313zm-146.363281 14.28125c-5.417969-3.269531-10.253906-7.421875-14.300781-12.285156-29.21875-35.542969-9.589844-100.183594 43.742188-144.09375 26.464843-23.011719 59.941406-36.386719 94.976562-37.949219 20.785156-1.109375 40.957031 7.269531 54.84375 22.777344 21.808594 26.511718 16.410156 69.203125-9.875 107.417968-21.980469-9.191406-56.890625-7.460937-92.296875 5.167969-38.757813 13.832031-67.8125 36.5-77.089844 58.964844zm82.816407-42.886719c28.363281-10.121094 57.371093-12.550781 75.546874-7.074218-6.945312 8.152343-14.59375 15.683593-22.851562 22.503906-39.398438 32.425781-86.308594 44.542968-119.945312 34.394531 6.269531-15.589844 29.832031-36.46875 67.257812-49.824219zm0 0"/></svg>