<svg height="511pt" viewBox="0 -11 511.99897 511" width="511pt" xmlns="http://www.w3.org/2000/svg"><path d="m379.359375 260.902344c0 102.6875-83.242187 185.933594-185.929687 185.933594s-185.929688-83.246094-185.929688-185.933594c0-102.683594 83.242188-185.929688 185.929688-185.929688s185.929687 83.246094 185.929687 185.929688zm0 0" fill="#ffae4d"/><path d="m278.441406 125.117188c0-16.488282-37.46875-29.855469-83.691406-29.855469s-83.691406 13.367187-83.691406 29.855469c0 16.488281 37.46875 29.855468 83.691406 29.855468s83.691406-13.367187 83.691406-29.855468zm0 0" fill="#ff9b36"/><path d="m217.363281 445.3125c-7.835937 1-15.824219 1.523438-23.9375 1.523438-102.679687 0-185.929687-83.25-185.929687-185.929688 0-102.691406 83.25-185.929688 185.929687-185.929688 8.113281 0 16.101563.523438 23.9375 1.519532-91.382812 11.742187-162 89.824218-162 184.410156 0 94.574219 70.617188 172.667969 162 184.40625zm0 0" fill="#ff9b36"/><path d="m129.308594 98.535156c10.703125 18.910156 32.277344 27.820313 52.445312 23.316406 4.527344-1.011718 8.988282-2.707031 13.246094-5.109374 23.164062-13.109376 31.320312-42.519532 18.210938-65.6875-4.980469-8.796876-14.074219-18.550782-24.710938-26.546876-17.375-13.070312-38.863281-21.445312-53.230469-13.316406-23.167969 13.109375-19.070312 64.175782-5.960937 87.34375zm0 0" fill="#479838"/><path d="m181.753906 121.851562c4.527344-1.011718 8.988282-2.707031 13.246094-5.109374 23.164062-13.109376 31.320312-42.519532 18.210938-65.6875-4.980469-8.796876-14.074219-18.550782-24.710938-26.546876-10.207031 10.460938-18.234375 22.371094-22.15625 32.386719-9.160156 23.347657-2.226562 49.101563 15.410156 64.957031zm0 0" fill="#317f21"/><path d="m191.554688 63.304688c10.992187 19.429687 7.039062 43.238281-8.179688 58.148437 3.972656-1.027344 7.886719-2.59375 11.625-4.710937 23.164062-13.109376 31.320312-42.519532 18.210938-65.6875-4.980469-8.796876-14.074219-18.550782-24.710938-26.546876-5.617188 5.761719-10.582031 11.957032-14.558594 18.042969 7.523438 6.660157 13.785156 13.992188 17.613282 20.753907zm0 0" fill="#317f21"/><path d="m175.96875 60.671875c-9.71875 24.785156 2.492188 52.753906 27.277344 62.46875 24.78125 9.71875 52.75-2.492187 62.46875-27.277344 9.71875-24.78125 6.585937-75.910156-18.199219-85.628906-24.78125-9.71875-61.828125 25.65625-71.546875 50.4375zm0 0" fill="#77bc4d"/><path d="m494.617188 287.769531c5.6875 0 10.171874 4.789063 9.871093 10.46875-5.4375 102.152344-89.992187 183.3125-193.5 183.3125-103.511719 0-188.0625-81.160156-193.5-183.3125-.304687-5.679687 4.179688-10.46875 9.867188-10.46875zm0 0" fill="#fff4c3"/><path d="m467.214844 287.769531c0 43.140625-17.484375 82.203125-45.757813 110.46875-28.269531 28.277344-67.328125 45.761719-110.472656 45.761719-43.140625 0-82.199219-17.484375-110.46875-45.761719-28.277344-28.265625-45.761719-67.328125-45.761719-110.46875zm0 0" fill="#f74f43"/><path d="m421.457031 398.238281c-28.269531 28.277344-67.328125 45.761719-110.46875 45.761719v-156.230469zm0 0" fill="#ff8e7d"/><path d="m310.988281 287.769531v156.230469c-43.144531 0-82.203125-17.484375-110.46875-45.761719zm0 0" fill="#ff7061"/><path d="m15 260.902344c0-36.097656 10.722656-70.871094 31.011719-100.554688 18.75-27.433594 44.460937-48.898437 74.597656-62.375.699219 1.503906 1.421875 2.929688 2.171875 4.253906 10.21875 18.054688 28.878906 28.34375 48.34375 28.34375 7.160156 0 14.425781-1.414062 21.421875-4.320312 2.527344 1.480469 5.179687 2.785156 7.960937 3.875 6.65625 2.609375 13.515626 3.847656 20.269532 3.847656 21.566406 0 42.015625-12.617187 51.085937-33.363281 26.652344 13.070313 49.769531 32.679687 67.050781 56.972656 1.464844 2.054688 3.773438 3.148438 6.121094 3.148438 1.503906 0 3.019532-.449219 4.339844-1.386719 3.375-2.402344 4.164062-7.085938 1.761719-10.460938-19.210938-27-45.082031-48.660156-74.910157-62.8125 5.621094-28.773437.277344-72.527343-25.96875-82.816406-17.210937-6.75-37.613281 3.167969-53.96875 17.824219-9.597656-7.742187-20.085937-13.808594-29.867187-17.234375-13.496094-4.722656-25.546875-4.4375-34.847656.824219-22.691407 12.839843-23.65625 51.503906-16.0625 79.152343-33.109375 14.574219-61.351563 38.019532-81.882813 68.066407-22 32.1875-33.628906 69.882812-33.628906 109.015625 0 41.023437 12.6875 80.222656 36.695312 113.359375 1.46875 2.023437 3.757813 3.101562 6.078126 3.101562 1.527343 0 3.066406-.464843 4.394531-1.429687 3.355469-2.429688 4.105469-7.121094 1.675781-10.472656-22.140625-30.5625-33.84375-66.714844-33.84375-104.558594zm223.40625-244.824219c2.253906 0 4.394531.363281 6.375 1.140625 19.167969 7.515625 22.742188 53.484375 13.949219 75.90625-8.191407 20.894531-31.855469 31.226562-52.746094 23.035156-20.894531-8.195312-31.226563-31.855468-23.035156-52.75 7.882812-20.101562 35.925781-47.332031 55.457031-47.332031zm-99.445312 1.644531c11.648437-6.59375 31.605468 2.285156 46.742187 14.105469-7.613281 8.75-13.566406 18.074219-16.71875 26.109375-5.433594 13.851562-5.144531 28.988281.8125 42.621094 2.296875 5.261718 5.335937 10.050781 8.992187 14.265625-16.789062 3.226562-34.152343-4.4375-42.953124-19.984375-11.859376-20.960938-14.792969-66.980469 3.125-77.117188zm0 0"/><path d="m507.214844 285.6875c-3.265625-3.441406-7.855469-5.417969-12.597656-5.417969h-60.300782c-4.140625 0-7.5 3.359375-7.5 7.5 0 4.144531 3.359375 7.5 7.5 7.5h25.214844c-1.699219 34.425781-15.066406 66.699219-38.207031 92.230469l-92.230469-92.230469h70.699219c4.144531 0 7.503906-3.355469 7.503906-7.5 0-4.140625-3.359375-7.5-7.503906-7.5h-13.898438c.636719-6.417969.964844-12.90625.964844-19.367187 0-27.679688-5.730469-54.414063-17.023437-79.457032-1.707032-3.777343-6.148438-5.457031-9.921876-3.75-3.777343 1.699219-5.457031 6.144532-3.753906 9.917969 10.417969 23.089844 15.699219 47.75 15.699219 73.289063 0 6.46875-.371094 12.960937-1.058594 19.367187h-243.445312c-4.742188 0-9.332031 1.976563-12.597657 5.417969-3.277343 3.457031-5.015624 8.179688-4.761718 12.949219 2.976562 55.910156 28.609375 105.464843 67.710937 140.003906-40.019531-3.5-77.535156-20.296875-106.980469-48.199219-3.007812-2.851562-7.753906-2.722656-10.605468.28125-2.847656 3.007813-2.71875 7.753906.285156 10.605469 36.074219 34.183594 83.316406 53.007813 133.023438 53.007813 1.460937 0 2.929687-.023438 4.394531-.058594 32.304687 21.972656 71.300781 34.773437 113.160156 34.773437 107.023437 0 195.304687-83.640625 200.988281-190.414062.257813-4.769531-1.480468-9.492188-4.757812-12.949219zm-295.960938 112.421875 92.230469-92.230469v130.4375c-34.421875-1.699218-66.695313-15.066406-92.230469-38.207031zm-48.8125-102.839844h130.4375l-92.230468 92.230469c-23.140626-25.53125-36.507813-57.804688-38.207032-92.230469zm156.042969 10.605469 92.234375 92.234375c-25.53125 23.136719-57.804688 36.507813-92.234375 38.203125zm-7.5 168.175781c-39.417969 0-76.085937-12.273437-106.285156-33.261719-.210938-.167968-.429688-.320312-.660157-.460937-45.316406-31.789063-75.910156-83.292969-79.0625-142.488281-.050781-.929688.398438-1.546875.667969-1.832032.316407-.335937.875-.734374 1.710938-.734374h20.074219c1.832031 40.921874 18.632812 79.128906 47.785156 108.269531 30.914062 30.925781 72.03125 47.957031 115.769531 47.957031 43.742187 0 84.859375-17.03125 115.773437-47.957031 29.152344-29.144531 45.953126-67.347657 47.785157-108.273438h20.070312c.839844 0 1.398438.402344 1.714844.738281.269531.285157.71875.902344.667969 1.832032-5.257813 98.808594-86.964844 176.210937-186.011719 176.210937zm0 0"/><path d="m256.679688 380.550781c-.023438 0-.042969 0-.0625 0-4.113282 0-7.464844 3.320313-7.5 7.441407l-.039063 4.925781c-.03125 4.144531 3.300781 7.527343 7.441406 7.5625h.0625c4.113281 0 7.464844-3.320313 7.496094-7.441407l.039063-4.925781c.035156-4.144531-3.296876-7.527343-7.4375-7.5625zm0 0"/><path d="m285.8125 393.414062c-2.789062-3.0625-7.535156-3.28125-10.59375-.488281l-3.65625 3.332031c-3.0625 2.792969-3.28125 7.535157-.488281 10.597657 1.480469 1.621093 3.507812 2.445312 5.542969 2.445312 1.804687 0 3.613281-.648437 5.050781-1.957031l3.660156-3.335938c3.058594-2.792968 3.277344-7.535156.484375-10.59375zm0 0"/><path d="m372.855469 387.992188c-.03125-4.121094-3.386719-7.441407-7.5-7.441407-.019531 0-.039063 0-.058594 0-4.144531.035157-7.472656 3.417969-7.441406 7.5625l.039062 4.925781c.03125 4.125 3.386719 7.441407 7.5 7.441407h.058594c4.144531-.03125 7.472656-3.417969 7.441406-7.558594zm0 0"/><path d="m346.753906 392.925781c-3.058594-2.792969-7.800781-2.574219-10.59375.488281-2.792968 3.058594-2.574218 7.800782.488282 10.59375l3.65625 3.335938c1.4375 1.3125 3.246093 1.957031 5.050781 1.957031 2.035156 0 4.0625-.824219 5.542969-2.445312 2.792968-3.0625 2.574218-7.804688-.484376-10.597657zm0 0"/><path d="m423.851562 328.71875c1.453126 2.105469 3.796876 3.238281 6.179688 3.238281 1.46875 0 2.949219-.429687 4.25-1.324219 3.410156-2.355468 4.269531-7.023437 1.914062-10.433593l-2.796874-4.058594c-2.351563-3.410156-7.023438-4.265625-10.433594-1.914063-3.410156 2.351563-4.265625 7.023438-1.914063 10.433594zm0 0"/><path d="m412.421875 349.71875 4.898437.710938c.363282.050781.726563.078124 1.082032.078124 3.667968 0 6.875-2.695312 7.414062-6.433593.589844-4.097657-2.253906-7.902344-6.351562-8.492188l-4.898438-.707031c-4.09375-.589844-7.902344 2.25-8.496094 6.351562-.589843 4.097657 2.253907 7.902344 6.351563 8.492188zm0 0"/><path d="m198.125 328.71875 2.796875-4.058594c2.355469-3.410156 1.496094-8.082031-1.914063-10.433594-3.40625-2.351562-8.078124-1.496093-10.429687 1.914063l-2.800781 4.058594c-2.351563 3.410156-1.496094 8.078125 1.914062 10.433593 1.300782.894532 2.785156 1.324219 4.253906 1.324219 2.378907 0 4.722657-1.132812 6.179688-3.238281zm0 0"/><path d="m215.902344 341.226562c-.59375-4.101562-4.394532-6.949218-8.496094-6.351562l-4.898438.707031c-4.097656.589844-6.941406 4.394531-6.351562 8.492188.539062 3.738281 3.746094 6.429687 7.414062 6.429687.355469 0 .71875-.023437 1.082032-.078125l4.898437-.707031c4.097657-.589844 6.941407-4.394531 6.351563-8.492188zm0 0"/></svg>