<?xml version="1.0" encoding="iso-8859-1"?>
<!-- Generator: Adobe Illustrator 19.0.0, SVG Export Plug-In . SVG Version: 6.00 Build 0)  -->
<svg version="1.1" id="Capa_1" xmlns="http://www.w3.org/2000/svg" xmlns:xlink="http://www.w3.org/1999/xlink" x="0px" y="0px"
	 viewBox="0 0 511.997 511.997" style="enable-background:new 0 0 511.997 511.997;" xml:space="preserve">
<path style="fill:#3BBC56;" d="M284.823,101.52c-1.694-14.408-13.195-78.017-85.047-93.886c-3.417-0.755-6.674,1.801-6.732,5.3
	c-0.362,21.745,5.315,90.197,90.865,91.483C284.208,103.445,284.514,102.481,284.823,101.52z"/>
<path style="fill:#30AA44;" d="M213.045,12.935c0.009-0.537,0.101-1.047,0.25-1.531c-4.252-1.446-8.749-2.715-13.519-3.769
	c-3.417-0.755-6.674,1.801-6.732,5.3c-0.362,21.745,5.315,90.197,90.865,91.483c0.167-0.545,0.34-1.081,0.511-1.62
	C217.478,92.197,212.713,32.894,213.045,12.935z"/>
<path style="fill:#93603E;" d="M362.892,35.383l-19.113-19.85c-4.365-4.533-11.748-4.076-15.51,0.968
	c-12.637,16.945-39.035,57.804-50.579,109.251c4.438-0.127,8.712,0.596,12.771,2.1c13.315-26.984,36.178-60.475,70.997-81.461
	C365.36,44.04,366.052,38.665,362.892,35.383z"/>
<path style="fill:#7F573C;" d="M342.269,24.3c1.588-2.129,3.822-3.43,6.2-3.895l-4.691-4.872c-4.365-4.533-11.748-4.076-15.51,0.969
	c-12.637,16.945-39.035,57.804-50.579,109.251c4.438-0.126,8.712,0.596,12.771,2.1c1.64-3.324,3.427-6.747,5.362-10.234
	C308.669,73.744,330.968,39.454,342.269,24.3z"/>
<path style="fill:#F2D422;" d="M393.06,333.478c10.844-76.01-21.457-146.038-75.257-174.143c-2.561-1.338-4.251-3.839-4.668-6.698
	c-4.767-32.694-49.25-39.747-63.809-9.956c-1.52,3.111-4.342,5.419-7.732,6.13c-59.078,12.388-109.168,70.362-119.951,145.947
	c-10.752,75.365,20.913,144.85,73.893,173.418c3.339,1.8,5.559,5.082,6.263,8.811c6.002,31.762,49.179,37.698,63.51,8.705
	c1.577-3.19,4.465-5.562,7.947-6.297C332.271,466.94,382.286,408.999,393.06,333.478z"/>
<path style="fill:#E2C01A;" d="M222.082,477.379c-0.713-3.666-2.941-6.896-6.283-8.675c-53.032-28.21-84.855-96.584-74.29-170.636
	c10.595-74.266,60.526-131.129,119.554-143.161c3.386-0.69,6.201-2.952,7.715-6.006c6.48-13.088,18.968-18.903,31.224-18.46
	c-15.63-11.412-40.483-8.616-50.674,12.239c-1.52,3.111-4.342,5.419-7.732,6.13c-59.078,12.387-109.168,70.362-119.951,145.947
	c-10.752,75.365,20.913,144.85,73.893,173.418c3.339,1.8,5.559,5.082,6.263,8.811c4.12,21.806,25.764,31.437,43.565,25.95
	C234.234,499.608,224.704,490.854,222.082,477.379z"/>
<path d="M189.306,474.004c2.096,1.165,3.587,3.163,4.092,5.48c8.06,37.046,58.258,44.789,76.65,10.936
	c1.133-2.085,3.123-3.586,5.462-4.119c30.113-6.859,58.857-25.416,80.936-52.25c22.624-27.497,37.418-61.908,42.784-99.519
	c0.132-0.932,0.254-1.863,0.374-2.793c0.53-4.108-2.369-7.869-6.478-8.4c-4.103-0.532-7.869,2.369-8.4,6.477
	c-0.112,0.868-0.225,1.736-0.348,2.602c-10.028,70.291-55.118,126.254-112.199,139.257c-6.54,1.489-12.121,5.71-15.312,11.583
	c-11.566,21.288-43.64,16.803-48.812-6.963c-1.42-6.529-5.598-12.144-11.46-15.402c-51.169-28.446-78.812-94.785-68.785-165.076
	s55.118-126.254,112.199-139.256c6.54-1.49,12.121-5.711,15.312-11.584c11.648-21.441,43.646-16.777,48.812,6.963
	c1.421,6.529,5.598,12.144,11.46,15.402c41.189,22.898,68.251,72.231,70.627,128.749c0.173,4.139,3.652,7.359,7.81,7.178
	c4.138-0.174,7.352-3.67,7.178-7.809c-2.594-61.698-32.606-115.814-78.324-141.229c-2.096-1.165-3.587-3.163-4.092-5.48
	c-2.401-11.036-9.229-20.394-18.458-26.197c16.341-30.632,37.754-54.076,63.741-69.739c8.023-4.836,9.467-15.882,2.966-22.635
	c0,0,0,0-0.001,0l-19.113-19.85c-3.613-3.752-8.675-5.716-13.862-5.39c-5.191,0.327-9.953,2.906-13.063,7.077
	c-9.408,12.614-23.888,34.507-35.921,63.337c-2.507-7.259-6.004-15.305-10.891-23.411c-2.138-3.548-6.748-4.688-10.296-2.551
	c-3.548,2.139-4.689,6.748-2.551,10.296c8.59,14.249,12.308,28.269,13.895,36.922c-23.543-1.596-41.919-9.069-54.7-22.261
	c-18.495-19.091-21.154-45.943-21.26-58.842c15.776,3.808,29.514,10.406,40.861,19.631c3.216,2.614,7.939,2.125,10.552-1.088
	c2.613-3.213,2.126-7.939-1.088-10.551C235.86,12.329,219.217,4.526,200.139,0.313c-8.044-1.779-15.712,4.253-15.85,12.5
	c-0.225,13.503,1.807,47.547,25.476,71.978c15.168,15.656,36.334,24.59,62.981,26.662c-0.479,1.791-0.947,3.595-1.395,5.42
	c-12.193,2.151-23.114,9.729-29.208,20.945c-1.133,2.085-3.123,3.586-5.462,4.119c-30.113,6.859-58.857,25.416-80.936,52.25
	c-22.623,27.497-37.418,61.908-42.783,99.515s-0.783,74.782,13.249,107.507C139.904,433.143,162.312,458.997,189.306,474.004z
	 M333.026,20.984c0.646-0.866,1.518-1.044,1.979-1.074c0.791-0.045,1.538,0.226,2.114,0.824l18.772,19.497
	c-28.048,17.022-51.102,42.2-68.618,74.917C296.413,81.064,312.996,47.84,333.026,20.984z"/>
<path d="M325.628,342.277c0.329-0.376,0.614-0.778,0.856-1.204c0.242-0.427,0.441-0.877,0.596-1.353
	c0.122-0.359,0.214-0.742,0.28-1.125c0.121-0.703,0.132-1.425,0.045-2.133c-0.045-0.369-0.114-0.733-0.216-1.084
	c-0.518-1.904-1.81-3.557-3.523-4.53c-1.713-0.973-3.795-1.235-5.695-0.704c-0.354,0.092-0.702,0.22-1.042,0.37
	c-0.659,0.291-1.278,0.675-1.824,1.145c-0.289,0.249-0.566,0.52-0.807,0.804c-0.329,0.377-0.615,0.778-0.857,1.204
	c-0.242,0.426-0.44,0.877-0.595,1.352c-0.12,0.352-0.211,0.727-0.276,1.103c-0.124,0.71-0.137,1.44-0.049,2.156
	c0.045,0.369,0.114,0.734,0.217,1.085c0.518,1.904,1.809,3.558,3.522,4.53c1.713,0.973,3.795,1.235,5.695,0.704
	c0.354-0.092,0.702-0.219,1.042-0.37c0.654-0.289,1.268-0.668,1.811-1.133C325.101,342.84,325.383,342.565,325.628,342.277z"/>
<path d="M300.328,369.922c-1.713-0.973-3.795-1.235-5.695-0.704c-0.354,0.092-0.703,0.22-1.042,0.37
	c-0.659,0.291-1.278,0.675-1.824,1.145c-0.29,0.249-0.566,0.52-0.807,0.803c-0.329,0.377-0.615,0.778-0.857,1.204
	c-0.242,0.426-0.44,0.877-0.595,1.352c-0.12,0.352-0.211,0.727-0.276,1.102c-0.124,0.71-0.137,1.44-0.049,2.156
	c0.045,0.369,0.114,0.733,0.217,1.085c0.518,1.904,1.809,3.558,3.522,4.53c1.713,0.973,3.795,1.235,5.696,0.704
	c0.354-0.092,0.702-0.219,1.042-0.37c0.654-0.289,1.268-0.668,1.811-1.133c0.294-0.252,0.575-0.527,0.821-0.815
	c0.329-0.376,0.614-0.778,0.856-1.204s0.441-0.877,0.596-1.353c0.122-0.359,0.214-0.742,0.28-1.125
	c0.121-0.703,0.132-1.425,0.045-2.133c-0.045-0.369-0.114-0.733-0.216-1.084C303.333,372.548,302.041,370.895,300.328,369.922z"/>
<path d="M278.293,409.738c-1.713-0.973-3.795-1.235-5.695-0.704c-0.354,0.092-0.702,0.22-1.042,0.37
	c-0.659,0.291-1.278,0.675-1.824,1.145c-0.29,0.249-0.566,0.52-0.807,0.804c-0.329,0.377-0.615,0.778-0.857,1.204
	c-0.242,0.426-0.44,0.877-0.595,1.352c-0.12,0.352-0.211,0.727-0.276,1.103c-0.124,0.71-0.137,1.44-0.049,2.156
	c0.045,0.369,0.114,0.734,0.217,1.085c0.518,1.904,1.809,3.558,3.522,4.53c1.713,0.973,3.795,1.235,5.695,0.704
	c0.354-0.092,0.702-0.22,1.042-0.37c0.654-0.289,1.268-0.668,1.811-1.134c0.294-0.252,0.575-0.527,0.821-0.815
	c0.329-0.376,0.614-0.778,0.856-1.204s0.441-0.877,0.596-1.353c0.122-0.359,0.214-0.743,0.28-1.125
	c0.121-0.704,0.132-1.425,0.045-2.133c-0.045-0.369-0.114-0.733-0.216-1.084C281.298,412.364,280.006,410.711,278.293,409.738z"/>
<path d="M340.193,366.735c-1.756-0.892-3.848-1.057-5.721-0.438c-0.349,0.109-0.691,0.252-1.024,0.418
	c-0.645,0.321-1.245,0.734-1.769,1.229c-0.278,0.262-0.541,0.546-0.769,0.84c-0.311,0.392-0.578,0.806-0.8,1.243
	c-0.222,0.437-0.399,0.896-0.531,1.379c-0.103,0.357-0.177,0.736-0.225,1.114c-0.091,0.715-0.07,1.445,0.051,2.156
	c0.063,0.366,0.148,0.728,0.267,1.073c0.606,1.877,1.973,3.469,3.729,4.361c1.757,0.892,3.849,1.057,5.722,0.438
	c0.349-0.108,0.691-0.252,1.023-0.418c0.64-0.319,1.236-0.727,1.756-1.216c0.282-0.266,0.55-0.553,0.782-0.853
	c0.311-0.391,0.577-0.806,0.799-1.243c0.222-0.437,0.399-0.896,0.532-1.379c0.105-0.365,0.18-0.752,0.227-1.137
	c0.088-0.708,0.066-1.429-0.054-2.133c-0.063-0.366-0.148-0.727-0.266-1.073C343.318,369.218,341.95,367.627,340.193,366.735z"/>
<path d="M320.038,407.534c-1.756-0.892-3.848-1.057-5.721-0.438c-0.349,0.109-0.691,0.252-1.024,0.418
	c-0.645,0.321-1.245,0.734-1.769,1.229c-0.277,0.262-0.541,0.546-0.769,0.84c-0.311,0.392-0.578,0.806-0.8,1.243
	c-0.222,0.437-0.399,0.896-0.531,1.379c-0.103,0.357-0.177,0.736-0.224,1.114c-0.091,0.715-0.07,1.445,0.051,2.156
	c0.062,0.366,0.148,0.728,0.267,1.073c0.606,1.877,1.973,3.469,3.729,4.361c1.757,0.892,3.849,1.057,5.722,0.438
	c0.349-0.108,0.691-0.252,1.023-0.418c0.64-0.319,1.236-0.727,1.756-1.217c0.282-0.266,0.55-0.553,0.782-0.853
	c0.311-0.391,0.577-0.806,0.799-1.243c0.222-0.437,0.399-0.896,0.532-1.379c0.105-0.365,0.179-0.752,0.227-1.137
	c0.088-0.708,0.066-1.429-0.054-2.133c-0.063-0.366-0.148-0.727-0.267-1.073C323.163,410.018,321.795,408.426,320.038,407.534z"/>
<g>
</g>
<g>
</g>
<g>
</g>
<g>
</g>
<g>
</g>
<g>
</g>
<g>
</g>
<g>
</g>
<g>
</g>
<g>
</g>
<g>
</g>
<g>
</g>
<g>
</g>
<g>
</g>
<g>
</g>
</svg>
