<svg id="Layer_1" enable-background="new 0 0 511.991 511.991" height="512" viewBox="0 0 511.991 511.991" width="512" xmlns="http://www.w3.org/2000/svg"><ellipse cx="187.671" cy="299.563" fill="#ffb750" rx="176.708" ry="154.685"/><path d="m47.585 317.462c0-5.949-6.476-25.9-3.708-41.952 2.106-12.214 16.963-17.455 20.813-24.525 28.403-52.162 89.194-88.209 159.603-88.209 23.758 0 46.415 4.115 67.108 11.558-29.132-18.523-64.97-29.456-103.73-29.456-97.593 0-176.708 69.254-176.708 154.685 0 64.633 45.29 119.997 109.599 143.128-44.218-28.115-72.977-73.729-72.977-125.229z" fill="#ffe070"/><ellipse cx="266.778" cy="337.422" fill="#ffb750" rx="158.32" ry="148.955"/><path d="m141.269 354.657c0-82.266 70.882-148.956 158.32-148.956 21.286 0 41.585 3.962 60.125 11.13-26.101-17.837-58.21-28.365-92.937-28.365-87.438 0-158.32 66.689-158.32 148.955 0 62.238 40.577 115.552 98.195 137.827-39.616-27.074-65.383-70.998-65.383-120.591z" fill="#ffe070"/><path d="m327.609 199.866c35.831 24.39 63.072 50.142 65.951 101.23 1.348 23.926-7.751 11.12-7.971 26.207-.151 10.282 6.536 13.641 4.427 23.337-14.763 67.876-78.596 118.936-155.104 118.936-21.556 0-42.102-4.06-60.831-11.4 26.058 17.738 58.077 28.201 92.698 28.201 87.438 0 158.32-66.69 158.32-148.955 0-61.986-40.246-115.121-97.49-137.556z" fill="#ea8e50"/><path d="m84.065 63.356c-4.491 2.661-5.798 8.189-2.975 12.577 7.837 12.183 25.741 35.162 52.452 41.47 28.443 6.717 44.476-8.732 50.319-16.145 3.229-4.096 4.501-9.461 3.447-14.575-1.904-9.242-9.319-30.229-37.762-36.946-26.712-6.307-53.015 6.232-65.481 13.619z" fill="#69da61"/><path d="m155.882 100.104c-26.711-6.308-44.615-29.288-52.452-41.47-.822-1.278-1.284-2.653-1.429-4.026-7.323 2.85-13.507 6.123-17.937 8.749-4.491 2.661-5.798 8.189-2.975 12.577 7.837 12.183 25.741 35.162 52.452 41.47 28.443 6.717 44.476-8.732 50.319-16.145.547-.694 1.016-1.434 1.448-2.191-7.731 2.761-17.48 3.857-29.426 1.036z" fill="#5ab161"/><path d="m170.026 78.526c13.174 17.068 52.86 51.347 126.321-20.869 4.272-4.2 4.279-11.006-.035-14.688-21.544-18.382-84.328-61.167-127.355 19.968-2.714 5.117-2.297 11.229 1.069 15.589z" fill="#a8ffa9"/><path d="m190.363 33.394c10.441 22.137 35.739 33.973 59.942 26.826 14.774-4.363 26.038-14.892 31.839-27.946-22.76-15.107-59.593-29.91-91.781 1.12z" fill="#c9ffd2"/><path d="m368.022 389.713c-42.05 6.982-82.228-2.857-111.454-27.268-11.419-9.538-27.663-.479-26.902 14.841.295 5.94.935 11.935 1.935 17.959 13.158 79.254 81.216 118.816 155.032 106.56s125.438-71.687 112.279-150.941c-1-6.024-2.332-11.904-3.972-17.621-4.23-14.744-22.53-18.068-30.254-5.352-19.771 32.547-54.613 54.841-96.664 61.822z" fill="#ffe070"/><path d="m494.939 333.244c-1.967-6.858-6.98-11.241-12.555-12.692 13.727 79.007-31.964 138.931-100.879 150.373-69.128 11.477-131.552-30.709-144.059-109.706-4.807 3.175-8.134 8.943-7.78 16.069.295 5.94.935 11.935 1.935 17.959 13.158 79.254 81.216 118.816 155.032 106.56s125.437-71.687 112.279-150.941c-1-6.026-2.333-11.905-3.973-17.622z" fill="#ffce66"/><path d="m451.208 345.986c-20.394 22.679-49.469 38.129-83.186 43.727s-66.224.372-92.853-14.5c22.815 42.512 60.829 63.317 99.882 56.833 39.052-6.483 68.304-38.456 76.157-86.06z" fill="#fff2b9"/><path d="m323.256 90.232c-5.217.19-9.008 4.419-8.627 9.624 1.058 14.447 5.793 43.19 26.236 61.503 21.768 19.501 43.237 13.599 51.913 9.883 4.795-2.054 8.477-6.157 9.997-11.152 2.747-9.027 6.27-31.005-15.498-50.506-20.443-18.314-49.54-19.879-64.021-19.352z" fill="#69da61"/><path d="m392.778 140.386c-8.676 3.716-30.145 9.618-51.913-9.883-12.221-10.948-18.826-25.622-22.39-38.743-2.552 1.712-4.095 4.691-3.846 8.095 1.058 14.447 5.793 43.19 26.236 61.503 21.768 19.5 43.237 13.599 51.913 9.883 4.795-2.054 8.477-6.157 9.997-11.152 1.757-5.774 3.821-16.851-.61-29.186-1.851 4.424-5.309 7.736-9.387 9.483z" fill="#5ab161"/><ellipse cx="60.092" cy="284.52" fill="#ffe070" rx="9.265" ry="6.949" transform="matrix(.236 -.972 .972 .236 -230.572 275.736)"/><ellipse cx="383.162" cy="304.399" fill="#ea8e50" rx="5.253" ry="6.73"/><ellipse cx="377.067" cy="350.074" fill="#ea8e50" rx="7.831" ry="6.095" transform="matrix(.336 -.942 .942 .336 -79.358 587.578)"/><ellipse cx="62.45" cy="334.73" fill="#ffe070" rx="4.614" ry="5.721"/><g fill="#231f20"><path d="m198.521 241.414c-33.906 21.553-54.148 57.443-54.148 96.007 0 4.418 3.582 8 8 8s8-3.582 8-8c0-33.061 17.47-63.903 46.731-82.503 3.729-2.371 4.83-7.314 2.46-11.044-2.369-3.726-7.313-4.83-11.043-2.46z"/><path d="m502.629 331.037c-6.199-21.609-33.51-25.851-44.782-7.299-6.705 11.038-15.371 20.853-25.573 29.201 6.356-60.883-24.865-116.966-76.28-147.926 1.371-6.53 5.719-14.199 12.622-22.223 16.402 1.698 36.685-3.527 41.811-20.371.952-3.129 2.031-7.777 2.323-13.372 5.102-2.618 10.164-4.855 15.096-6.66 4.149-1.518 6.282-6.112 4.764-10.262-1.518-4.149-6.113-6.28-10.262-4.764-3.751 1.372-7.558 2.965-11.388 4.75-7.178-26.349-37.202-51.697-87.995-49.875-9.751.358-17.027 8.468-16.314 18.203 2.324 31.751 16.012 64.376 45.188 77.729-4.832 6.515-8.299 12.925-10.295 19.077-5.551-2.647-11.278-5.013-17.163-7.069-33.249-32.215-79.812-51.333-129.024-53.144-.454-7.062-1.567-18.406-4.283-32.083l.009-.014c39.012 16.501 80.688-11.9 110.873-41.573 7.623-7.494 7.429-19.754-.452-26.479-45.686-38.98-96.339-42.973-131.014 7.974-8.549-16.45-19.039-30.756-31.28-42.605-3.174-3.073-8.24-2.991-11.312.184-3.073 3.175-2.991 8.239.184 11.313 8.328 8.062 15.774 17.432 22.267 27.981-28.799-6.342-56.387 6.462-70.364 14.744-8.392 4.976-10.904 15.578-5.623 23.788 31.609 49.134 76.448 55.381 102.797 37.887 1.196 7.729 1.825 14.242 2.152 18.902-97.982 3.864-176.348 75.275-176.348 162.512 0 82 69.045 150.972 161.005 161.336 33.735 25.051 77.832 37.689 123.829 32.2 61.113 35.586 150.063 19.544 193.901-36.723 28.508-36.59 33.28-82.283 20.931-125.339zm-180.022-231.765c-.049-.669.243-1.022.939-1.045 32.663-1.207 50.604 10.338 58.392 17.315 17.797 15.943 15.898 33.294 13.182 42.218-.831 2.737-2.859 4.999-5.493 6.128-8.578 3.675-25.626 7.456-43.425-8.488-7.787-6.977-21.209-23.546-23.595-56.128zm-60.219-68.966c12.149 5.601 22.33 13.287 28.73 18.749.772.657.431 2.101-.38 2.897-27.254 26.791-66.71 55.025-99.369 35.239-7.022-4.226-12.038-9.703-15.011-13.553-2.509-3.25-.209-7.278-.322-6.976 20.024-37.771 47.999-54.035 86.352-36.356zm-127.007 79.312c-10.176-2.403-29.887-10.537-47.563-38.012-.368-.572-.267-1.018.325-1.367 21.887-12.97 50.221-20.184 72.353-7.871-2.567 7.282-1.241 15.315 3.197 21.047 3.996 5.161 8.735 9.823 13.458 13.426-5.986 7.334-19.071 18.137-41.77 12.777zm-2.574 291.796c-2.079-3.821-6.939-5.331-10.852-3.201-3.395 1.849-4.917 5.8-3.828 9.358.905 2.961 10.533 19.261 23.291 33.098-71.397-17.586-122.455-74.628-122.455-141.106 0-82.46 77.493-146.685 168.724-146.686 36.447 0 71.6 10.287 100.429 28.87-117.242-14.097-209.799 87.147-183.084 192.382 1.087 4.282 5.439 6.876 9.722 5.785 4.283-1.087 6.873-5.439 5.786-9.723-22.585-88.973 49.755-173.726 146.238-173.726 92.699 0 166.46 79.66 147.371 168.853-45.501 25.694-109.949 26.486-152.453-9.013-9.83-8.212-23.306-7.437-32.184 1.016-11.62 11.062-8.117 28.785-4.589 45.713 6.349 30.698 20.828 56.361 42.404 75.341-58.791.21-109.519-31.037-134.52-76.961zm336.27 45.129c-39.312 50.457-120.987 64.737-175.365 31.472-35.523-21.743-53.979-59.361-56.055-101.126-.427-8.599 7.874-13.237 13.783-8.304 64.271 53.68 175.935 36.138 220.083-36.54 4.172-6.865 13.468-4.471 15.727 3.404 10.942 38.145 7.036 78.737-18.173 111.094z"/><path d="m381.859 424.209c-.723-4.358-4.846-7.313-9.202-6.581-4.359.724-7.306 4.843-6.582 9.202l2.5 15.063c.732 4.41 4.902 7.301 9.202 6.581 4.359-.724 7.306-4.843 6.582-9.202z"/><path d="m329.945 417.717c-4.165-1.477-8.737.705-10.211 4.87l-5.669 16.01c-1.475 4.165.706 8.737 4.871 10.212 4.173 1.477 8.739-.714 10.211-4.87l5.669-16.01c1.475-4.165-.706-8.737-4.871-10.212z"/><path d="m424.343 405.22c-2.742-3.466-7.772-4.05-11.238-1.31-3.464 2.741-4.051 7.772-1.309 11.237l10.539 13.318c1.579 1.996 3.917 3.036 6.279 3.036 6.603 0 10.444-7.687 6.268-12.964z"/></g></svg>