<?xml version="1.0" encoding="iso-8859-1"?>
<!-- Generator: Adobe Illustrator 18.0.0, SVG Export Plug-In . SVG Version: 6.00 Build 0)  -->
<!DOCTYPE svg PUBLIC "-//W3C//DTD SVG 1.1//EN" "http://www.w3.org/Graphics/SVG/1.1/DTD/svg11.dtd">
<svg version="1.1" id="Capa_1" xmlns="http://www.w3.org/2000/svg" xmlns:xlink="http://www.w3.org/1999/xlink" x="0px" y="0px"
	 viewBox="0 0 361.416 361.416" style="enable-background:new 0 0 361.416 361.416;" xml:space="preserve">
<g>
	<g>
		<path style="fill:#EF8829;" d="M207.978,133.396c0.759-0.324,1.563-0.621,2.405-0.888
			C209.54,132.776,208.738,133.072,207.978,133.396z"/>
		<path style="fill:#EF8829;" d="M201.54,137.269c0.464-0.376,0.975-0.758,1.518-1.14
			C202.513,136.511,202.005,136.892,201.54,137.269z"/>
		<path style="fill:#EF8829;" d="M210.908,132.353c0.9-0.265,1.831-0.506,2.823-0.686
			C212.738,131.848,211.808,132.088,210.908,132.353z"/>
		<path style="fill:#EF8829;" d="M200.098,138.525c0.353-0.33,0.748-0.677,1.172-1.031
			C200.845,137.848,200.451,138.194,200.098,138.525z"/>
		<path style="fill:#EF8829;" d="M213.73,131.668c1.091,1.582,1.876,2.798,2.48,3.828
			C215.53,134.226,214.724,132.942,213.73,131.668z"/>
		<path style="fill:#EF8829;" d="M244.686,146.127c0.668,0.477,1.333,0.96,1.99,1.452
			C246.019,147.087,245.355,146.604,244.686,146.127z"/>
		<path style="fill:#EF8829;" d="M250.133,150.286c0.609,0.495,1.229,0.977,1.827,1.485
			C251.362,151.264,250.743,150.781,250.133,150.286z"/>
		<path style="fill:#EF8829;" d="M205.498,134.604c0.634-0.351,1.316-0.686,2.027-1.005
			C206.813,133.919,206.133,134.253,205.498,134.604z"/>
		<path style="fill:#EF8829;" d="M239.134,142.393c0.605,0.379,1.195,0.779,1.792,1.169
			C240.328,143.172,239.739,142.772,239.134,142.393z"/>
		<path style="fill:#EF8829;" d="M261.269,160.645c0.674,0.721,1.327,1.462,1.982,2.201
			C262.595,162.106,261.944,161.366,261.269,160.645z"/>
		<path style="fill:#EF8829;" d="M265.616,165.595c0.656,0.79,1.306,1.584,1.94,2.392
			C266.922,167.179,266.272,166.386,265.616,165.595z"/>
		<path style="fill:#EF8829;" d="M203.453,135.86c0.581-0.392,1.193-0.783,1.86-1.158
			C204.645,135.077,204.034,135.467,203.453,135.86z"/>
		<path style="fill:#EF8829;" d="M258.176,157.491c-0.503-0.497-0.986-1.013-1.499-1.5
			C257.19,156.478,257.673,156.994,258.176,157.491z"/>
		<path style="fill:#EF8829;" d="M183.72,137.16c0.004-0.414,0.042-0.829,0.114-1.241
			C183.762,136.332,183.724,136.746,183.72,137.16z"/>
		<path style="fill:#EF8829;" d="M199.957,138.654c-0.387,0.367-0.718,0.705-1.015,1.022
			C199.237,139.361,199.573,139.019,199.957,138.654z"/>
		<path style="fill:#EF8829;" d="M184.34,134.253c0.178-0.412,0.38-0.817,0.637-1.203
			C184.72,133.437,184.518,133.842,184.34,134.253z"/>
		<path style="fill:#EF8829;" d="M183.912,135.59c0.074-0.329,0.169-0.654,0.288-0.975
			C184.081,134.936,183.985,135.26,183.912,135.59z"/>
		<path style="fill:#EF8829;" d="M70.947,247.67c-0.137-1.293-0.228-2.599-0.319-3.905C70.72,245.071,70.81,246.377,70.947,247.67z"
			/>
		<path style="fill:#EF8829;" d="M91.054,300.267c-0.767-1.066-1.526-2.137-2.255-3.23
			C89.528,298.131,90.288,299.201,91.054,300.267z"/>
		<path style="fill:#EF8829;" d="M106.888,317.977c-1.316-1.186-2.603-2.402-3.86-3.649
			C104.285,315.575,105.572,316.792,106.888,317.977z"/>
		<path style="fill:#EF8829;" d="M94.788,305.18c-0.964-1.194-1.911-2.402-2.825-3.636C92.877,302.779,93.824,303.986,94.788,305.18
			z"/>
		<path style="fill:#EF8829;" d="M84.821,290.568c-0.57-0.997-1.133-1.999-1.672-3.016C83.688,288.569,84.251,289.57,84.821,290.568
			z"/>
		<path style="fill:#EF8829;" d="M87.779,295.447c-0.653-1.016-1.3-2.037-1.92-3.076C86.479,293.41,87.126,294.43,87.779,295.447z"
			/>
		<path style="fill:#EF8829;" d="M184.181,139.81c-0.105-0.291-0.196-0.586-0.264-0.887
			C183.986,139.224,184.076,139.519,184.181,139.81z"/>
		<path style="fill:#EF8829;" d="M268.09,168.698c-6.472-5.784-23.465-19.208-33.665-22.017c-0.215-2.987-0.184-2.999-0.456-4.495
			c0.795,5.44,0.314,9.29,0.264,9.631c-0.531,3.756-3.751,6.468-7.437,6.468c-0.35,0-0.705-0.025-1.063-0.076
			c-4.091-0.579-6.947-4.351-6.4-8.44c0.04-0.34,0.436-4.156-0.991-9.074c0.145,0.573,0.292,1.179,0.473,1.9
			c-1.477-0.74-9.025-3.008-20.739-1.943c0.192-0.232,0.443-0.518,0.726-0.825c-0.821,0.892-1.276,1.521-1.342,1.615
			c-1.444,2.169-3.811,3.334-6.228,3.334c-1.438,0-2.891-0.412-4.182-1.27c-1.207-0.804-2.084-1.91-2.642-3.143
			c0.103,0.226,0.203,0.454,0.329,0.67c-23.67,2.104-45.217,11.703-62.237,26.412c-0.348,0.244-0.679,0.511-0.982,0.812
			c1.403-1.394,3.338-2.196,5.314-2.196c1.985,0,3.921,0.802,5.324,2.196c1.395,1.403,2.206,3.339,2.206,5.315
			c0,1.985-0.812,3.921-2.206,5.324c-1.404,1.394-3.339,2.196-5.324,2.196c-1.976,0-3.911-0.802-5.314-2.196
			c-1.404-1.404-2.206-3.339-2.206-5.324c0-1.975,0.802-3.911,2.206-5.315c-0.089,0.089-0.168,0.186-0.252,0.279
			c-22.724,20.233-37.063,49.691-37.063,82.438c0,25.223,8.51,48.492,22.801,67.102c19.558,17.579,45.4,28.297,73.704,28.297
			c60.867,0,110.385-49.519,110.385-110.386C291.092,210.668,282.482,187.343,268.09,168.698z M92.376,241.962
			c-1.394-1.404-2.196-3.339-2.196-5.315c0-1.985,0.802-3.92,2.196-5.324c1.404-1.394,3.339-2.206,5.314-2.206
			c1.986,0,3.921,0.813,5.325,2.206c1.403,1.404,2.206,3.339,2.206,5.324c0,1.976-0.803,3.911-2.206,5.315
			c-1.404,1.394-3.339,2.205-5.325,2.205C95.716,244.167,93.781,243.356,92.376,241.962z M111.62,278.633
			c-1.395,1.404-3.339,2.206-5.315,2.206c-1.975,0-3.92-0.802-5.314-2.206c-1.404-1.393-2.206-3.339-2.206-5.315
			c0-1.985,0.803-3.921,2.206-5.314c1.394-1.404,3.339-2.206,5.314-2.206c1.976,0,3.921,0.802,5.315,2.206
			c1.403,1.393,2.205,3.329,2.205,5.314C113.825,275.293,113.023,277.239,111.62,278.633z M111.62,205.12
			c-1.395,1.393-3.329,2.196-5.315,2.196c-1.985,0-3.92-0.802-5.314-2.196c-1.404-1.404-2.206-3.339-2.206-5.325
			c0-1.975,0.803-3.91,2.206-5.314c1.394-1.403,3.339-2.206,5.314-2.206c1.976,0,3.911,0.803,5.315,2.206
			c1.403,1.404,2.205,3.339,2.205,5.314C113.825,201.781,113.023,203.716,111.62,205.12z M132.156,303.722
			c-1.404,1.393-3.339,2.196-5.324,2.196c-1.976,0-3.911-0.802-5.314-2.196c-1.404-1.404-2.206-3.349-2.206-5.325
			c0-1.975,0.802-3.92,2.206-5.314c1.403-1.404,3.338-2.206,5.314-2.206c1.985,0,3.921,0.803,5.324,2.206
			c1.395,1.394,2.196,3.339,2.196,5.314C134.353,300.373,133.551,302.318,132.156,303.722z M138.775,260.764
			c-1.394,1.403-3.329,2.205-5.315,2.205c-1.975,0-3.92-0.802-5.314-2.205c-1.404-1.394-2.206-3.339-2.206-5.315
			c0-1.985,0.803-3.92,2.206-5.324c1.395-1.393,3.339-2.196,5.314-2.196c1.976,0,3.921,0.803,5.315,2.196
			c1.404,1.404,2.205,3.339,2.205,5.324C140.98,257.425,140.178,259.36,138.775,260.764z M138.775,221.846
			c-1.394,1.405-3.329,2.206-5.315,2.206c-1.975,0-3.92-0.802-5.314-2.206c-1.404-1.393-2.206-3.339-2.206-5.314
			c0-1.985,0.803-3.921,2.206-5.324c1.395-1.395,3.339-2.197,5.314-2.197c1.976,0,3.921,0.802,5.315,2.197
			c1.404,1.403,2.205,3.339,2.205,5.324C140.98,218.507,140.178,220.453,138.775,221.846z"/>
		<path style="fill:#EF8829;" d="M183.826,138.432c-0.046-0.286-0.074-0.575-0.086-0.866
			C183.753,137.857,183.78,138.145,183.826,138.432z"/>
		<path style="fill:#EF8829;" d="M72.757,259.017c-0.232-1.091-0.433-2.193-0.632-3.296
			C72.325,256.824,72.525,257.926,72.757,259.017z"/>
		<path style="fill:#EF8829;" d="M74.092,264.552c-0.283-1.056-0.54-2.123-0.792-3.192
			C73.552,262.429,73.809,263.495,74.092,264.552z"/>
		<path style="fill:#EF8829;" d="M71.708,253.39c-0.184-1.154-0.328-2.32-0.476-3.485C71.379,251.07,71.524,252.236,71.708,253.39z"
			/>
		<path style="fill:#EF8829;" d="M95.343,305.887c2.376,2.897,4.895,5.671,7.549,8.312
			C100.238,311.558,97.72,308.783,95.343,305.887z"/>
		<path style="fill:#EF8829;" d="M82.141,285.589c-0.502-0.993-0.994-1.993-1.467-3.003
			C81.147,283.597,81.639,284.595,82.141,285.589z"/>
		<path style="fill:#EF8829;" d="M70.483,241.87c-0.103-1.948-0.16-3.908-0.16-5.881C70.323,237.962,70.381,239.922,70.483,241.87z"
			/>
		<path style="fill:#EF8829;" d="M79.729,280.5c-0.442-0.999-0.871-2.006-1.284-3.02C78.858,278.494,79.287,279.5,79.729,280.5z"/>
		<path style="fill:#EF8829;" d="M77.582,275.296c-0.387-1.012-0.757-2.033-1.115-3.06
			C76.825,273.263,77.195,274.283,77.582,275.296z"/>
		<path style="fill:#EF8829;" d="M75.702,269.979c-0.335-1.031-0.648-2.072-0.953-3.117
			C75.054,267.906,75.367,268.947,75.702,269.979z"/>
	</g>
	<path style="fill:#3F2D20;" d="M133.46,209.011c-1.975,0-3.92,0.802-5.314,2.197c-1.403,1.403-2.206,3.339-2.206,5.324
		c0,1.975,0.803,3.921,2.206,5.315c1.395,1.404,3.339,2.206,5.314,2.206c1.986,0,3.921-0.802,5.315-2.206
		c1.403-1.393,2.205-3.339,2.205-5.315c0-1.985-0.802-3.921-2.205-5.324C137.381,209.813,135.436,209.011,133.46,209.011z"/>
	<path style="fill:#3F2D20;" d="M133.46,247.928c-1.975,0-3.92,0.803-5.314,2.196c-1.403,1.404-2.206,3.339-2.206,5.324
		c0,1.976,0.803,3.921,2.206,5.316c1.395,1.403,3.339,2.205,5.314,2.205c1.986,0,3.921-0.802,5.315-2.205
		c1.403-1.404,2.205-3.339,2.205-5.316c0-1.985-0.802-3.92-2.205-5.324C137.381,248.731,135.436,247.928,133.46,247.928z"/>
	<path style="fill:#3F2D20;" d="M126.832,290.876c-1.976,0-3.911,0.803-5.314,2.206c-1.404,1.394-2.206,3.339-2.206,5.314
		c0,1.976,0.802,3.921,2.206,5.325c1.403,1.393,3.338,2.196,5.314,2.196c1.985,0,3.921-0.802,5.324-2.196
		c1.395-1.404,2.197-3.349,2.197-5.325c0-1.975-0.802-3.92-2.197-5.314C130.753,291.68,128.817,290.876,126.832,290.876z"/>
	<path style="fill:#3F2D20;" d="M126.832,181.094c1.985,0,3.921-0.802,5.324-2.196c1.395-1.404,2.206-3.339,2.206-5.324
		c0-1.975-0.812-3.911-2.206-5.314c-1.403-1.395-3.339-2.197-5.324-2.197c-1.976,0-3.911,0.802-5.314,2.197
		c-1.404,1.403-2.206,3.339-2.206,5.314c0,1.985,0.802,3.921,2.206,5.324C122.921,180.292,124.856,181.094,126.832,181.094z"/>
	<path style="fill:#3F2D20;" d="M106.305,192.274c-1.975,0-3.92,0.803-5.315,2.206c-1.403,1.404-2.206,3.339-2.206,5.314
		c0,1.986,0.803,3.921,2.206,5.325c1.395,1.393,3.33,2.195,5.315,2.195c1.986,0,3.921-0.802,5.315-2.195
		c1.403-1.404,2.205-3.339,2.205-5.325c0-1.975-0.802-3.91-2.205-5.314C110.216,193.077,108.281,192.274,106.305,192.274z"/>
	<path style="fill:#3F2D20;" d="M105.222,236.647c0-1.985-0.803-3.92-2.206-5.324c-1.404-1.393-3.339-2.206-5.325-2.206
		c-1.975,0-3.91,0.813-5.314,2.206c-1.394,1.404-2.195,3.339-2.195,5.324c0,1.976,0.802,3.911,2.195,5.315
		c1.404,1.394,3.339,2.205,5.314,2.205c1.986,0,3.921-0.812,5.325-2.205C104.42,240.558,105.222,238.623,105.222,236.647z"/>
	<path style="fill:#3F2D20;" d="M106.305,265.798c-1.975,0-3.92,0.802-5.315,2.206c-1.403,1.393-2.206,3.329-2.206,5.315
		c0,1.975,0.803,3.921,2.206,5.314c1.395,1.404,3.339,2.206,5.315,2.206c1.976,0,3.921-0.802,5.315-2.206
		c1.403-1.393,2.205-3.339,2.205-5.314c0-1.985-0.802-3.921-2.205-5.315C110.226,266.599,108.281,265.798,106.305,265.798z"/>
	<path style="fill:#3F2D20;" d="M228.629,120.085c10.321-13.64,33.961-42.056,59.333-53.45c3.788-1.701,6.122-5.513,4.848-9.466
		c-1.275-3.954-5.515-6.124-9.466-4.848c-9.575,3.089-18.718,8.52-27.1,15.001c-2.926-11.675-9.211-28.626-22.486-41.902
		c-11.961-11.961-25.686-18.34-35.095-21.586c-13.578-4.684-22.445-5.078-26.358-1.17c0,0-0.991,0.85-1.676,2.556
		c-1.884,4.689-1.016,12.632,2.836,23.8c3.245,9.409,9.624,23.136,21.585,35.096c12.86,12.86,29.17,19.159,40.79,22.202
		c-10.408,11.331-18.267,22.417-22.378,28.593c-10.445-2.829-21.424-4.348-32.755-4.348c-69.16,0-125.425,56.265-125.425,125.426
		s56.266,125.427,125.425,125.427c69.162,0,125.426-56.266,125.426-125.427C306.134,183.792,274.082,138.947,228.629,120.085z
		 M223.122,36.055c11.31,11.31,16.516,26.467,18.833,36.257c-9.797-2.315-24.956-7.521-36.268-18.834
		c-12.95-12.949-18.553-29.142-20.345-37.77C193.967,17.498,210.168,23.101,223.122,36.055z M70.323,235.989
		c0-60.866,49.519-110.385,110.384-110.385c3.623,0,7.206,0.181,10.743,0.524c-4.142,3.497-6.283,6.638-6.473,6.922
		c-2.301,3.458-1.385,8.155,2.072,10.458c1.291,0.858,2.744,1.27,4.182,1.27c2.417,0,4.785-1.165,6.228-3.334
		c0.243-0.35,5.593-7.841,16.271-9.776c6.624,8.489,5.664,17.568,5.601,18.102c-0.546,4.089,2.309,7.862,6.401,8.44
		c0.358,0.051,0.713,0.076,1.064,0.076c3.686,0,6.906-2.713,7.436-6.468c0.059-0.406,0.748-5.719-0.838-12.807
		c34.345,18.733,57.698,55.18,57.698,96.979c0,60.867-49.518,110.386-110.385,110.386
		C119.842,346.374,70.323,296.856,70.323,235.989z"/>
	<path style="fill:#84BD93;" d="M241.955,72.312c-2.317-9.791-7.523-24.947-18.833-36.257
		c-12.954-12.955-29.155-18.557-37.78-20.347c1.792,8.628,7.395,24.821,20.345,37.77C216.999,64.792,232.158,69.998,241.955,72.312z
		"/>
</g>
<g>
</g>
<g>
</g>
<g>
</g>
<g>
</g>
<g>
</g>
<g>
</g>
<g>
</g>
<g>
</g>
<g>
</g>
<g>
</g>
<g>
</g>
<g>
</g>
<g>
</g>
<g>
</g>
<g>
</g>
</svg>
