<?xml version="1.0" encoding="iso-8859-1"?>
<!-- Generator: Adobe Illustrator 19.0.0, SVG Export Plug-In . SVG Version: 6.00 Build 0)  -->
<svg version="1.1" id="Capa_1" xmlns="http://www.w3.org/2000/svg" xmlns:xlink="http://www.w3.org/1999/xlink" x="0px" y="0px"
	 viewBox="0 0 512.003 512.003" style="enable-background:new 0 0 512.003 512.003;" xml:space="preserve">
<path style="fill:#C88C64;" d="M187.499,110.444c0-29.843,5.432-62.323,12.652-87.174c2.284-7.861,9.51-13.248,17.696-13.248h1.148
	c12.644,0,21.516,12.421,17.45,24.393c-0.065,0.191-0.13,0.383-0.194,0.577c-6.77,20.24-10.5,47.037-10.5,75.452H187.499z"/>
<path style="fill:#46C373;" d="M344.314,112.639c-56.959,16.646-117.761-18.95-117.761-18.95s31.546-62.586,88.505-79.233
	s117.761,18.95,117.761,18.95S401.272,95.993,344.314,112.639z"/>
<path style="fill:#FF5A5A;" d="M208.147,501.764L208.147,501.764c-15.402-18.169-34.814-32.511-56.706-41.895l-3.112-1.334
	c-62.59-26.83-110.416-79.559-131.027-144.464l0,0c-13.117-41.306-8.429-86.21,12.936-123.917l0,0
	c35.176-62.078,108.038-92.314,176.832-73.379l1.077,0.297h-0.667l1.077-0.297c68.794-18.935,141.656,11.3,176.832,73.379l0,0
	c21.365,37.707,26.053,82.61,12.936,123.917l0,0c-20.611,64.905-68.436,117.635-131.027,144.465l-3.112,1.334
	c-21.892,9.384-41.304,23.726-56.706,41.895l0,0"/>
<path style="fill:#F5C86E;" d="M441.276,201.793L441.276,201.793c3.358,18.497,10.967,35.962,22.227,51.016l1.601,2.14
	c32.196,43.041,44.077,97.959,32.551,150.459l0,0c-7.335,33.412-28.26,62.255-57.746,79.598l0,0
	c-48.544,28.552-110.281,20.464-149.832-19.628l-0.619-0.628l0.456,0.263l-0.854-0.223c-54.497-14.206-92.37-63.628-91.915-119.945
	l0,0c0.276-34.206,14.794-66.75,40.061-89.809l0,0c39.703-36.232,93.204-53.401,146.578-47.04l2.654,0.316
	C405.104,210.539,423.577,208.133,441.276,201.793z"/>
<path style="fill:#FF5A5A;" d="M408.439,382.673c-23.249,40.268-95.564,42.041-95.564,42.041s-34.622-63.514-11.373-103.781
	c23.249-40.268,95.564-42.041,95.564-42.041S431.688,342.406,408.439,382.673z"/>
<path d="M160.625,344.635c-5.186,1.899-7.85,7.641-5.952,12.828l0.264,0.72c1.483,4.052,5.313,6.564,9.391,6.564
	c1.142,0,2.303-0.197,3.437-0.612c5.186-1.899,7.85-7.641,5.952-12.828l-0.264-0.72
	C171.554,345.402,165.812,342.739,160.625,344.635z"/>
<path d="M226.314,470.851c-6.435,4.896-12.515,10.276-18.162,16.072c-14.996-15.367-33.048-27.789-52.771-36.243l-3.112-1.334
	C92.301,423.64,46.581,373.231,26.833,311.044c-12.234-38.525-7.821-80.792,12.105-115.96c29.398-51.882,86.7-79.947,144.483-72.824
	c-52.18,42.93-72.785,115.03-48.944,180.091l5.609,15.309c1.484,4.05,5.313,6.561,9.389,6.561c1.142,0,2.305-0.198,3.44-0.614
	c5.186-1.9,7.848-7.644,5.948-12.829l-5.61-15.309c-23.23-63.389,1.705-134.407,59.291-169.413
	c48.801-12.93,101.604,0.632,138.112,35.562c3.991,3.817,10.319,3.679,14.138-0.313c3.818-3.991,3.678-10.32-0.313-14.138
	c-8.845-8.462-18.605-15.895-29.053-22.184c3.896-0.715,7.797-1.61,11.69-2.748c60.432-17.662,93.261-81.616,94.629-84.329
	c2.376-4.714,0.679-10.462-3.877-13.13c-2.635-1.542-65.216-37.573-125.617-19.919c-31.153,9.105-54.971,30.511-70.923,49.488
	c1.269-5.771,2.74-11.201,4.41-16.193l0.176-0.523c2.947-8.676,1.522-18.298-3.81-25.74c-5.325-7.43-13.964-11.866-23.109-11.866
	h-1.148c-12.573,0-23.798,8.412-27.298,20.457c-7.333,25.241-12.002,54.907-12.884,81.121
	C114.78,97.004,53.583,128.675,21.54,185.227C-1.123,225.22-6.14,273.285,7.772,317.098C29.28,384.827,79.076,439.73,144.39,467.727
	l3.112,1.334c20.36,8.727,38.693,22.272,53.018,39.17c1.9,2.241,4.707,3.534,7.644,3.534s5.727-1.292,7.627-3.534
	c6.729-7.938,14.343-15.16,22.628-21.462c4.396-3.344,5.249-9.617,1.906-14.012C236.983,468.362,230.709,467.51,226.314,470.851z
	 M317.862,24.054c39.881-11.657,82.873,4.935,101.024,13.461c-10.584,16.932-37.562,53.891-77.377,65.527
	c-33.591,9.819-69.389-0.404-90.691-8.967c38.256-15.813,78.639-23.841,120.147-23.841c5.523,0,9.999-4.477,9.999-9.999
	s-4.477-9.999-9.999-9.999c-40.553,0-80.099,7.195-117.806,21.403C267.188,53.933,289.198,32.432,317.862,24.054z M209.753,26.061
	c1.034-3.556,4.363-6.039,8.095-6.039h1.148c2.754,0,5.251,1.282,6.852,3.517c1.609,2.246,2.021,5.039,1.131,7.657l-0.21,0.625
	c-6.645,19.865-10.497,45.582-10.966,72.937c-2.674,0.562-5.341,1.169-7.989,1.864c-3.403-0.894-6.812-1.675-10.227-2.347
	C198.227,79.204,202.668,50.448,209.753,26.061z"/>
<path d="M473.11,248.959l-1.6-2.139c-10.279-13.742-17.331-29.929-20.396-46.813c-0.525-2.891-2.294-5.405-4.839-6.873
	c-2.545-1.469-5.605-1.745-8.372-0.754c-16.674,5.975-33.593,7.996-50.282,6.006l-2.654-0.316
	c-56.308-6.712-112.616,11.361-154.501,49.582c-27.232,24.852-43.022,60.248-43.32,97.114
	c-0.487,60.267,39.428,113.067,97.324,129.145c19.955,19.603,45.072,32.209,72.772,36.498c6.875,1.064,13.752,1.593,20.589,1.593
	c21.322,0,42.245-5.142,61.434-15.203c4.892-2.564,6.777-8.607,4.213-13.499c-2.564-4.892-8.607-6.776-13.499-4.213
	c-43.915,23.023-96.754,15.027-131.898-19.839c-0.813-1.154-1.881-2.15-3.174-2.896l-0.456-0.263
	c-1.29-0.745-2.684-1.171-4.087-1.298c-49.477-13.481-83.639-58.477-83.224-109.865c0.253-31.319,13.667-61.39,36.803-82.503
	c37.589-34.301,88.128-50.518,138.653-44.497l2.654,0.316c16.202,1.931,32.528,0.696,48.679-3.671
	c4.341,15.912,11.691,31.026,21.565,44.226l1.6,2.139c30.48,40.747,41.703,92.624,30.791,142.326
	c-2.007,9.141-5.149,18.016-9.34,26.379c-2.475,4.938-0.478,10.945,4.459,13.419c4.937,2.474,10.945,0.478,13.419-4.459
	c4.934-9.844,8.633-20.291,10.995-31.05C519.579,352.169,507.074,294.365,473.11,248.959z"/>
<path d="M458.155,458.179c-0.028,0.028-0.118,0.119-0.145,0.147c-3.857,3.949-3.773,10.263,0.172,14.123
	c1.943,1.901,4.465,2.847,6.986,2.846c2.593,0,5.186-1,7.145-2.992c3.888-3.907,3.882-10.224-0.017-14.124
	C468.39,454.275,462.059,454.275,458.155,458.179z"/>
<path d="M396.821,268.896c-3.182,0.078-78.221,2.424-103.978,47.038c-25.758,44.614,9.729,110.772,11.253,113.567
	c1.755,3.219,5.126,5.214,8.778,5.214c0.082,0,0.164-0.001,0.246-0.003c3.182-0.078,78.221-2.424,103.978-47.038
	c25.758-44.614-9.729-110.772-11.253-113.567C404.052,270.816,400.574,268.817,396.821,268.896z M399.779,377.674
	c-16.486,28.553-63.925,35.171-80.967,36.643c-9.464-19.943-23.795-62.154-8.652-88.383c16.484-28.553,63.925-35.171,80.967-36.643
	C400.591,309.234,414.923,351.445,399.779,377.674z"/>
<g>
</g>
<g>
</g>
<g>
</g>
<g>
</g>
<g>
</g>
<g>
</g>
<g>
</g>
<g>
</g>
<g>
</g>
<g>
</g>
<g>
</g>
<g>
</g>
<g>
</g>
<g>
</g>
<g>
</g>
</svg>
