<?xml version="1.0" encoding="iso-8859-1"?>
<!-- Generator: Adobe Illustrator 19.0.0, SVG Export Plug-In . SVG Version: 6.00 Build 0)  -->
<svg version="1.1" id="Capa_1" xmlns="http://www.w3.org/2000/svg" xmlns:xlink="http://www.w3.org/1999/xlink" x="0px" y="0px"
	 viewBox="0 0 512 512" style="enable-background:new 0 0 512 512;" xml:space="preserve">
<path style="fill:#F5C86E;" d="M91.393,203.087l28.334-49.96c7.826-13.799,20.15-24.494,34.913-30.299l0,0
	c16.13-6.343,34.053-6.409,50.231-0.186l0.653,0.251c14.97,5.759,27.478,16.533,35.39,30.485l28.191,49.709
	c8.446,14.891,17.499,29.428,27.139,43.576l30.676,45.023c15.363,22.548,23.58,49.201,23.58,76.485l0,0
	c0,34.449-13.089,67.612-36.618,92.775l0,0c-24.465,26.164-58.682,41.014-94.502,41.014h-78.262
	c-35.82,0-70.037-14.851-94.502-41.014l0,0C23.088,435.782,9.998,402.62,9.998,368.17l0,0c0-27.284,8.217-53.937,23.58-76.485
	l30.676-45.023C73.894,232.516,82.948,217.978,91.393,203.087z"/>
<path style="fill:#FFE6C3;" d="M202.968,270.861l-0.406-52.818c-0.112-14.589,4.785-28.773,13.874-40.185l0,0
	c9.93-12.469,24.174-20.763,39.92-23.245l0.635-0.1c14.571-2.297,29.487,0.533,42.204,8.006l45.31,26.627
	c13.574,7.977,27.468,15.391,41.651,22.226l45.135,21.752c22.604,10.894,41.404,28.342,53.95,50.073l0,0
	c15.84,27.436,20.665,59.867,13.496,90.727l0,0c-7.454,32.088-27.877,59.649-56.406,76.119l-31.166,17.993L380,486.028
	c-28.528,16.471-62.609,20.378-94.124,10.789l0,0c-30.309-9.221-55.983-29.614-71.823-57.052l0,0
	c-12.546-21.73-18.257-46.735-16.389-71.758l3.729-49.964C202.563,302.344,203.089,286.603,202.968,270.861z"/>
<path style="fill:#FFFFFF;" d="M198.832,120.634l-14.903-37.677c-9.181-23.214-13.896-47.952-13.896-72.916l0,0H137.7l0.001,3.177
	c0.005,22.897,3.977,45.619,11.739,67.161l13.565,37.644L198.832,120.634z"/>
<g>
	<path style="fill:#C88C64;" d="M371.705,315.535l-29.173,0.012l14.597,25.259c4.292,7.427,13.48,10.442,21.337,7.003l0,0
		c6.761-2.96,10.808-9.975,9.984-17.309l0,0C387.493,321.975,380.283,315.532,371.705,315.535z"/>
	<path style="fill:#C88C64;" d="M298.827,357.611l14.597-25.259l14.577,25.271c4.286,7.43,2.304,16.894-4.604,21.979l0,0
		c-5.943,4.375-14.043,4.372-19.983-0.008l0,0C296.511,374.503,294.536,365.038,298.827,357.611z"/>
</g>
<path style="fill:#46C373;" d="M232.277,35.595c0,0,35.807-39.731,86.33-20.111s74.558,71.614,74.067,107.912
	c-55.428,6.867-92.216,9.319-127.533-16.187S232.277,35.595,232.277,35.595z"/>
<path d="M371.708,359.23c3.607,0,7.27-0.731,10.767-2.262c10.837-4.743,17.23-15.828,15.911-27.585
	c-1.528-13.597-12.994-23.846-26.675-23.846c-0.003,0-0.008,0-0.011,0l-29.174,0.012c-3.572,0.001-6.872,1.909-8.657,5.002
	s-1.784,6.906,0.004,9.998l14.598,25.259C353.408,354.352,362.383,359.23,371.708,359.23z M371.709,325.534c0.001,0,0.002,0,0.003,0
	c3.488,0,6.413,2.615,6.803,6.081c0.337,2.999-1.295,5.826-4.058,7.035c-3.199,1.4-6.927,0.176-8.672-2.846l-5.932-10.265
	L371.709,325.534z"/>
<path d="M313.428,322.353c-0.001,0-0.002,0-0.004,0c-3.57,0-6.87,1.904-8.657,4.996l-14.598,25.259l0,0
	c-6.848,11.85-3.704,26.912,7.31,35.033c4.764,3.513,10.347,5.269,15.931,5.269c5.576,0,11.153-1.752,15.912-5.256
	c11.021-8.113,14.177-23.171,7.339-35.027l-14.577-25.271C320.301,324.262,317.001,322.355,313.428,322.353z M317.468,371.551
	c-2.431,1.788-5.694,1.787-8.121-0.003c-2.809-2.071-3.609-5.912-1.864-8.935l5.933-10.265l5.924,10.269
	C321.085,365.641,320.28,369.481,317.468,371.551z"/>
<path d="M493.899,278.195c-4.202-7.278-9.11-14.196-14.591-20.562c-3.603-4.184-9.913-4.658-14.102-1.055
	c-4.185,3.602-4.656,9.915-1.055,14.101c4.667,5.422,8.85,11.314,12.429,17.514c14.626,25.332,19.035,54.974,12.417,83.465
	c-6.803,29.281-25.635,54.694-51.667,69.723L375,477.369c-26.033,15.03-57.455,18.631-86.216,9.882
	c-27.983-8.514-51.449-27.153-66.074-52.485c-11.59-20.073-16.804-42.901-15.077-66.015l3.728-49.963
	c1.188-15.895,1.727-32.048,1.604-48.006l-0.406-52.819c-0.095-12.258,4.059-24.29,11.696-33.879
	c8.395-10.54,20.348-17.499,33.654-19.598l0.638-0.101c12.251-1.93,24.888,0.466,35.581,6.75l46.18,27.137
	c13.48,7.89,27.443,15.326,41.505,22.102c4.978,2.398,10.95,0.308,13.349-4.666c2.397-4.974,0.308-10.95-4.666-13.348
	c-13.581-6.545-27.067-13.727-40.083-21.346l-46.153-27.12c-14.674-8.623-32.016-11.912-48.825-9.262l-0.637,0.101
	c-2.226,0.351-4.422,0.805-6.588,1.35c-9.34-15.195-24.102-26.475-41.188-31.924l-13.794-34.878
	c-5.101-12.896-8.726-26.188-10.872-39.743h6.073c11.484,0,22.832,1.004,33.946,2.949c0.819,15.311,6.166,50.625,36.912,72.831
	c23.767,17.165,48.226,22.649,76.975,22.649c17.381,0,36.332-2.005,57.64-4.645c4.957-0.614,8.701-4.792,8.769-9.787
	c0.286-21.133-6.777-45.035-19.379-65.574c-14.793-24.115-35.91-42.025-61.066-51.794c-23.33-9.059-47.581-8.009-70.129,3.039
	c-9.671,4.738-17.089,10.388-21.729,14.424c-13.688-2.698-27.72-4.087-41.939-4.087h-8.154c-0.158-3.156-0.243-6.322-0.243-9.498
	c0-5.522-4.477-9.998-9.998-9.998H137.7c-5.521,0-9.998,4.476-9.998,9.998v3.179c0.006,24.12,4.154,47.855,12.331,70.548
	l10.751,29.838c-16.751,6.639-30.864,18.914-39.754,34.589l-28.333,49.959c-8.276,14.592-17.26,29.017-26.703,42.877l-30.679,45.025
	C8.755,310.364,0,338.759,0,368.17c0,37.118,13.962,72.49,39.312,99.603c26.257,28.079,63.362,44.184,101.805,44.184h78.262
	c15.126,0,30.074-2.45,44.431-7.281c2.021-0.68,3.675-1.947,4.851-3.542c4.64,2.003,9.411,3.76,14.304,5.248
	c12.222,3.718,24.843,5.552,37.436,5.551c22.478-0.001,44.852-5.846,64.598-17.247l62.331-35.987
	c30.808-17.787,53.095-47.863,61.146-82.516C516.247,342.735,511.07,307.935,493.899,278.195z M314.988,24.803
	c40.976,15.913,64.195,56.324,67.331,89.776c-48.312,5.695-80.911,6.49-111.324-15.476c-20.467-14.782-26.4-38.134-28.09-51.873
	c29.878,8.642,57.439,24.387,80.469,46.365c1.937,1.848,4.421,2.766,6.902,2.766c2.637,0,5.27-1.037,7.234-3.095
	c3.812-3.994,3.664-10.323-0.33-14.136c-23.63-22.551-51.589-39.146-81.905-49.018C268.626,22.168,289.662,14.968,314.988,24.803z
	 M160.273,20.039c1.086,22.859,5.903,45.215,14.36,66.595L184,110.319c-4.769-0.287-9.177-0.358-13.222-0.216l-11.932-33.114
	c-6.619-18.37-10.318-37.498-11.023-56.951L160.273,20.039L160.273,20.039z M219.381,491.961h-26.778
	c3.333-3.881,6.178-8.236,8.396-12.995c2.332-5.005,0.166-10.953-4.84-13.286c-5.004-2.334-10.953-0.165-13.286,4.839
	c-6.069,13.025-19.277,21.441-33.647,21.441h-8.107c-32.928,0-64.71-13.794-87.199-37.845
	c-21.876-23.395-33.923-53.918-33.923-85.946c0-25.379,7.554-49.88,21.844-70.855l30.678-45.024
	c9.75-14.311,19.027-29.205,27.571-44.272l28.334-49.96c6.675-11.769,17.284-20.976,29.875-25.927
	c5.609-2.206,16.826-2.702,30.773-1.363c16.341,1.57,31.119,10.08,40.248,22.988c-7.881,4.565-14.912,10.594-20.706,17.869
	c-10.479,13.159-16.18,29.67-16.051,46.491l0.406,52.818c0.119,15.412-0.402,31.012-1.55,46.364l-3.728,49.963
	c-2.025,27.137,4.096,53.937,17.702,77.502c10.277,17.803,24.278,32.786,40.906,44.093
	C237.482,490.904,228.47,491.961,219.381,491.961z"/>
<path d="M427.108,242.203c0.005,0.002,0.01,0.004,0.015,0.007c1.367,0.635,2.807,0.936,4.224,0.936c3.777,0,7.402-2.135,9.094-5.776
	c2.325-5.008,0.188-10.936-4.82-13.262c-0.107-0.051-0.244-0.113-0.353-0.161c-5.069-2.195-10.954,0.132-13.15,5.199
	C419.951,234.144,422.186,239.939,427.108,242.203z"/>
<path d="M83.049,426.713c-3.781-4.003-10.074-4.183-14.094-0.418c-4.018,3.765-4.224,10.083-0.475,14.117
	c0.018,0.02,0.061,0.065,0.078,0.084c1.964,2.079,4.603,3.126,7.252,3.126c2.452,0,4.909-0.898,6.842-2.709
	c4.018-3.765,4.224-10.083,0.475-14.117C83.109,426.777,83.066,426.732,83.049,426.713z"/>
<path d="M102.936,260.918c-4.562-3.108-10.783-1.93-13.893,2.633l-30.679,45.025c-12.018,17.641-18.371,38.25-18.371,59.595
	c0,10.307,1.486,20.513,4.417,30.332c1.295,4.337,5.27,7.142,9.576,7.142c0.947,0,1.91-0.135,2.864-0.42
	c5.291-1.58,8.301-7.149,6.721-12.44c-2.377-7.964-3.581-16.245-3.581-24.614c0-17.313,5.152-34.027,14.901-48.336l30.678-45.024
	C108.678,270.248,107.5,264.028,102.936,260.918z"/>
<g>
</g>
<g>
</g>
<g>
</g>
<g>
</g>
<g>
</g>
<g>
</g>
<g>
</g>
<g>
</g>
<g>
</g>
<g>
</g>
<g>
</g>
<g>
</g>
<g>
</g>
<g>
</g>
<g>
</g>
</svg>
