<svg id="Layer_1" enable-background="new 0 0 511.998 511.998" height="512" viewBox="0 0 511.998 511.998" width="512" xmlns="http://www.w3.org/2000/svg"><path d="m467.995 348.985c0 85.611-58.768 155.013-131.262 155.013s-131.262-69.402-131.262-155.013 58.768-138.524 131.262-138.524 131.262 52.913 131.262 138.524z" fill="#c991ff"/><path d="m407.995 230.347c22.738 23.854 36.721 57.833 36.721 99.592 0 30.401-7.411 58.758-20.215 82.689-8.03 15.008-22.55 25.402-39.248 28.702-.27.053-.528.106-.774.158-11.227 2.376-20.301-.303-29.65 6.352-10.106 7.193-.184 33.749-46.146 37.008l-.024.002c-20.878-.886-40.513-7.529-57.801-18.627 23.018 23.535 53.039 37.775 85.876 37.775 72.494 0 131.262-69.402 131.262-155.013-.001-54.586-23.893-95.878-60.001-118.638z" fill="#d3b3ff"/><path d="m205.471 348.985c0 52.818 22.369 99.465 56.529 127.453 71.03-19.922 123.865-95.326 123.865-185.303 0-28.665-5.363-54.347-14.968-76.542-10.893-2.725-22.346-4.131-34.164-4.131-72.494-.001-131.262 52.912-131.262 138.523z" fill="#b173ff"/><path d="m68.882 24.317c23.691 109.359 135.357 17.132 135.357 17.132-49.053-63.459-135.357-17.132-135.357-17.132z" fill="#a8ffa9"/><path d="m69.193 24.153c11.061 11.464 27.603 18.744 46.088 18.744 23.352 0 43.603-11.619 53.619-28.612-44.58-17.786-95.287 7.578-99.707 9.868z" fill="#c9ffd2"/><path d="m302.079 28.997c-17.724 81.814-101.264 12.817-101.264 12.817 36.698-47.475 101.264-12.817 101.264-12.817z" fill="#69da61"/><path d="m231.344 60.859c19.304 9.007 43.421 14.192 58.775-4.429-5.567-7.68-16.076-12.859-28.123-12.859-14.24 0-26.332 7.237-30.652 17.288z" fill="#5ab161"/><path d="m366.538 271.807c0 105.184-72.204 190.453-161.272 190.453s-161.271-85.269-161.271-190.453 72.204-170.194 161.272-170.194 161.271 65.01 161.271 170.194z" fill="#c991ff"/><path d="m253.753 453.501c65.375-24.307 112.784-96.462 112.784-181.693 0-93.161-56.641-154.807-131.472-167.683-2.576 6.462 3.743 14.05 10.522 19.144 27.229 20.465 53.468 44.478 67.779 76.052 11.855 26.155 14.113 57.787.717 83.188-8.714 16.524-24.034 31.723-22.172 50.311.863 8.614 5.45 16.367 7.808 24.698 6.474 22.88-4.542 47.229-19.225 65.932-8.267 10.531-17.771 20.098-26.741 30.051z" fill="#d3b3ff"/><path d="m93.22 271.807c0-95.301 59.273-157.623 136.659-168.493-8.025-1.127-16.244-1.701-24.613-1.701-89.068 0-161.272 65.01-161.272 170.194s72.204 190.453 161.272 190.453c8.368 0 16.588-.753 24.613-2.204-77.386-13.995-136.659-92.947-136.659-188.249z" fill="#b173ff"/><path d="m298.561 263.925c-2.857 4.065-7.958 7.995-13.497 7.88-6.161-.128-9.521-5.108-10.338-9.836-1.149-6.645 2.299-41.583 19.76-39.801 7.066.721 7.836 13.928 8.523 18.451 1.158 7.621.779 15.861-4.448 23.306z" fill="#d3b3ff"/><path d="m408.207 417.943c2.558-1.916 5.172-4.432 5.222-7.628.057-3.61-3.484-6.535-7.084-6.813s-7.067 1.493-9.892 3.742c-3.923 3.124-11.942 11.486-7.515 17.032 4.415 5.531 15.262-3.331 19.269-6.333z" fill="#d3b3ff"/><g fill="#231f20"><path d="m140.344 354.168c-1.712-4.115-6.42-6.011-10.45-4.33-4.789 1.997-6.323 7.776-3.59 11.83 2.444 3.713 7.488 4.638 11.09 2.21 3.116-2.054 4.434-6.152 2.95-9.71z"/><path d="m442.442 249.875c-19.99-23.744-47.052-39.216-78.502-44.963-22.618-66-80.397-108.378-151.338-111.145 2.762-10.536 2.927-22.555 2.26-32.615 45.689 27.009 83.892 20.977 95.036-30.46.755-3.488-.891-7.055-4.035-8.743-.712-.382-17.683-9.39-39.609-12.277-25.452-3.351-47.12 2.866-63.39 18.034-21.483-21.977-50.876-31.144-85.743-26.552-28.826 3.797-51.089 15.613-52.022 16.114-3.145 1.688-4.791 5.255-4.035 8.743 16.058 74.124 74.53 73.548 137.252 29.845 1.256 11.896 1.59 27.628-2.503 38.002-88.491 4.461-159.818 71.387-159.818 177.95 0 52.763 17.448 102.425 49.13 139.84 41.923 49.509 100.316 67.669 154.76 54.503 26.087 29.604 60.288 45.848 96.848 45.848 122.856-.001 180.906-172.808 105.709-262.124zm-149.738-216.412c-9.457 32.36-32.269 33.516-62.354 17.996-7.164-3.695-13.425-7.773-17.817-10.863 21.139-20.926 52.754-18.726 80.171-7.133zm-185.242 34.107c-13.789-4.787-23.621-17.833-29.277-38.822 39.162-17.319 84.947-20.248 114.506 11.442-22.277 16.165-59.237 36.404-85.229 27.38zm229.271 428.428c-29.619 0-57.592-12.363-79.867-35.06 56.635-21.17 96.779-75.069 111.24-134.739 1.041-4.294-1.597-8.619-5.891-9.659-4.296-1.04-8.619 1.597-9.659 5.891-14.061 58.022-54.352 110.795-112.041 126.976-.129.036-.249.089-.375.131-95.985 26.504-188.145-60.251-188.145-177.731 0-89.215 53.784-147.859 125.594-159.91-41.369 45.813-68.002 119.333-56.83 213.361.483 4.067 3.938 7.057 7.934 7.057 4.828 0 8.517-4.21 7.955-8.945-9.333-78.546 9.672-132.878 27.258-164.626 15.72-28.38 33.14-44.304 38.882-49.103 88.586-1.27 155.75 63.241 155.75 162.166 0 4.418 3.582 8 8 8s8-3.582 8-8c0-16.546-1.741-33.294-5.57-49.461 24.378 6.062 45.37 18.99 61.235 37.833 66.273 78.718 16.305 235.819-93.47 235.819z"/></g></svg>