<svg height="511pt" viewBox="0 -43 511.99825 511" width="511pt" xmlns="http://www.w3.org/2000/svg"><path d="m359.933594 109.574219s-5.574219-62.398438-68.765625-60.589844c0 0-8.597657 57.933594 48.105469 77.800781zm0 0" fill="#8bcc3f"/><path d="m293.554688 48.953125c35.183593 10.875 48.855468 52.644531 53.3125 71.503906l13.066406-10.882812s-5.4375-60.808594-66.378906-60.621094zm0 0" fill="#659922"/><path d="m359.933594 109.574219s-13.757813-61.117188 46.964844-78.703125c0 0 25.886718 52.535156-22.035157 88.777344zm0 0" fill="#8bcc3f"/><path d="m406.898438 30.871094c-4.011719 1.160156-7.6875 2.515625-11.070313 4.027344 2.890625 18.539062 3.683594 53.703124-23.957031 79.5l12.992187 5.25c47.921875-36.242188 22.035157-88.777344 22.035157-88.777344zm0 0" fill="#659922"/><path d="m496.066406 171.636719c-32.078125-78.347657-121.457031-64.359375-136.132812-62.0625-14.675782 2.296875-104.058594 16.28125-110.664063 100.6875-6.300781 80.480469 84.503907 172.648437 151.792969 162.121093 67.285156-10.53125 125.59375-126.035156 95.003906-200.746093zm0 0" fill="#fb4239"/><path d="m314.820312 203.449219c-5.691406-23.941407-16.527343-44.464844-32.03125-61.070313-17.207031 14.929688-31.070312 36.550782-33.523437 67.882813-3.128906 39.984375 17.71875 82.851562 47.734375 114.582031 19.808594-40.75 26.625-84.351562 17.820312-121.394531zm0 0" fill="#d10d0d"/><path d="m496.066406 171.636719c-11.5625-28.242188-30.574218-44.484375-50.847656-53.605469 7.128906 8.042969 13.390625 17.867188 18.304688 29.871094 30.585937 74.707031-27.71875 190.210937-95.007813 200.742187-19.515625 3.050781-41.007813-2.546875-61.539063-13.976562 28.804688 26.402343 63.820313 42.449219 94.085938 37.710937 67.285156-10.527344 125.59375-126.03125 95.003906-200.742187zm0 0" fill="#e31f1d"/><path d="m125.765625 128.339844s-17.148437-69.207032-87.910156-56.15625c0 0 .433593 66.660156 67.675781 79.117187zm0 0" fill="#8bcc3f"/><path d="m46.121094 71.011719c37.992187 17.238281 59.40625 80.273437 59.410156 80.289062l20.234375-22.960937s-15.808594-63.746094-79.644531-57.328125zm0 0" fill="#659922"/><path d="m153.003906 114.371094s4.710938-71.144532-66.664062-80.234375c0 0-19.863282 63.632812 40.402344 95.953125zm0 0" fill="#8bcc3f"/><path d="m89.027344 34.519531c37.648437 18.425781 45.675781 67.796875 47.367187 89.792969l16.609375-9.941406s4.585938-69.332032-63.976562-79.851563zm0 0" fill="#659922"/><path d="m180.238281 128.339844s17.148438-69.207032 87.910157-56.15625c0 0-.433594 66.660156-67.675782 79.117187zm0 0" fill="#8bcc3f"/><path d="m254.261719 70.617188c-2.632813 17.96875-14.027344 58.9375-63.332031 69.855468l9.542968 10.828125c67.242188-12.457031 67.675782-79.117187 67.675782-79.117187-4.882813-.902344-9.5-1.398438-13.886719-1.566406zm0 0" fill="#659922"/><path d="m153.003906 114.371094s-4.714844-71.144532 66.660156-80.234375c0 0 19.867188 63.632812-40.402343 95.953125zm0 0" fill="#8bcc3f"/><path d="m219.664062 34.136719c-4.710937.597656-9.082031 1.476562-13.15625 2.582031-.011718 21.355469-5.308593 61.035156-40.933593 85.179688l13.6875 8.191406c60.269531-32.320313 40.402343-95.953125 40.402343-95.953125zm0 0" fill="#659922"/><path d="m295.167969 208.121094c-22.285157-93.75-125.257813-93.75-142.164063-93.75s-119.878906 0-142.164062 93.75c-21.25 89.394531 64.644531 209.019531 142.164062 209.019531 77.519532 0 163.410156-119.625 142.164063-209.019531zm0 0" fill="#fb4239"/><path d="m295.167969 208.121094c-8.035157-33.792969-26.554688-55.402344-47.746094-69.226563 6.597656 10.296875 11.910156 22.449219 15.324219 36.808594 21.25 89.394531-64.644532 209.019531-142.164063 209.019531-22.484375 0-45.667969-10.078125-66.742187-26.546875 27.746094 34.761719 64.296875 58.964844 99.164062 58.964844 77.519532 0 163.410156-119.625 142.164063-209.019531zm0 0" fill="#e31f1d"/><path d="m365.496094 145.136719c-4.839844.757812-8.152344 5.296875-7.394532 10.136719.757813 4.84375 6.671876 16.921874 11.511719 16.164062 4.84375-.757812 6.78125-14.066406 6.023438-18.90625-.757813-4.84375-5.296875-8.152344-10.140625-7.394531zm0 0"/><path d="m441.917969 162.816406c-.757813-4.84375-5.296875-8.152344-10.140625-7.394531-4.839844.757813-8.152344 5.296875-7.394532 10.136719.757813 4.84375 6.667969 16.921875 11.511719 16.164062 4.84375-.757812 6.78125-14.066406 6.023438-18.90625zm0 0"/><path d="m411.6875 239.402344c4.84375-.757813 6.78125-14.0625 6.023438-18.90625-.757813-4.839844-5.296876-8.152344-10.140626-7.394532-4.839843.757813-8.152343 5.296876-7.394531 10.140626.757813 4.839843 6.667969 16.917968 11.511719 16.160156zm0 0"/><path d="m449.949219 294.492188c4.84375-.757813 6.78125-14.0625 6.023437-18.90625-.757812-4.839844-5.296875-8.152344-10.136718-7.394532-4.84375.757813-8.15625 5.296875-7.394532 10.140625.753906 4.839844 6.667969 16.917969 11.507813 16.160157zm0 0"/><path d="m477.550781 218.316406c4.839844-.757812 6.78125-14.0625 6.023438-18.90625-.757813-4.839844-5.296875-8.152344-10.140625-7.394531s-8.152344 5.296875-7.394532 10.140625c.757813 4.839844 6.667969 16.917969 11.511719 16.160156zm0 0"/><path d="m305.527344 175.179688c-4.839844.757812-8.152344 5.296874-7.394532 10.136718.757813 4.84375 6.667969 16.921875 11.511719 16.164063 4.84375-.757813 6.78125-14.0625 6.023438-18.90625-.757813-4.84375-5.296875-8.152344-10.140625-7.394531zm0 0"/><path d="m346.199219 222.707031c-4.839844.757813-8.152344 5.296875-7.394531 10.136719.757812 4.84375 6.667968 16.921875 11.511718 16.164062 4.84375-.757812 6.78125-14.066406 6.023438-18.90625-.757813-4.84375-5.296875-8.152343-10.140625-7.394531zm0 0"/><path d="m326.597656 286.851562c-4.839844.757813-8.152344 5.296876-7.394531 10.140626.757813 4.839843 6.667969 16.917968 11.511719 16.160156 4.839844-.757813 6.78125-14.0625 6.023437-18.90625-.757812-4.839844-5.296875-8.152344-10.140625-7.394532zm0 0"/><path d="m390.605469 305.578125c-4.839844.757813-8.152344 5.296875-7.394531 10.136719.757812 4.84375 6.667968 16.921875 11.511718 16.164062 4.84375-.757812 6.78125-14.066406 6.023438-18.90625-.757813-4.84375-5.296875-8.152344-10.140625-7.394531zm0 0"/><path d="m153.003906 185.644531c5.578125 0 10.097656-14.625 10.097656-20.203125s-4.519531-10.097656-10.097656-10.097656-10.101562 4.519531-10.101562 10.097656 4.523437 20.203125 10.101562 20.203125zm0 0"/><path d="m225.726562 208.875c5.578126 0 10.101563-14.625 10.101563-20.203125s-4.523437-10.097656-10.101563-10.097656c-5.578124 0-10.101562 4.519531-10.101562 10.097656 0 5.582031 4.523438 20.203125 10.101562 20.203125zm0 0"/><path d="m198.453125 249.277344c0-5.578125-4.519531-10.101563-10.097656-10.101563s-10.101563 4.523438-10.101563 10.101563 4.523438 20.199218 10.101563 20.199218 10.097656-14.621093 10.097656-20.199218zm0 0"/><path d="m211.585938 317.960938c0 5.578124 4.523437 20.199218 10.097656 20.199218 5.578125 0 10.101562-14.621094 10.101562-20.199218 0-5.578126-4.523437-10.101563-10.101562-10.101563-5.574219 0-10.097656 4.523437-10.097656 10.101563zm0 0"/><path d="m276.230469 237.15625c0-5.578125-4.523438-10.101562-10.101563-10.101562s-10.101562 4.523437-10.101562 10.101562 4.523437 20.199219 10.101562 20.199219 10.101563-14.621094 10.101563-20.199219zm0 0"/><path d="m80.28125 178.574219c-5.578125 0-10.101562 4.519531-10.101562 10.097656s4.523437 20.203125 10.101562 20.203125 10.097656-14.625 10.097656-20.203125-4.519531-10.097656-10.097656-10.097656zm0 0"/><path d="m127.75 249.277344c0-5.578125-4.519531-10.101563-10.097656-10.101563s-10.101563 4.523438-10.101563 10.101563 4.523438 20.199218 10.101563 20.199218 10.097656-14.621093 10.097656-20.199218zm0 0"/><path d="m74.21875 317.960938c0 5.578124 4.523438 20.199218 10.101562 20.199218 5.578126 0 10.097657-14.621094 10.097657-20.199218 0-5.578126-4.519531-10.101563-10.097657-10.101563-5.578124 0-10.101562 4.523437-10.101562 10.101563zm0 0"/><path d="m153.003906 370.480469c5.578125 0 10.097656-14.621094 10.097656-20.199219s-4.519531-10.101562-10.097656-10.101562-10.101562 4.523437-10.101562 10.101562 4.523437 20.199219 10.101562 20.199219zm0 0"/><path d="m49.976562 237.15625c0-5.578125-4.519531-10.101562-10.097656-10.101562s-10.101562 4.523437-10.101562 10.101562 4.523437 20.199219 10.101562 20.199219 10.097656-14.621094 10.097656-20.199219zm0 0"/><path d="m485.5 139.140625c-2.679688-3.214844-7.457031-3.652344-10.671875-.976563-3.214844 2.675782-3.652344 7.453126-.972656 10.671876 6.117187 7.347656 11.234375 15.988281 15.199219 25.675781 14.660156 35.808593 8.503906 85.121093-16.066407 128.6875-19.464843 34.515625-46.792969 57.578125-73.101562 61.691406-17.164063 2.6875-37.023438-1.984375-57.433594-13.511719-18.53125-10.46875-36.546875-26.230468-51.128906-44.65625 14.140625-34.332031 18.464843-69.832031 11.210937-100.351562-4.828125-20.316406-13.191406-36.527344-23.667968-49.464844 11.460937-12.996094 27.175781-23.320312 46.828124-30.722656 16.453126-6.195313 30.710938-8.402344 35.410157-9.128906 5.214843-.820313 19.074219-2.992188 36.5-2.121094 20.023437.992187 37.554687 5.648437 52.109375 13.84375 3.644531 2.050781 8.265625.761718 10.316406-2.886719 2.054688-3.644531.761719-8.261719-2.882812-10.316406-13.230469-7.449219-28.46875-12.320313-45.425782-14.558594 20.382813-35.136719 2.808594-71.789063 1.96875-73.492187-1.621094-3.296876-5.371094-4.949219-8.902344-3.929688-26.597656 7.699219-40.257812 23.164062-47.136718 38.648438-3.664063-10.816407-8.675782-22.683594-15.554688-34.703126-2.078125-3.632812-6.703125-4.890624-10.335937-2.8125-3.632813 2.078126-4.890625 6.707032-2.8125 10.335938 3.964843 6.929688 7.257812 13.835938 10 20.496094-11.152344-8.679688-26.609375-14.753906-48-14.152344-3.671875.105469-6.738281 2.828125-7.277344 6.460938-.277344 1.878906-5.808594 42.140624 24.328125 69.378906-15.851562 7.492187-29.078125 17.03125-39.484375 28.496094-5.339844-5.019532-11.03125-9.398438-16.941406-13.230469 23.617187-25.519531 24.136719-58.746094 24.148437-60.28125.023438-3.671875-2.589844-6.832031-6.199218-7.5-14.210938-2.625-27.40625-2.304688-39.410157.914062 1.367188-18.757812-2.992187-33.042969-3.214843-33.769531-1.097657-3.507812-4.554688-5.722656-8.191407-5.257812-24.160156 3.078124-40.371093 12.761718-51.25 24.570312 3.746094-12.875 9.527344-26.039062 18.476563-38.753906 2.410156-3.417969 1.589844-8.144532-1.832032-10.554688-3.421874-2.40625-8.148437-1.585937-10.554687 1.835938-14.28125 20.28125-21.351563 40.917968-24.832031 61.34375-9.953125-17.578125-28.164063-34.207032-61.417969-38.441406-3.640625-.453126-7.09375 1.753906-8.1875 5.257812-.230469.726562-4.585937 15.015625-3.21875 33.769531-12.003906-3.214843-25.203125-3.535156-39.410156-.910156-3.609375.667969-6.222657 3.824219-6.199219 7.496094.007812 1.535156.53125 34.800781 24.1875 60.324219-12.164062 7.953124-22.535156 17.652343-30.8125 29-2.464844 3.382812-1.726562 8.121093 1.652344 10.585937 3.382812 2.464844 8.121094 1.722656 10.585937-1.65625 30.804688-42.230469 86.59375-48.535156 117.105469-48.535156 34.246094 0 115.929688 8.570312 134.792969 87.929687 10.257812 43.152344-5.414063 97.855469-40.902344 142.769532-28.164063 35.644531-63.261719 56.921874-93.890625 56.921874s-65.726562-21.277343-93.890625-56.921874c-35.484375-44.914063-51.15625-99.621094-40.898437-142.773438.863281-3.640625 1.882812-7.226562 3.03125-10.65625 1.324218-3.96875-.816407-8.261719-4.785157-9.585938-3.964843-1.328124-8.257812.816407-9.585937 4.785157-1.289063 3.855469-2.433594 7.878906-3.402344 11.953125-11.304688 47.554687 5.460938 107.203125 43.757812 155.667968 14.652344 18.546876 31.644532 34.058594 49.132813 44.851563 19.160156 11.828125 38.21875 17.828125 56.644531 17.828125 18.421875 0 37.480469-6 56.640625-17.828125 17.488281-10.796875 34.480469-26.304687 49.136719-44.851563 10.03125-12.699218 18.574219-26.171874 25.535156-39.988281 15.566406 18.308594 34.382813 34.253907 55.828125 45.246094 18.890625 9.6875 40.761719 15.902344 62.085938 12.5625 31.304687-4.894531 61.90625-30.125 83.953125-69.214844 26.796875-47.511719 33.269531-101.875 16.890625-141.875-4.550781-11.117187-10.464844-21.085937-17.574219-29.628906zm-83.03125-98.800781c3.75 11.40625 8.976562 36.78125-8.027344 59.3125-11.222656-.304688-20.980468.511718-27.722656 1.320312-.140625-1.125-.308594-2.351562-.507812-3.671875-.511719-16.519531 3.84375-44.445312 36.257812-56.960937zm-104.230469 16.300781c37.5 2.144531 49.289063 31.238281 52.90625 46.75-6.65625 1.273437-16.304687 3.484375-27.109375 7.28125-23.265625-16.375-25.945312-42.027344-25.796875-54.03125zm-38.257812 21.984375c-1.40625 10.289062-6.152344 30.714844-22.035157 46.160156-8.917968-4.398437-18.082031-7.757812-27.082031-10.304687 7.804688-9.28125 13.316407-19.976563 16.464844-31.960938 9.675781-3.90625 20.617187-5.21875 32.652344-3.894531zm-46.105469-35.871094c1.261719 7.078125 2.480469 19.296875-.429688 32.734375-2.964843 13.707031-9.574218 25.46875-19.644531 35.015625-12.304687-2.292968-23.746093-3.261718-33.132812-3.578125 1.109375-17.714843 8.804687-55.167969 53.207031-64.171875zm-121.726562 0c44.300781 8.964844 52.085937 46.019532 53.179687 64.171875-11.613281.355469-22.722656 1.511719-33.242187 3.460938-10.003907-9.523438-16.570313-21.246094-19.523438-34.902344-2.890625-13.339844-1.667969-25.617187-.414062-32.730469zm-46.125 35.871094c12.035156-1.324219 22.976562-.011719 32.65625 3.894531 3.136718 11.941407 8.625 22.605469 16.386718 31.863281-9.625 2.746094-18.65625 6.210938-27.023437 10.386719-15.871094-15.449219-20.613281-35.867187-22.019531-46.144531zm0 0"/></svg>