<?xml version="1.0" encoding="iso-8859-1"?>
<!-- Generator: Adobe Illustrator 19.0.0, SVG Export Plug-In . SVG Version: 6.00 Build 0)  -->
<svg version="1.1" id="Layer_1" xmlns="http://www.w3.org/2000/svg" xmlns:xlink="http://www.w3.org/1999/xlink" x="0px" y="0px"
	 viewBox="0 0 512.001 512.001" style="enable-background:new 0 0 512.001 512.001;" xml:space="preserve">
<circle style="fill:#34602B;" cx="283.941" cy="284.223" r="216.189"/>
<path style="fill:#3E9C06;" d="M401.142,284.219c0-119.397-52.471-216.189-117.197-216.189S166.748,164.82,166.748,284.219
	s52.471,192.255,117.197,192.255S401.142,403.617,401.142,284.219z"/>
<ellipse style="fill:#34602B;" cx="283.941" cy="284.223" rx="47.897" ry="210.86"/>
<path style="fill:#3E9C06;" d="M316.136,304.021h89.229c0,109.043-88.397,197.441-197.441,197.441S10.482,413.066,10.482,304.021
	h8.454h229.14"/>
<path style="fill:#EF0000;" d="M369.238,304.021c0,89.091-72.222,161.313-161.313,161.313S46.61,393.113,46.61,304.021"/>
<path d="M307.904,361.93c-5.77,0-10.449-4.678-10.449-10.449v-11.446c0-5.771,4.679-10.449,10.449-10.449
	s10.449,4.678,10.449,10.449v11.446C318.353,357.252,313.675,361.93,307.904,361.93z"/>
<path d="M257.914,377.053c-5.77,0-10.449-4.678-10.449-10.449v-11.446c0-5.771,4.679-10.449,10.449-10.449
	s10.449,4.678,10.449,10.449v11.446C268.363,372.375,263.684,377.053,257.914,377.053z"/>
<path d="M207.923,361.93c-5.77,0-10.449-4.678-10.449-10.449v-11.446c0-5.771,4.679-10.449,10.449-10.449
	c5.77,0,10.449,4.678,10.449,10.449v11.446C218.372,357.252,213.693,361.93,207.923,361.93z"/>
<path d="M157.933,377.053c-5.77,0-10.449-4.678-10.449-10.449v-11.446c0-5.771,4.679-10.449,10.449-10.449
	s10.449,4.678,10.449,10.449v11.446C168.382,372.375,163.703,377.053,157.933,377.053z"/>
<path d="M107.942,361.93c-5.77,0-10.449-4.678-10.449-10.449v-11.446c0-5.771,4.679-10.449,10.449-10.449
	c5.77,0,10.449,4.678,10.449,10.449v11.446C118.391,357.252,113.713,361.93,107.942,361.93z"/>
<path d="M288.161,408.832c-5.77,0-10.449-4.678-10.449-10.449v-11.446c0-5.771,4.679-10.449,10.449-10.449
	s10.449,4.678,10.449,10.449v11.446C298.61,404.154,293.931,408.832,288.161,408.832z"/>
<path d="M238.17,423.955c-5.77,0-10.449-4.678-10.449-10.449V402.06c0-5.771,4.679-10.449,10.449-10.449s10.449,4.678,10.449,10.449
	v11.446C248.619,419.277,243.94,423.955,238.17,423.955z"/>
<path d="M188.179,408.832c-5.77,0-10.449-4.678-10.449-10.449v-11.446c0-5.771,4.679-10.449,10.449-10.449
	c5.77,0,10.449,4.678,10.449,10.449v11.446C198.628,404.154,193.95,408.832,188.179,408.832z"/>
<path d="M138.189,423.955c-5.77,0-10.449-4.678-10.449-10.449V402.06c0-5.771,4.679-10.449,10.449-10.449
	s10.449,4.678,10.449,10.449v11.446C148.638,419.277,143.96,423.955,138.189,423.955z"/>
<path d="M282.151,314.47h-0.109c-5.77,0-10.449-4.678-10.449-10.449c0-5.771,4.679-10.449,10.449-10.449h0.109
	c5.77,0,10.449,4.678,10.449,10.449C292.6,309.792,287.921,314.47,282.151,314.47z"/>
<path d="M172.756,207.394c-0.818,0-1.65-0.097-2.482-0.3c-5.606-1.366-9.045-7.019-7.679-12.626l0.259-1.055
	c1.389-5.601,7.052-9.016,12.655-7.63c5.602,1.388,9.017,7.053,7.631,12.655l-0.24,0.976
	C181.736,204.192,177.461,207.394,172.756,207.394z"/>
<path d="M445.18,123.224C404.822,82.865,352,59.499,295.393,56.718c4.189-20.994,21.245-35.82,42.929-35.82
	c5.77,0,10.449-4.678,10.449-10.449S344.091,0,338.321,0c-18.324,0-35.03,7.14-47.041,20.103
	c-9.236,9.969-15.123,22.687-17.067,36.552c-57.254,2.389-110.738,25.804-151.504,66.569
	C79.64,166.291,55.922,223.553,55.922,284.46c0,3.003,0.072,6.049,0.196,9.114H10.482c-5.77,0-10.449,4.678-10.449,10.449
	c0,114.632,93.259,207.891,207.89,207.891c12.571,0,24.885-1.122,36.847-3.272c12.882,2.22,26.044,3.359,39.161,3.359
	c60.931,0,118.19-23.628,161.232-66.534c43.08-42.944,66.805-100.124,66.805-161.006
	C511.967,223.553,488.248,166.291,445.18,123.224z M360.677,135.704c22.08,39.563,34.239,92.392,34.239,148.756
	c0,3-0.04,6.045-0.115,9.114h-52.568c0.038-3.523,0.056-7.035,0.056-10.511c0-58.481-5.071-113.57-14.275-155.12
	c-3.803-17.167-8.087-31.168-12.885-42.101C331.938,95.216,347.531,112.147,360.677,135.704z M215.629,88.926
	c-16.8,17.425-31.333,41.361-42.328,70.685c-2.026,5.403,0.713,11.427,6.116,13.452c5.408,2.029,11.427-0.713,13.452-6.116
	c14.799-39.471,36.037-67.73,59.858-81.035c-4.784,10.922-9.058,24.901-12.853,42.03c-9.206,41.55-14.275,96.639-14.275,155.12
	c0,3.475,0.019,6.987,0.056,10.511h-52.568c-0.075-3.067-0.115-6.112-0.115-9.114c0-17.278,1.164-34.462,3.462-51.074
	c0.79-5.717-3.204-10.991-8.92-11.781c-5.722-0.792-10.991,3.204-11.781,8.92c-2.426,17.556-3.657,35.702-3.657,53.936
	c0,3.004,0.041,6.049,0.111,9.114H77.028c-0.137-3.07-0.208-6.115-0.208-9.114C76.82,194.179,134.887,117.218,215.629,88.926z
	 M248.077,314.47c5.77,0,10.449-4.678,10.449-10.449c0-5.771-4.679-10.449-10.449-10.449h-1.521
	c-0.039-3.523-0.059-7.035-0.059-10.511c0-57.005,4.894-110.49,13.781-150.599c10.04-45.318,21.394-55.128,23.666-55.128
	c2.272,0,13.625,9.81,23.666,55.128c8.888,40.111,13.781,93.594,13.781,150.599c0,3.474-0.02,6.987-0.059,10.511h-5.197
	c-5.77,0-10.449,4.678-10.449,10.449c0,5.771,4.679,10.449,10.449,10.449h42.284c-5.385,78.331-70.822,140.415-150.498,140.415
	c-79.673,0-145.11-62.085-150.497-140.415H248.077z M207.923,491.014c-99.602,0-181.267-78.275-186.703-176.544h15.268
	c5.42,89.862,80.235,161.313,171.435,161.313S373.94,404.333,379.36,314.47h15.268C389.19,412.739,307.526,491.014,207.923,491.014z
	 M300.002,490.487l-0.211-0.01C368.47,456.5,415.814,385.692,415.814,304.022c0-0.937-0.135-1.841-0.367-2.705
	c0.239-5.682,0.367-11.339,0.367-16.857c0-59.868-13.1-116.315-36.888-158.939c-7.971-14.284-16.858-26.498-26.449-36.518
	c80.63,28.353,138.592,105.258,138.592,195.458C491.069,393.006,406.734,482.274,300.002,490.487z"/>
<g>
</g>
<g>
</g>
<g>
</g>
<g>
</g>
<g>
</g>
<g>
</g>
<g>
</g>
<g>
</g>
<g>
</g>
<g>
</g>
<g>
</g>
<g>
</g>
<g>
</g>
<g>
</g>
<g>
</g>
</svg>
