<svg xmlns="http://www.w3.org/2000/svg" xmlns:xlink="http://www.w3.org/1999/xlink"><defs><symbol viewBox="0 0 180 60" id="calipari"><g fill="#3CC4FC"><path d="M32.21 12.92c1.02-2.15 1.23-3.99.61-6.03-.61-1.74-2.15-3.78-3.68-5.11-2.25-1.94-5.62-1.64-9.31-.2C12.07 4.63-.31 17.11 0 31.83c.1 5.62 2.86 10.02 5.93 11.66 3.78 2.05 9.51 2.15 14.42-1.43 2.86-2.15 7.26-7.26 5.62-11.97-.41-.82-1.12-.82-1.43-.1-5.21 10.23-12.57 14.83-17.07 11.36-3.37-2.76-3.99-12.99 2.05-23.11C15.75 7.9 26.28 2.28 28.23 4.43c1.64 1.64-.82 5.62-2.05 9.2-1.02 3.48.1 5.62 1.64 6.65.82.61 1.33.1 1.53-.41.82-2.05 1.84-4.7 2.86-6.95zM89.07 17.11c.82-.92 1.33-2.86.51-4.6-.82-1.84-2.86-2.66-3.99-1.53s-1.43 3.27-.41 5.11c.93 1.73 2.87 1.94 3.89 1.02z" /><path d="M177.84 33.68c-2.15 4.81-5.83 9.31-9 9.51-2.25.1-2.35-2.56-.72-6.55 1.43-3.48 4.3-8.18 5.73-11.25 1.64-3.48 1.12-6.44.1-7.47-.61-.61-1.02-.41-1.64.41-2.56 3.58-7.16 11.76-8.79 16.87-.2.72-.41 1.33-.61 1.94-2.15 3.68-4.7 6.34-6.95 6.24-2.15-.1-2.86-2.86-1.74-6.65 1.12-3.48 4.6-8.28 7.87-12.07 2.05-2.35.41-5.62-.92-7.06-.61-.72-1.12-.61-2.15.1-2.56 1.84-5.22 2.97-7.67 3.27 1.43-4.81 2.15-8.79 0-8.79-2.76.2-9.31 9.61-3.78 11.66-3.27 10.23-9.51 18.61-13.91 19.12-2.15.2-2.45-2.35-.82-6.34 1.53-3.58 5.22-8.9 6.55-12.07 1.53-3.48 1.02-6.34-.1-7.57-.61-.61-1.12-.41-1.64.41-.51.72-1.33 2.15-2.45 3.89 0-2.45-1.33-4.6-3.99-4.6-3.58 0-9 3.17-14.52 11.15a23.646 23.646 0 0 0-3.27 7.26c-2.35 4.3-6.34 8.59-12.48 8.79 2.56-1.64 5.22-4.91 7.26-9.51 2.56-5.62 3.99-11.86.82-15.34-2.97-3.07-7.06-1.12-10.12 1.43.1-1.12-.1-2.25-.41-3.07-.41-.82-.92-.92-1.64-.1-2.76 3.68-8.39 13.7-12.68 22.29-1.74 2.15-3.68 3.58-5.42 3.58-2.25.1-2.35-2.56-.72-6.55 1.43-3.48 4.3-8.18 5.73-11.25 1.64-3.48 1.12-6.44.1-7.47-.61-.61-1.02-.41-1.64.41-2.56 3.58-7.16 11.76-8.79 16.87v.2c-2.76 4.4-6.75 8.08-9.61 7.87-3.07-.31-2.35-6.03.41-12.78 6.14-3.99 13.91-12.27 16.06-20.86.82-3.27.41-5.73-1.64-7.57-.92-.82-1.94-.82-2.97.41-6.85 7.06-14.83 19.74-17.28 31.7-.1.41-.1.72-.2 1.02-2.45 4.19-5.73 8.08-8.39 8.28-2.35.1-2.35-2.86-.61-6.75 1.64-3.68 5.11-8.79 6.65-12.07 1.64-3.48 1.12-6.44.1-7.67-.51-.61-1.02-.51-1.64.41-.82 1.12-1.64 2.56-2.45 4.19.1-2.66-1.23-5.01-4.19-5.01-3.48 0-8.9 3.07-14.52 11.25-5.73 8.39-4.4 17.18 2.05 17.18 3.37 0 6.44-2.56 8.69-5.42 0 3.27 1.94 5.52 5.62 5.62 3.07.2 6.44-2.35 8.69-5.22.72 3.27 2.76 4.81 6.03 4.91 3.37.1 6.65-2.05 8.79-4.09.41 2.56 2.15 4.3 5.42 4.3 1.23 0 2.45-.31 3.78-.82-1.43 3.07-2.56 5.73-3.07 7.36-1.33 4.19-.92 6.14.1 7.57.41.61.82.51 1.12-.1 3.37-7.67 6.85-14.73 10.12-20.66.2 1.74.82 3.37 2.35 4.6 2.45 2.25 5.32 2.86 9.82 2.56 4.3-.31 8.39-2.05 11.15-5.62.61 2.86 2.45 4.81 5.42 4.81 3.37 0 6.55-2.66 8.79-5.62-.1 3.58 2.05 5.93 5.73 5.62 7.36-.61 13.7-10.94 16.98-20.76 2.15 0 5.11-.82 8.18-2.56-2.97 3.37-7.26 8.49-8.59 12.99-1.64 5.62.41 10.33 5.62 10.43 2.56.1 5.32-1.23 7.26-3.48.72 2.15 2.35 3.37 5.22 3.37 3.89 0 8.28-2.86 10.33-7.26.82-1.74 1.02-3.17.51-4.3-.5-.04-1.01-.04-1.42.48zM67.19 23.96C72 15.17 77.11 7.39 77.93 8.01c.92.61-2.97 11.66-12.48 19.33.61-1.13 1.13-2.15 1.74-3.38zm-31.4 18.92c-2.66-.1-1.84-6.14 1.84-12.07 3.89-6.14 8.79-10.64 11.04-10.43 2.05.2 1.33 4.5-2.97 12.07-3.46 6.03-7.04 10.53-9.91 10.43zm58.3-1.13c-1.94-1.64-1.64-5.73.1-10.12.82-1.43 1.64-2.66 2.35-3.99 3.27-5.32 7.47-8.79 9.2-7.98 1.74.82.92 6.55-1.74 12.07-3.37 6.75-7.77 11.76-9.91 10.02zm25.66.92c-2.66-.1-1.94-6.03 1.84-12.07 3.89-6.03 8.79-10.43 10.94-10.43 2.05.1 1.33 4.5-2.86 12.07-3.58 6.24-7.26 10.54-9.92 10.43zM179.07 17.11c.82-.92 1.33-2.86.51-4.6-.82-1.84-2.86-2.66-3.99-1.53-1.12 1.12-1.43 3.27-.41 5.11 1.03 1.73 2.87 1.94 3.89 1.02z" /></g></symbol><symbol viewBox="0 0 180 60" id="calipari-light"><g fill="#FFF"><path d="M32.21 12.92c1.02-2.15 1.23-3.99.61-6.03-.61-1.74-2.15-3.78-3.68-5.11-2.25-1.94-5.62-1.64-9.31-.2C12.07 4.63-.31 17.11 0 31.83c.1 5.62 2.86 10.02 5.93 11.66 3.78 2.05 9.51 2.15 14.42-1.43 2.86-2.15 7.26-7.26 5.62-11.97-.41-.82-1.12-.82-1.43-.1-5.21 10.23-12.57 14.83-17.07 11.36-3.37-2.76-3.99-12.99 2.05-23.11C15.75 7.9 26.28 2.28 28.23 4.43c1.64 1.64-.82 5.62-2.05 9.2-1.02 3.48.1 5.62 1.64 6.65.82.61 1.33.1 1.53-.41.82-2.05 1.84-4.7 2.86-6.95zM89.07 17.11c.82-.92 1.33-2.86.51-4.6-.82-1.84-2.86-2.66-3.99-1.53s-1.43 3.27-.41 5.11c.93 1.73 2.87 1.94 3.89 1.02z" /><path d="M177.84 33.68c-2.15 4.81-5.83 9.31-9 9.51-2.25.1-2.35-2.56-.72-6.55 1.43-3.48 4.3-8.18 5.73-11.25 1.64-3.48 1.12-6.44.1-7.47-.61-.61-1.02-.41-1.64.41-2.56 3.58-7.16 11.76-8.79 16.87-.2.72-.41 1.33-.61 1.94-2.15 3.68-4.7 6.34-6.95 6.24-2.15-.1-2.86-2.86-1.74-6.65 1.12-3.48 4.6-8.28 7.87-12.07 2.05-2.35.41-5.62-.92-7.06-.61-.72-1.12-.61-2.15.1-2.56 1.84-5.22 2.97-7.67 3.27 1.43-4.81 2.15-8.79 0-8.79-2.76.2-9.31 9.61-3.78 11.66-3.27 10.23-9.51 18.61-13.91 19.12-2.15.2-2.45-2.35-.82-6.34 1.53-3.58 5.22-8.9 6.55-12.07 1.53-3.48 1.02-6.34-.1-7.57-.61-.61-1.12-.41-1.64.41-.51.72-1.33 2.15-2.45 3.89 0-2.45-1.33-4.6-3.99-4.6-3.58 0-9 3.17-14.52 11.15a23.646 23.646 0 0 0-3.27 7.26c-2.35 4.3-6.34 8.59-12.48 8.79 2.56-1.64 5.22-4.91 7.26-9.51 2.56-5.62 3.99-11.86.82-15.34-2.97-3.07-7.06-1.12-10.12 1.43.1-1.12-.1-2.25-.41-3.07-.41-.82-.92-.92-1.64-.1-2.76 3.68-8.39 13.7-12.68 22.29-1.74 2.15-3.68 3.58-5.42 3.58-2.25.1-2.35-2.56-.72-6.55 1.43-3.48 4.3-8.18 5.73-11.25 1.64-3.48 1.12-6.44.1-7.47-.61-.61-1.02-.41-1.64.41-2.56 3.58-7.16 11.76-8.79 16.87v.2c-2.76 4.4-6.75 8.08-9.61 7.87-3.07-.31-2.35-6.03.41-12.78 6.14-3.99 13.91-12.27 16.06-20.86.82-3.27.41-5.73-1.64-7.57-.92-.82-1.94-.82-2.97.41-6.85 7.06-14.83 19.74-17.28 31.7-.1.41-.1.72-.2 1.02-2.45 4.19-5.73 8.08-8.39 8.28-2.35.1-2.35-2.86-.61-6.75 1.64-3.68 5.11-8.79 6.65-12.07 1.64-3.48 1.12-6.44.1-7.67-.51-.61-1.02-.51-1.64.41-.82 1.12-1.64 2.56-2.45 4.19.1-2.66-1.23-5.01-4.19-5.01-3.48 0-8.9 3.07-14.52 11.25-5.73 8.39-4.4 17.18 2.05 17.18 3.37 0 6.44-2.56 8.69-5.42 0 3.27 1.94 5.52 5.62 5.62 3.07.2 6.44-2.35 8.69-5.22.72 3.27 2.76 4.81 6.03 4.91 3.37.1 6.65-2.05 8.79-4.09.41 2.56 2.15 4.3 5.42 4.3 1.23 0 2.45-.31 3.78-.82-1.43 3.07-2.56 5.73-3.07 7.36-1.33 4.19-.92 6.14.1 7.57.41.61.82.51 1.12-.1 3.37-7.67 6.85-14.73 10.12-20.66.2 1.74.82 3.37 2.35 4.6 2.45 2.25 5.32 2.86 9.82 2.56 4.3-.31 8.39-2.05 11.15-5.62.61 2.86 2.45 4.81 5.42 4.81 3.37 0 6.55-2.66 8.79-5.62-.1 3.58 2.05 5.93 5.73 5.62 7.36-.61 13.7-10.94 16.98-20.76 2.15 0 5.11-.82 8.18-2.56-2.97 3.37-7.26 8.49-8.59 12.99-1.64 5.62.41 10.33 5.62 10.43 2.56.1 5.32-1.23 7.26-3.48.72 2.15 2.35 3.37 5.22 3.37 3.89 0 8.28-2.86 10.33-7.26.82-1.74 1.02-3.17.51-4.3-.5-.04-1.01-.04-1.42.48zM67.19 23.96C72 15.17 77.11 7.39 77.93 8.01c.92.61-2.97 11.66-12.48 19.33.61-1.13 1.13-2.15 1.74-3.38zm-31.4 18.92c-2.66-.1-1.84-6.14 1.84-12.07 3.89-6.14 8.79-10.64 11.04-10.43 2.05.2 1.33 4.5-2.97 12.07-3.46 6.03-7.04 10.53-9.91 10.43zm58.3-1.13c-1.94-1.64-1.64-5.73.1-10.12.82-1.43 1.64-2.66 2.35-3.99 3.27-5.32 7.47-8.79 9.2-7.98 1.74.82.92 6.55-1.74 12.07-3.37 6.75-7.77 11.76-9.91 10.02zm25.66.92c-2.66-.1-1.94-6.03 1.84-12.07 3.89-6.03 8.79-10.43 10.94-10.43 2.05.1 1.33 4.5-2.86 12.07-3.58 6.24-7.26 10.54-9.92 10.43zM179.07 17.11c.82-.92 1.33-2.86.51-4.6-.82-1.84-2.86-2.66-3.99-1.53-1.12 1.12-1.43 3.27-.41 5.11 1.03 1.73 2.87 1.94 3.89 1.02z" /></g></symbol><symbol viewBox="0 0 1280 1280" id="clock"><path fill="#FFF" d="M640 3c86 0 169.42 16.84 247.95 50.06 37.74 15.96 74.15 35.72 108.2 58.73a641.778 641.778 0 0 1 94.28 77.79c28.83 28.83 55 60.55 77.79 94.28 23.01 34.05 42.77 70.46 58.73 108.2C1260.16 470.58 1277 554 1277 640s-16.84 169.42-50.06 247.95c-15.96 37.74-35.72 74.15-58.73 108.2a641.778 641.778 0 0 1-77.79 94.28c-28.83 28.83-60.55 55-94.28 77.79-34.05 23.01-70.46 42.77-108.2 58.73C809.42 1260.16 726 1277 640 1277s-169.42-16.84-247.95-50.06c-37.74-15.96-74.15-35.72-108.2-58.73a641.778 641.778 0 0 1-94.28-77.79c-28.83-28.83-55-60.55-77.79-94.28-23.01-34.05-42.77-70.46-58.73-108.2C19.84 809.42 3 726 3 640s16.84-169.42 50.06-247.95c15.96-37.74 35.72-74.15 58.73-108.2a641.778 641.778 0 0 1 77.79-94.28c28.83-28.83 60.55-55 94.28-77.79 34.05-23.01 70.46-42.77 108.2-58.73C470.58 19.84 554 3 640 3m0-3C286.54 0 0 286.54 0 640s286.54 640 640 640 640-286.54 640-640S993.46 0 640 0zm0 14c84.52 0 166.5 16.55 243.66 49.19 74.54 31.53 141.49 76.67 198.99 134.16 57.5 57.49 102.63 124.44 134.16 198.99C1249.45 473.5 1266 555.48 1266 640c0 84.52-16.55 166.5-49.19 243.66-31.53 74.54-76.67 141.49-134.16 198.99-57.49 57.49-124.44 102.63-198.99 134.16C806.5 1249.45 724.52 1266 640 1266s-166.5-16.55-243.66-49.19c-74.54-31.53-141.49-76.67-198.99-134.16-57.5-57.49-102.63-124.44-134.16-198.99C30.55 806.5 14 724.52 14 640c0-84.52 16.55-166.5 49.19-243.66 31.53-74.54 76.67-141.49 134.16-198.99 57.5-57.5 124.44-102.64 198.99-134.16C473.5 30.55 555.48 14 640 14m0-1c-84.65 0-166.76 16.58-244.05 49.27-74.66 31.58-141.72 76.79-199.3 134.38-57.59 57.59-102.8 124.64-134.38 199.3C29.58 473.24 13 555.35 13 640s16.58 166.76 49.27 244.05c31.58 74.66 76.79 141.72 134.38 199.3 57.59 57.59 124.64 102.8 199.3 134.38C473.24 1250.42 555.35 1267 640 1267s166.76-16.58 244.05-49.27c74.66-31.58 141.72-76.79 199.3-134.38 57.59-57.59 102.8-124.64 134.38-199.3C1250.42 806.76 1267 724.65 1267 640s-16.58-166.76-49.27-244.05c-31.58-74.66-76.79-141.72-134.38-199.3-57.59-57.59-124.64-102.8-199.3-134.38C806.76 29.58 724.65 13 640 13zm0 27c81.02 0 159.59 15.86 233.53 47.13 71.44 30.22 135.61 73.49 190.73 128.6 55.12 55.12 98.39 119.29 128.6 190.73C1224.14 480.41 1240 558.98 1240 640c0 81.02-15.86 159.59-47.13 233.53-30.22 71.44-73.49 135.62-128.6 190.73-55.12 55.12-119.29 98.39-190.73 128.6C799.59 1224.14 721.02 1240 640 1240c-81.02 0-159.59-15.86-233.53-47.13-71.44-30.22-135.62-73.49-190.73-128.6-55.12-55.12-98.38-119.29-128.6-190.73C55.86 799.59 40 721.02 40 640c0-81.02 15.86-159.59 47.13-233.53 30.22-71.44 73.49-135.61 128.6-190.73 55.12-55.12 119.29-98.39 190.73-128.6C480.41 55.86 558.98 40 640 40m0-15c-83.04 0-163.58 16.26-239.38 48.32-73.23 30.97-139 75.32-195.49 131.81-56.49 56.49-100.84 122.26-131.81 195.49C41.26 476.42 25 556.96 25 640s16.26 163.58 48.32 239.38c30.97 73.23 75.32 139.01 131.81 195.49 56.49 56.49 122.26 100.84 195.49 131.81C476.42 1238.74 556.96 1255 640 1255c83.04 0 163.58-16.26 239.38-48.32 73.23-30.97 139.01-75.32 195.49-131.81 56.49-56.49 100.84-122.26 131.81-195.49C1238.74 803.58 1255 723.04 1255 640s-16.26-163.58-48.32-239.38c-30.97-73.23-75.32-139.01-131.81-195.49-56.49-56.49-122.26-100.84-195.49-131.81C803.58 41.26 723.04 25 640 25zm12.5 50h-25v175h25V75zM1205 652.5v-25h-175v25h175zM627.5 1205h25v-175h-25v175zM75 627.5v25h175v-25H75zm858.33-470.55l-21.65-12.5L824.17 296l21.65 12.5 87.51-151.55zm189.72 776.38l12.5-21.65L984 824.17l-12.5 21.65 151.55 87.51zm-776.38 189.72l21.65 12.5L455.83 984l-21.65-12.5-87.51 151.55zM156.95 346.67l-12.5 21.65L296 455.83l12.5-21.65-151.55-87.51zm978.6 21.66l-12.5-21.65-151.55 87.5 12.5 21.65 151.55-87.5zm-223.88 767.22l21.65-12.5-87.5-151.55-21.65 12.5 87.5 151.55zM144.45 911.67l12.5 21.65 151.55-87.5-12.5-21.65-151.55 87.5zm223.88-767.22l-21.65 12.5 87.5 151.55 21.65-12.5-87.5-151.55zm338.19-65.57l-14.92-1.57-6.27 59.67 14.92 1.57 6.27-59.67zm494.6 627.64l1.57-14.92-59.67-6.27-1.57 14.92 59.67 6.27zm-627.64 494.6l14.92 1.57 6.27-59.67-14.92-1.57-6.27 59.67zM78.88 573.48l-1.57 14.92 59.67 6.27 1.57-14.92-59.67-6.27zM764.81 88.91l-14.67-3.12-12.47 58.69 14.67 3.12 12.47-58.69zm426.28 675.9l3.12-14.67-58.69-12.47-3.12 14.67 58.69 12.47zm-675.9 426.28l14.67 3.12 12.47-58.69-14.67-3.12-12.47 58.69zM88.91 515.19l-3.12 14.67 58.69 12.47 3.12-14.67-58.69-12.47zm732.82-410.22l-14.27-4.64-18.54 57.06 14.27 4.64 18.54-57.06zm353.3 716.76l4.64-14.27-57.06-18.54-4.64 14.27 57.06 18.54zm-716.76 353.3l14.27 4.64 18.54-57.06-14.27-4.64-18.54 57.06zm-353.3-716.76l-4.64 14.27 57.06 18.54 4.64-14.27-57.06-18.54zM876.66 126.9l-13.7-6.1-24.4 54.81 13.7 6.1 24.4-54.81zm276.44 749.76l6.1-13.7-54.81-24.4-6.1 13.7 54.81 24.4zM403.34 1153.1l13.7 6.1 24.4-54.81-13.7-6.1-24.4 54.81zM126.9 403.34l-6.1 13.7 54.81 24.4 6.1-13.7-54.81-24.4zm851.27-216.03l-12.14-8.82-35.27 48.54 12.14 8.82 35.27-48.54zm114.52 790.86l8.82-12.14-48.54-35.27-8.82 12.14 48.54 35.27zm-790.86 114.52l12.14 8.82 35.27-48.54-12.14-8.82-35.27 48.54zM187.31 301.83l-8.82 12.14 48.54 35.27 8.82-12.14-48.54-35.27zm836.32-76.69l-11.15-10.04-40.15 44.59 11.15 10.04 40.15-44.59zm31.23 798.49l10.04-11.15-44.59-40.15-10.04 11.15 44.59 40.15zm-798.49 31.23l11.15 10.04 40.15-44.59-11.15-10.04-40.15 44.59zm-31.23-798.49l-10.04 11.15 44.59 40.15 10.04-11.15-44.59-40.15zm839.76 11.14l-10.04-11.15-44.59 40.15 10.04 11.15 44.59-40.15zm-52.41 797.39l11.15-10.04-40.15-44.59-11.15 10.04 40.15 44.59zm-797.39-52.41l10.04 11.15 44.59-40.15-10.04-11.15-44.59 40.15zm52.41-797.39l-11.15 10.04 40.15 44.59 11.15-10.04-40.15-44.59zm833.99 98.87l-8.82-12.14-48.54 35.27 8.82 12.14 48.54-35.27zM966.03 1101.5l12.14-8.82-35.27-48.54-12.14 8.82 35.27 48.54zM178.5 966.03l8.82 12.14 48.54-35.27-8.82-12.14-48.54 35.27zM313.97 178.5l-12.14 8.82 35.27 48.54 12.14-8.82-35.27-48.54zm845.23 238.55l-6.1-13.7-54.81 24.4 6.1 13.7 54.81-24.4zM862.95 1159.2l13.7-6.1-24.4-54.81-13.7 6.1 24.4 54.81zM120.8 862.95l6.1 13.7 54.81-24.4-6.1-13.7-54.81 24.4zM417.05 120.8l-13.7 6.1 24.4 54.81 13.7-6.1-24.4-54.81zm762.61 351.74l-4.64-14.27-57.06 18.54 4.64 14.27 57.06-18.54zm-372.2 707.12l14.27-4.64-18.54-57.06-14.27 4.64 18.54 57.06zm-707.12-372.2l4.64 14.27 57.06-18.54-4.64-14.27-57.06 18.54zm372.2-707.12l-14.27 4.64 18.54 57.06 14.27-4.64-18.54-57.06zm721.67 429.53l-3.12-14.67-58.69 12.47 3.12 14.67 58.69-12.47zm-444.08 664.34l14.67-3.12-12.47-58.69-14.67 3.12 12.47 58.69zM85.79 750.13l3.12 14.67 58.69-12.47-3.12-14.67-58.69 12.47zM529.87 85.79l-14.67 3.12 12.47 58.69 14.67-3.12-12.47-58.69zm672.82 502.61l-1.57-14.92-59.67 6.27 1.57 14.92 59.67-6.27zM691.6 1202.69l14.92-1.57-6.27-59.67-14.92 1.57 6.27 59.67zM77.31 691.6l1.57 14.92 59.67-6.27-1.57-14.92-59.67 6.27zM588.4 77.31l-14.92 1.57 6.27 59.67 14.92-1.57-6.27-59.67zM640 605c-19.33 0-35 15.67-35 35s15.67 35 35 35 35-15.67 35-35-15.67-35-35-35z" /><path class="arrow-large" fill="#FFF" d="M622.42 245.5h36v393h-36z" /><path class="arrow-small" fill="#FFF" d="M630 127.93h20v510h-20z" /></symbol><symbol viewBox="0 0 180 60" id="logo"><g class="logo-sign" fill="#2898C9" stroke="#2898C9" stroke-width=".3"><path d="M30 .5C21.1.5.5 21.1.5 30S21.1 59.5 30 59.5 59.5 38.8 59.5 30 38.8.5 30 .5zm6.9 55.3C29.2 57.9 6.3 44.7 4.2 36.9S15.3 6.3 23.1 4.2s30.6 11.1 32.7 18.9c2.1 7.8-11.1 30.6-18.9 32.7z" /><path d="M36 19.5c-3.1-1.8-14.8 1.3-16.5 4.4s1.3 14.7 4.4 16.5 14.8-1.3 16.5-4.4-1.2-14.7-4.4-16.5zm4.5 13.3c-.8 3.1-10.1 8.5-13.3 7.7-3.1-.8-8.5-10.1-7.7-13.3s10.1-8.5 13.3-7.7 8.5 10.2 7.7 13.3z" /><path d="M20.1 12.8c-5.2 2.9-10.2 21.9-7.3 27.1s21.9 10.2 27.1 7.3c5.2-3 10.2-21.9 7.3-27.1-3-5.2-22-10.3-27.1-7.3zm22.5 29.8c-3.8 3.8-21.4 3.8-25.2 0s-3.8-21.4 0-25.2 21.4-3.8 25.2 0 3.8 21.4 0 25.2z" /><path d="M30 23.1c-2.1 0-6.9 4.8-6.9 6.9s4.8 6.9 6.9 6.9 6.9-4.8 6.9-6.9-4.8-6.9-6.9-6.9zm1.6 12.8c-1.8.5-7-2.6-7.5-4.3s2.6-7 4.3-7.5 7 2.6 7.5 4.3c.5 1.8-2.5 7-4.3 7.5z" /></g><g class="logo-title" fill="#343434"><path d="M92.1 45.6h-1c-.2 0-.4-.1-.5-.4l-4.1-10H70.2l-4.1 10c-.1.3-.2.4-.5.4h-.9L77.8 14H79l13.1 31.6zm-6-11.3l-7.2-17.6c-.2-.4-.3-.9-.5-1.4-.1.5-.3.9-.5 1.4l-7.2 17.6h15.4zM108.5 44.9c1.6 0 3.1-.3 4.4-.9s2.4-1.4 3.3-2.4 1.6-2.2 2-3.5c.5-1.4.7-2.8.7-4.4V14h1.3v19.8c0 1.7-.3 3.3-.8 4.8s-1.3 2.8-2.3 3.9c-1 1.1-2.2 2-3.7 2.6-1.4.6-3 1-4.8 1s-3.4-.3-4.9-1c-1.4-.6-2.7-1.5-3.7-2.6s-1.8-2.4-2.3-3.9-.8-3.1-.8-4.8V14h1.2v19.7c0 1.6.2 3 .7 4.4.5 1.4 1.2 2.6 2 3.6.9 1 2 1.8 3.3 2.4s2.8.8 4.4.8zM150.8 45.6h-1c-.2 0-.3 0-.4-.1-.1 0-.3-.1-.4-.3l-11.2-13.7c-.1-.2-.2-.3-.4-.4-.1-.1-.3-.2-.4-.3-.2-.1-.3-.1-.6-.1H131v14.9h-1.2V14h7.6c3.4 0 6 .7 7.8 2s2.7 3.4 2.7 6.1c0 1.2-.2 2.4-.7 3.4-.5 1-1.1 1.9-2 2.6-.8.7-1.9 1.3-3.1 1.8s-2.5.7-4 .8c.3.2.5.4.8.7l11.9 14.2zM131 29.8h6c1.5 0 2.8-.2 4-.5 1.2-.4 2.2-.9 3-1.5.8-.7 1.5-1.5 1.9-2.4.4-.9.7-2 .7-3.2 0-2.4-.8-4.2-2.4-5.4-1.6-1.2-3.9-1.7-6.9-1.7H131v14.7zM179.8 45.6h-1c-.2 0-.4-.1-.5-.4l-4.1-10H158l-4.1 10c-.1.3-.2.4-.5.4h-.9L165.6 14h1.2l13 31.6zm-5.9-11.3l-7.2-17.6c-.2-.4-.3-.9-.5-1.4-.1.5-.3.9-.5 1.4l-7.2 17.6h15.4z" /></g></symbol></defs></svg>