<svg width="16" height="16" viewBox="0 0 16 16" fill="none" xmlns="http://www.w3.org/2000/svg">
<path d="M7.61335 14.5426C7.72935 14.6253 7.86468 14.6666 8.00002 14.6666C8.13535 14.6666 8.27068 14.6253 8.38668 14.5426C8.58935 14.3993 13.3527 10.9599 13.3334 6.66659C13.3334 3.72592 10.9407 1.33325 8.00002 1.33325C5.05935 1.33325 2.66668 3.72592 2.66668 6.66325C2.64735 10.9599 7.41069 14.3993 7.61335 14.5426ZM8.00002 3.99992C9.47335 3.99992 10.6667 5.19325 10.6667 6.66659C10.6667 8.13992 9.47335 9.33325 8.00002 9.33325C6.52668 9.33325 5.33335 8.13992 5.33335 6.66659C5.33335 5.19325 6.52668 3.99992 8.00002 3.99992Z" fill="url(#paint0_linear)"/>
<defs>
<linearGradient id="paint0_linear" x1="8.00002" y1="1.33325" x2="8.00002" y2="14.6666" gradientUnits="userSpaceOnUse">
<stop stop-color="#FF6895"/>
<stop offset="1" stop-color="#DF4875"/>
</linearGradient>
</defs>
</svg>
