<svg width="20" height="20" viewBox="0 0 20 20" fill="none" xmlns="http://www.w3.org/2000/svg">
<path d="M9.99996 1.66675C5.40496 1.66675 1.66663 5.40508 1.66663 10.0001C1.66663 14.5951 5.40496 18.3334 9.99996 18.3334C14.595 18.3334 18.3333 14.5951 18.3333 10.0001C18.3333 5.40508 14.595 1.66675 9.99996 1.66675ZM3.39079 10.8334H5.86913C5.98246 12.8159 6.42329 14.5651 7.16579 16.0251C6.15095 15.5467 5.27307 14.8202 4.61326 13.9128C3.95345 13.0054 3.53301 11.9463 3.39079 10.8334ZM5.85829 9.16675H3.39079C3.53461 8.04001 3.96351 6.96858 4.63692 6.05384C5.31032 5.1391 6.20597 4.41128 7.23913 3.93925C6.41996 5.51508 5.94663 7.30175 5.85829 9.16675ZM10.46 16.6434C10.3075 16.6534 10.1558 16.6667 9.99996 16.6667C9.84496 16.6667 9.69413 16.6534 9.54163 16.6442C8.37413 15.2292 7.68496 13.2467 7.53413 10.8334H12.6283C12.455 13.1442 11.6975 15.1634 10.46 16.6434ZM7.52496 9.16675C7.64079 7.00342 8.35329 4.97675 9.56746 3.35508C9.71079 3.34675 9.85413 3.33341 9.99996 3.33341C10.1491 3.33341 10.295 3.34675 10.4416 3.35591C11.3041 4.49258 12.4641 6.50591 12.6308 9.16675H7.52496ZM12.8841 16.0009C13.68 14.5059 14.1658 12.7501 14.2933 10.8334H16.6083C16.4677 11.937 16.0533 12.9878 15.4028 13.8904C14.7524 14.7929 13.8865 15.5184 12.8841 16.0009ZM14.3058 9.16675C14.203 7.34279 13.6927 5.56505 12.8125 3.96425C13.8326 4.44102 14.7156 5.16799 15.3794 6.07758C16.0432 6.98716 16.4662 8.04982 16.6091 9.16675H14.3058Z" fill="#EC4FAD"/>
</svg>
