<svg width="18" height="18" viewBox="0 0 18 18" fill="none" xmlns="http://www.w3.org/2000/svg">
<path d="M14.6587 11.2687V9.45294H16.4752V8.09169H14.6587V6.27594H13.2975V8.09169H11.4817V9.45294H13.2975V11.2687H14.6587ZM6.039 6.22644C6.88875 6.22644 7.461 6.58944 7.7865 6.89844L9.078 5.64594C8.292 4.91094 7.26675 4.46094 6.039 4.46094C3.5355 4.46019 1.5 6.49419 1.5 8.99994C1.5 11.5057 3.5355 13.5397 6.039 13.5397C8.65875 13.5397 10.398 11.6969 10.398 9.10494C10.398 8.72769 10.35 8.45994 10.2832 8.17494H6.03675V9.86319V9.86694H8.53575C8.41725 10.5802 7.7775 11.7839 6.039 11.7839C4.53675 11.7839 3.31125 10.5352 3.31125 9.00594C3.31125 7.47444 4.53675 6.22644 6.039 6.22644Z" fill="white"/>
</svg>
