<svg width="20" height="20" viewBox="0 0 20 20" fill="none" xmlns="http://www.w3.org/2000/svg">
<path d="M11.582 10C11.582 10.8737 10.8737 11.582 10 11.582C9.12631 11.582 8.41797 10.8737 8.41797 10C8.41797 9.12631 9.12631 8.41797 10 8.41797C10.8737 8.41797 11.582 9.12631 11.582 10Z" fill="#EC4FAD"/>
<path d="M12.6719 5.21875H7.32812C6.16495 5.21875 5.21875 6.16495 5.21875 7.32812V12.6719C5.21875 13.8351 6.16495 14.7812 7.32812 14.7812H12.6719C13.8351 14.7812 14.7812 13.8351 14.7812 12.6719V7.32812C14.7812 6.16495 13.8351 5.21875 12.6719 5.21875ZM10 12.6367C8.5461 12.6367 7.36328 11.4539 7.36328 10C7.36328 8.5461 8.5461 7.36328 10 7.36328C11.4539 7.36328 12.6367 8.5461 12.6367 10C12.6367 11.4539 11.4539 12.6367 10 12.6367ZM13.0234 7.50391C12.7322 7.50391 12.4961 7.26784 12.4961 6.97656C12.4961 6.68529 12.7322 6.44922 13.0234 6.44922C13.3147 6.44922 13.5508 6.68529 13.5508 6.97656C13.5508 7.26784 13.3147 7.50391 13.0234 7.50391Z" fill="#EC4FAD"/>
<path d="M14.2539 1H5.74609C3.12915 1 1 3.12915 1 5.74609V14.2539C1 16.8708 3.12915 19 5.74609 19H14.2539C16.8708 19 19 16.8708 19 14.2539V5.74609C19 3.12915 16.8708 1 14.2539 1ZM15.8359 12.6719C15.8359 14.4165 14.4165 15.8359 12.6719 15.8359H7.32812C5.5835 15.8359 4.16406 14.4165 4.16406 12.6719V7.32812C4.16406 5.5835 5.5835 4.16406 7.32812 4.16406H12.6719C14.4165 4.16406 15.8359 5.5835 15.8359 7.32812V12.6719Z" fill="#EC4FAD"/>
</svg>
