<svg width="106" height="34" viewBox="0 0 106 34" fill="none" xmlns="http://www.w3.org/2000/svg">
<path d="M13.5 26H1.8V5.99H13.14C15 5.99 16.44 6.5 17.46 7.52C18.48 8.52 18.99 9.71 18.99 11.09C18.99 12.29 18.66 13.3 18 14.12C17.36 14.94 16.55 15.46 15.57 15.68C16.65 15.84 17.55 16.39 18.27 17.33C19.01 18.25 19.38 19.33 19.38 20.57C19.38 22.11 18.87 23.4 17.85 24.44C16.83 25.48 15.38 26 13.5 26ZM11.97 13.67C12.49 13.67 12.91 13.52 13.23 13.22C13.57 12.9 13.74 12.49 13.74 11.99C13.74 11.51 13.57 11.12 13.23 10.82C12.91 10.5 12.49 10.34 11.97 10.34H6.96V13.67H11.97ZM12.15 21.65C12.77 21.65 13.25 21.49 13.59 21.17C13.95 20.83 14.13 20.39 14.13 19.85C14.13 19.33 13.95 18.9 13.59 18.56C13.25 18.22 12.77 18.05 12.15 18.05H6.96V21.65H12.15ZM26.2406 9.44C25.7406 9.96 25.1206 10.22 24.3806 10.22C23.6406 10.22 23.0106 9.96 22.4906 9.44C21.9906 8.92 21.7406 8.29 21.7406 7.55C21.7406 6.81 21.9906 6.19 22.4906 5.69C23.0106 5.17 23.6406 4.91 24.3806 4.91C25.1206 4.91 25.7406 5.17 26.2406 5.69C26.7606 6.19 27.0206 6.81 27.0206 7.55C27.0206 8.29 26.7606 8.92 26.2406 9.44ZM26.6906 26H22.0706V11.51H26.6906V26ZM36.0694 31.88C33.5494 31.88 31.4094 31.16 29.6494 29.72L31.6594 26.42C32.6994 27.54 34.1694 28.1 36.0694 28.1C37.0294 28.1 37.8794 27.85 38.6194 27.35C39.3794 26.85 39.7594 25.99 39.7594 24.77V23.66C38.5594 25.06 37.1294 25.76 35.4694 25.76C33.6094 25.76 32.0794 25.13 30.8794 23.87C29.6794 22.59 29.0794 20.78 29.0794 18.44C29.0794 16.12 29.6694 14.33 30.8494 13.07C32.0494 11.79 33.5894 11.15 35.4694 11.15C37.2094 11.15 38.6394 11.84 39.7594 13.22V11.51H44.3494V24.71C44.3494 25.85 44.1694 26.85 43.8094 27.71C43.4694 28.59 43.0294 29.28 42.4894 29.78C41.9494 30.3 41.2994 30.72 40.5394 31.04C39.7794 31.38 39.0394 31.6 38.3194 31.7C37.5994 31.82 36.8494 31.88 36.0694 31.88ZM36.9994 21.68C37.4994 21.68 38.0094 21.56 38.5294 21.32C39.0694 21.08 39.4794 20.77 39.7594 20.39V16.52C39.4794 16.14 39.0694 15.83 38.5294 15.59C38.0094 15.35 37.4994 15.23 36.9994 15.23C36.0594 15.23 35.2894 15.51 34.6894 16.07C34.1094 16.63 33.8194 17.42 33.8194 18.44C33.8194 19.48 34.1094 20.28 34.6894 20.84C35.2894 21.4 36.0594 21.68 36.9994 21.68Z" fill="url(#paint0_linear)"/>
<path d="M54.7547 26.36C51.6147 26.36 49.1747 25.3 47.4347 23.18L48.5447 21.89C50.2047 23.83 52.2847 24.8 54.7847 24.8C56.6447 24.8 57.9847 24.4 58.8047 23.6C59.6447 22.78 60.0647 21.85 60.0647 20.81C60.0647 20.01 59.8447 19.34 59.4047 18.8C58.9647 18.24 58.3847 17.81 57.6647 17.51C56.9647 17.21 56.1847 16.94 55.3247 16.7C54.4847 16.46 53.6347 16.21 52.7747 15.95C51.9347 15.67 51.1547 15.35 50.4347 14.99C49.7347 14.61 49.1647 14.09 48.7247 13.43C48.2847 12.75 48.0647 11.94 48.0647 11C48.0647 9.4 48.6947 8.11 49.9547 7.13C51.2147 6.15 52.7747 5.66 54.6347 5.66C57.4947 5.66 59.7547 6.6 61.4147 8.48L60.2747 9.74C58.8747 8.06 56.9647 7.22 54.5447 7.22C53.2047 7.22 52.0847 7.57 51.1847 8.27C50.3047 8.95 49.8647 9.83 49.8647 10.91C49.8647 11.59 50.0847 12.18 50.5247 12.68C50.9647 13.16 51.5347 13.54 52.2347 13.82C52.9547 14.08 53.7347 14.33 54.5747 14.57C55.4347 14.79 56.2847 15.05 57.1247 15.35C57.9847 15.63 58.7647 15.97 59.4647 16.37C60.1847 16.77 60.7647 17.34 61.2047 18.08C61.6447 18.8 61.8647 19.67 61.8647 20.69C61.8647 22.21 61.2947 23.54 60.1547 24.68C59.0147 25.8 57.2147 26.36 54.7547 26.36ZM76.6863 26H75.1263V24.29C73.8663 25.67 72.2263 26.36 70.2063 26.36C68.8663 26.36 67.6863 25.93 66.6663 25.07C65.6463 24.19 65.1363 23.01 65.1363 21.53C65.1363 20.03 65.6363 18.86 66.6363 18.02C67.6563 17.16 68.8463 16.73 70.2063 16.73C72.2463 16.73 73.8863 17.42 75.1263 18.8V15.86C75.1263 14.82 74.7563 14.01 74.0163 13.43C73.2763 12.83 72.3463 12.53 71.2263 12.53C69.4463 12.53 67.9363 13.24 66.6963 14.66L65.8263 13.58C67.3263 11.96 69.1863 11.15 71.4063 11.15C72.9663 11.15 74.2363 11.54 75.2163 12.32C76.1963 13.1 76.6863 14.26 76.6863 15.8V26ZM70.7463 25.13C72.6463 25.13 74.1063 24.47 75.1263 23.15V19.97C74.0863 18.63 72.6263 17.96 70.7463 17.96C69.5663 17.96 68.6063 18.3 67.8663 18.98C67.1463 19.66 66.7863 20.52 66.7863 21.56C66.7863 22.6 67.1463 23.46 67.8663 24.14C68.6063 24.8 69.5663 25.13 70.7463 25.13ZM83.1209 26H81.5609V5.99H83.1209V26ZM94.3969 26.36C92.2769 26.36 90.5369 25.65 89.1769 24.23C87.8169 22.81 87.1369 20.98 87.1369 18.74C87.1369 16.62 87.7969 14.83 89.1169 13.37C90.4569 11.89 92.1269 11.15 94.1269 11.15C96.2469 11.15 97.9169 11.89 99.1369 13.37C100.357 14.83 100.967 16.65 100.967 18.83V19.25H88.8469C88.9269 20.89 89.4769 22.26 90.4969 23.36C91.5169 24.46 92.8569 25.01 94.5169 25.01C96.4369 25.01 98.0169 24.34 99.2569 23L100.067 24.02C98.5669 25.58 96.6769 26.36 94.3969 26.36ZM99.3769 18.02C99.3569 16.62 98.8869 15.35 97.9669 14.21C97.0669 13.07 95.7769 12.5 94.0969 12.5C92.5169 12.5 91.2569 13.07 90.3169 14.21C89.3969 15.33 88.9069 16.6 88.8469 18.02H99.3769Z" fill="white"/>
<defs>
<linearGradient id="paint0_linear" x1="51.5" y1="0" x2="51.5" y2="34" gradientUnits="userSpaceOnUse">
<stop stop-color="#FF6895"/>
<stop offset="1" stop-color="#DF4875"/>
</linearGradient>
</defs>
</svg>
