<svg width="10" height="16" viewBox="0 0 10 16" fill="none" xmlns="http://www.w3.org/2000/svg">
<g clip-path="url(#clip0)">
<path d="M8.5967 10.4375C7.74045 10.9812 6.56232 11.1969 5.7842 11.2781L6.43732 11.9219L8.8217 14.3062C9.69357 15.2 8.27482 16.5969 7.39357 15.7344C6.7967 15.1281 5.9217 14.2531 5.0092 13.3406L2.62482 15.7312C1.74357 16.5906 0.324824 15.1813 1.20607 14.3031C1.81232 13.6969 2.67795 12.8219 3.59045 11.9187L4.2342 11.275C3.46545 11.1937 2.26857 10.9906 1.40295 10.4344C0.384199 9.77812 -0.0626762 9.39375 0.331074 8.59062C0.562324 8.13437 1.1967 7.75 2.03732 8.4125C2.03732 8.4125 3.1717 9.31563 5.00295 9.31563C6.8342 9.31563 7.96857 8.4125 7.96857 8.4125C8.8092 7.75313 9.44045 8.13437 9.67482 8.59062C10.0623 9.39375 9.61545 9.77812 8.5967 10.4375ZM0.946699 4.05312C0.946699 1.8125 2.76857 0 4.99982 0C7.23107 0 9.05295 1.8125 9.05295 4.05312C9.05295 6.28438 7.23107 8.09688 4.99982 8.09688C2.76857 8.09688 0.946699 6.28438 0.946699 4.05312ZM3.0092 4.05312C3.0092 5.15 3.90295 6.04375 4.99982 6.04375C6.0967 6.04375 6.99045 5.15 6.99045 4.05312C6.99045 2.94687 6.0967 2.05312 4.99982 2.05312C3.90295 2.05312 3.0092 2.94687 3.0092 4.05312Z" fill="white"/>
</g>
<defs>
<clipPath id="clip0">
<rect width="10" height="16" fill="white"/>
</clipPath>
</defs>
</svg>
