<svg width="18" height="18" viewBox="0 0 18 18" fill="none" xmlns="http://www.w3.org/2000/svg">
<path fill-rule="evenodd" clip-rule="evenodd" d="M0.75 9C0.75 13.5563 4.44365 17.25 9 17.25C13.5563 17.25 17.25 13.5563 17.25 9C17.25 4.44365 13.5563 0.75 9 0.75C4.44365 0.75 0.75 4.44365 0.75 9ZM15.75 9C15.75 12.728 12.728 15.75 9 15.75C5.27208 15.75 2.25 12.728 2.25 9C2.25 5.27208 5.27208 2.25 9 2.25C12.728 2.25 15.75 5.27208 15.75 9ZM9.00023 12.7487C9.4146 12.7487 9.75052 12.4129 9.75052 11.9987C9.75052 11.5846 9.4146 11.2487 9.00023 11.2487C8.58593 11.2487 8.25 11.5846 8.25 11.9987C8.25 12.4129 8.58593 12.7487 9.00023 12.7487ZM8.25 10.5H9.75C9.75 9.9012 9.84405 9.79147 10.4604 9.4833C11.5315 8.94772 12 8.4012 12 7.125C12 5.49047 10.7132 4.5 9 4.5C7.34314 4.5 6 5.84314 6 7.5H7.5C7.5 6.67157 8.17155 6 9 6C9.9579 6 10.5 6.41731 10.5 7.125C10.5 7.7238 10.406 7.83353 9.7896 8.1417C8.71845 8.67728 8.25 9.2238 8.25 10.5Z" fill="black" fill-opacity="0.3"/>
</svg>
