<svg width="20" height="20" viewBox="0 0 20 20" fill="none" xmlns="http://www.w3.org/2000/svg">
<path d="M8.33335 15.0001C9.8125 14.9998 11.249 14.5046 12.4142 13.5934L16.0775 17.2567L17.2559 16.0784L13.5925 12.4151C14.5042 11.2498 14.9997 9.81295 15 8.33341C15 4.65758 12.0092 1.66675 8.33335 1.66675C4.65752 1.66675 1.66669 4.65758 1.66669 8.33341C1.66669 12.0092 4.65752 15.0001 8.33335 15.0001ZM8.33335 3.33341C11.0909 3.33341 13.3334 5.57591 13.3334 8.33341C13.3334 11.0909 11.0909 13.3334 8.33335 13.3334C5.57585 13.3334 3.33335 11.0909 3.33335 8.33341C3.33335 5.57591 5.57585 3.33341 8.33335 3.33341Z" fill="white"/>
</svg>
