<svg width="20" height="20" viewBox="0 0 20 20" fill="none" xmlns="http://www.w3.org/2000/svg">
<path d="M10 1.25C4.47656 1.25 0 4.88672 0 9.375C0 11.3125 0.835938 13.0859 2.22656 14.4805C1.73828 16.4492 0.105469 18.2031 0.0859375 18.2227C0 18.3125 -0.0234375 18.4453 0.0273438 18.5625C0.078125 18.6797 0.1875 18.75 0.3125 18.75C2.90234 18.75 4.84375 17.5078 5.80469 16.7422C7.08203 17.2227 8.5 17.5 10 17.5C15.5234 17.5 20 13.8633 20 9.375C20 4.88672 15.5234 1.25 10 1.25ZM5.00781 11.875H4.53125C4.35938 11.875 4.21875 11.7344 4.21875 11.5625V10.9375C4.21875 10.7656 4.35938 10.625 4.53125 10.625H5.01172C5.24609 10.625 5.41797 10.4883 5.41797 10.3672C5.41797 10.3164 5.38672 10.2617 5.33594 10.2188L4.48047 9.48438C4.14844 9.20312 3.96094 8.80078 3.96094 8.38672C3.96094 7.55469 4.70312 6.87891 5.61719 6.87891H6.09375C6.26562 6.87891 6.40625 7.01953 6.40625 7.19141V7.81641C6.40625 7.98828 6.26562 8.12891 6.09375 8.12891H5.61328C5.37891 8.12891 5.20703 8.26562 5.20703 8.38672C5.20703 8.4375 5.23828 8.49219 5.28906 8.53516L6.14453 9.26953C6.47656 9.55078 6.66406 9.95312 6.66406 10.3672C6.66797 11.1992 5.92188 11.875 5.00781 11.875ZM12.5 11.5625C12.5 11.7344 12.3594 11.875 12.1875 11.875H11.5625C11.3906 11.875 11.25 11.7344 11.25 11.5625V8.89844L10.2812 11.0781C10.168 11.3086 9.83594 11.3086 9.72266 11.0781L8.75 8.89844V11.5625C8.75 11.7344 8.60938 11.875 8.4375 11.875H7.8125C7.64062 11.875 7.5 11.7344 7.5 11.5625V7.5C7.5 7.15625 7.78125 6.875 8.125 6.875H8.75C8.98828 6.875 9.20312 7.00781 9.30859 7.21875L10 8.60156L10.6914 7.21875C10.7969 7.00781 11.0156 6.875 11.25 6.875H11.875C12.2188 6.875 12.5 7.15625 12.5 7.5V11.5625ZM14.3867 11.875H13.9062C13.7344 11.875 13.5938 11.7344 13.5938 11.5625V10.9375C13.5938 10.7656 13.7344 10.625 13.9062 10.625H14.3867C14.6211 10.625 14.793 10.4883 14.793 10.3672C14.793 10.3164 14.7617 10.2617 14.7109 10.2188L13.8555 9.48438C13.5234 9.20312 13.3359 8.80078 13.3359 8.38672C13.3359 7.55469 14.0781 6.87891 14.9922 6.87891H15.4688C15.6406 6.87891 15.7812 7.01953 15.7812 7.19141V7.81641C15.7812 7.98828 15.6406 8.12891 15.4688 8.12891H14.9883C14.7539 8.12891 14.582 8.26562 14.582 8.38672C14.582 8.4375 14.6133 8.49219 14.6641 8.53516L15.5195 9.26953C15.8516 9.55078 16.0391 9.95312 16.0391 10.3672C16.043 11.1992 15.3008 11.875 14.3867 11.875Z" fill="url(#paint0_linear)"/>
<defs>
<linearGradient id="paint0_linear" x1="3.57628e-08" y1="4.75" x2="19.9137" y2="5.55999" gradientUnits="userSpaceOnUse">
<stop stop-color="#FF687A"/>
<stop offset="1" stop-color="#EC4FAD"/>
</linearGradient>
</defs>
</svg>
