<svg width="20" height="20" viewBox="0 0 20 20" fill="none" xmlns="http://www.w3.org/2000/svg">
<path d="M17.9825 5.71244C18.0991 5.32494 17.9825 5.04077 17.4308 5.04077H15.6033C15.1383 5.04077 14.9258 5.28661 14.8091 5.55661C14.8091 5.55661 13.88 7.82244 12.5633 9.2916C12.1383 9.7191 11.9441 9.8541 11.7125 9.8541C11.5966 9.8541 11.4283 9.71911 11.4283 9.3316V5.71244C11.4283 5.24744 11.2941 5.04077 10.9066 5.04077H8.03496C7.74496 5.04077 7.56996 5.25577 7.56996 5.46077C7.56996 5.90077 8.22829 6.00244 8.29579 7.24244V9.93244C8.29579 10.5216 8.18996 10.6291 7.95663 10.6291C7.33746 10.6291 5.83079 8.35494 4.93663 5.7516C4.76246 5.24577 4.58663 5.04161 4.11996 5.04161H2.29329C1.77079 5.04161 1.66663 5.28744 1.66663 5.55744C1.66663 6.04244 2.28579 8.44244 4.55079 11.6166C6.06079 13.7841 8.18663 14.9591 10.1233 14.9591C11.2841 14.9591 11.4275 14.6983 11.4275 14.2483V12.6099C11.4275 12.0883 11.5383 11.9833 11.9058 11.9833C12.1758 11.9833 12.6408 12.1199 13.725 13.1641C14.9633 14.4024 15.1683 14.9583 15.8641 14.9583H17.6908C18.2125 14.9583 18.4733 14.6974 18.3233 14.1824C18.1591 13.6699 17.5675 12.9241 16.7825 12.0416C16.3558 11.5383 15.7183 10.9966 15.5241 10.7258C15.2533 10.3766 15.3316 10.2224 15.5241 9.91244C15.525 9.91327 17.7508 6.77827 17.9825 5.71244Z" fill="#EC4FAD"/>
</svg>
