<svg width="18" height="18" viewBox="0 0 18 18" fill="none" xmlns="http://www.w3.org/2000/svg">
<path d="M16.1842 5.14112C16.2893 4.79237 16.1842 4.53662 15.6877 4.53662H14.043C13.6245 4.53662 13.4332 4.75787 13.3282 5.00087C13.3282 5.00087 12.492 7.04012 11.307 8.36237C10.9245 8.74712 10.7498 8.86862 10.5413 8.86862C10.437 8.86862 10.2855 8.74712 10.2855 8.39837V5.14112C10.2855 4.72262 10.1648 4.53662 9.816 4.53662H7.2315C6.9705 4.53662 6.813 4.73012 6.813 4.91462C6.813 5.31062 7.4055 5.40212 7.46625 6.51812V8.93912C7.46625 9.46937 7.371 9.56612 7.161 9.56612C6.60375 9.56612 5.24775 7.51937 4.443 5.17637C4.28625 4.72112 4.128 4.53737 3.708 4.53737H2.064C1.59375 4.53737 1.5 4.75862 1.5 5.00162C1.5 5.43812 2.05725 7.59812 4.09575 10.4549C5.45475 12.4056 7.368 13.4631 9.111 13.4631C10.1558 13.4631 10.2847 13.2284 10.2847 12.8234V11.3489C10.2847 10.8794 10.3845 10.7849 10.7153 10.7849C10.9583 10.7849 11.3767 10.9079 12.3525 11.8476C13.467 12.9621 13.6515 13.4624 14.2778 13.4624H15.9218C16.3912 13.4624 16.626 13.2276 16.491 12.7641C16.3433 12.3029 15.8108 11.6316 15.1042 10.8374C14.7203 10.3844 14.1465 9.89687 13.9718 9.65312C13.728 9.33887 13.7985 9.20012 13.9718 8.92112C13.9725 8.92187 15.9757 6.10037 16.1842 5.14112Z" fill="white"/>
</svg>
