<svg width="70" height="70" viewBox="0 0 70 70" fill="none" xmlns="http://www.w3.org/2000/svg">
<path d="M30.8782 20.7157C30.7006 20.4315 30.594 20.0762 30.594 19.7208C30.594 19.3655 30.7006 18.9036 30.8782 18.6193C31.8732 16.9848 33.5077 14.4975 35.0356 12.3655C36.4569 10.3401 35.7463 9.73605 35.2133 9.13199C34.6803 8.56347 34.2183 8.1726 33.7209 7.81727C32.4062 6.92895 31.6955 8.31473 31.6955 8.31473C31.6955 8.31473 26.2234 17.1269 25.3706 18.3706C25.0508 18.8325 24.9442 19.2589 24.9087 19.6853C24.9442 20.0762 25.0508 20.5381 25.3706 21C26.2234 22.2437 31.8732 31.3757 31.8732 31.3757C31.8732 31.3757 32.5128 32.5838 33.7209 31.5533C34.2539 31.0914 34.6447 30.7716 35.2133 30.2386C35.8173 29.7056 36.4924 28.9949 35.0356 27.0051C33.5077 24.8376 31.8732 22.3503 30.8782 20.7157Z" fill="#64B5F6"/>
<path d="M66.3756 20.7158C66.3756 20.6802 66.3756 20.6802 66.3756 20.7158C66.34 20.1472 66.1624 19.5076 65.7004 18.868C64.4923 17.1269 56.1776 3.69546 56.1776 3.69546C56.1776 3.69546 55.4669 2.3452 53.8324 3.87312C53.1573 4.51272 53.5837 4.08632 52.8375 4.90358C52.0558 5.75637 51.4162 7.49749 53.4771 10.3401C55.6801 13.396 57.9543 16.9137 59.3756 19.2234C59.6243 19.6142 59.7309 20.1472 59.7309 20.6447C59.7309 20.6447 59.7309 20.7158 59.7309 20.7513C59.7309 20.7868 59.7309 20.8224 59.7309 20.8579C59.7309 21.3554 59.6243 21.8883 59.3756 22.2792C57.9543 24.6244 55.6801 28.1066 53.4771 31.1625C51.4517 34.0051 52.0558 35.7462 52.8375 36.599C53.5837 37.4163 53.1573 36.9899 53.8324 37.6295C55.4669 39.1574 56.1776 37.8071 56.1776 37.8071C56.1776 37.8071 64.4923 24.3757 65.7004 22.6345C66.1268 21.9949 66.34 21.3554 66.3756 20.7868C66.3756 20.7513 66.3756 20.7513 66.3756 20.7158Z" fill="#64B5F6"/>
<path d="M20.5736 33.7208H21.2487L23.736 44.7716H23.7715L24.9086 39.2639L26.3299 32.9746H27.2893L24.1979 46.335H23.2385L21.8528 40.1878L20.9289 35.533L20.005 40.1167L18.5837 46.335H17.6243L14.533 32.9746H15.4923L16.9137 39.2639L18.0507 44.7716H18.0863L20.5736 33.7208Z" fill="#64B5F6"/>
<path d="M28.1421 42.6751V39.9036C28.1421 37.0609 29.1725 36.1371 31.3401 36.1371C33.5076 36.1371 34.538 36.9898 34.538 39.9391V42.6396C34.538 45.4467 33.5076 46.4416 31.3401 46.4416C29.1725 46.4772 28.1421 45.6244 28.1421 42.6751ZM33.6852 42.6396V39.9746C33.6852 37.8071 33.3299 36.9543 31.3401 36.9543C29.4568 36.9543 28.9949 37.8071 28.9949 39.9391V42.6041C28.9949 44.7716 29.3502 45.6599 31.3401 45.6599C33.2233 45.6599 33.6852 44.7716 33.6852 42.6396Z" fill="#64B5F6"/>
<path d="M37.6649 36.1371L37.7004 37.3452C38.1268 36.5279 39.1573 35.9239 40.4009 36.1371V36.9543C38.873 36.7056 37.7715 37.7005 37.7715 39.1218V46.2995H36.9187V36.1015L37.6649 36.1371Z" fill="#64B5F6"/>
<path d="M47.7919 46.335L44.1675 41.2893H43.2081V46.335H42.3198V33.0101H43.2081V40.4365H44.1675L47.401 36.137H48.4315L44.8782 40.8985L48.8579 46.3705L47.7919 46.335Z" fill="#64B5F6"/>
<path d="M5.29435 61.5787V61.4721V48.8934H4.33496V62.5381H10.1979V61.5787H5.40095H5.29435Z" fill="#64B5F6"/>
<path d="M21.0356 53.264C20.7869 53.0152 20.5381 52.802 20.2183 52.6599C19.8985 52.5178 19.5787 52.4467 19.2234 52.4467H18.9391C18.5483 52.4467 18.1574 52.5178 17.8376 52.6954C17.4823 52.8731 17.198 53.1218 16.9493 53.4061L16.7716 53.6548V53.335V48.6802H15.8833V59.731C15.8833 60.1218 15.9544 60.4772 16.0965 60.8325C16.2386 61.1878 16.4163 61.4721 16.665 61.7208C16.9138 61.9695 17.1625 62.1827 17.4823 62.3249C17.7665 62.467 18.1219 62.5381 18.4772 62.5381H19.1879C19.5432 62.5381 19.863 62.467 20.1828 62.3249C20.5026 62.1827 20.7869 61.9695 21.0001 61.7208C21.2488 61.4721 21.4264 61.1523 21.5686 60.8325C21.7107 60.4772 21.7818 60.1218 21.7818 59.731V55.2538C21.7818 54.8629 21.7107 54.5076 21.5686 54.1523C21.462 53.8325 21.2488 53.5482 21.0356 53.264ZM20.8935 59.9086C20.8935 60.1574 20.8579 60.4061 20.7513 60.6193C20.6803 60.8325 20.5381 61.0457 20.396 61.1878C20.2539 61.3655 20.0762 61.4721 19.863 61.5787C19.6498 61.6853 19.4366 61.7208 19.1879 61.7208H18.4772C18.2285 61.7208 18.0153 61.6853 17.8021 61.5787C17.5889 61.4721 17.4112 61.3655 17.2691 61.1878C17.127 61.0102 16.9848 60.8325 16.9138 60.6193C16.8427 60.4061 16.7716 60.1574 16.7716 59.9086V55.2893C16.7716 55.0406 16.8072 54.7919 16.9138 54.5787C16.9848 54.3655 17.127 54.1523 17.2691 54.0102C17.4112 53.8325 17.5889 53.7259 17.8021 53.6193C18.0153 53.5127 18.2285 53.4772 18.4772 53.4772H19.1879C19.4366 53.4772 19.6498 53.5127 19.863 53.6193C20.0762 53.7259 20.2539 53.8325 20.396 54.0102C20.5381 54.1878 20.6803 54.3655 20.7513 54.5787C20.8224 54.7919 20.8935 55.0406 20.8935 55.2893V59.9086Z" fill="#64B5F6"/>
<path d="M34.5734 53.264C34.3247 53.0152 34.076 52.802 33.7562 52.6599C33.4364 52.5178 33.1166 52.4467 32.7612 52.4467H32.1216C31.7663 52.4467 31.4465 52.5178 31.1267 52.6599C30.8069 52.802 30.5227 53.0152 30.3095 53.264C30.0607 53.5127 29.8831 53.8325 29.7409 54.1523C29.5988 54.5076 29.5277 54.863 29.5277 55.2538L30.4161 55.3959V55.1828C30.4161 54.934 30.4516 54.6853 30.5582 54.4721C30.6293 54.2589 30.7714 54.0457 30.9135 53.9036C31.0557 53.7259 31.2333 53.6193 31.4465 53.5127C31.6597 53.4061 31.8729 53.3706 32.1216 53.3706H32.7612C33.01 53.3706 33.2232 53.4061 33.4364 53.5127C33.6496 53.6193 33.8272 53.7259 33.9694 53.9036C34.1115 54.0812 34.2536 54.2589 34.3247 54.4721C34.3958 54.6853 34.4668 54.934 34.4668 55.1828V56.7107V56.8173H34.3602H32.015C31.6597 56.8173 31.3399 56.8883 31.0201 57.0305C30.7003 57.1726 30.4161 57.3858 30.2029 57.6345C29.9541 57.8833 29.7765 58.2031 29.6343 58.5229C29.4922 58.8782 29.4211 59.2335 29.4211 59.6244V59.731C29.4211 60.1218 29.4922 60.4772 29.6343 60.8325C29.7765 61.1878 29.9541 61.4721 30.2029 61.7208C30.4516 61.9695 30.7003 62.1827 31.0201 62.3249C31.3399 62.467 31.6597 62.5381 32.015 62.5381H32.2993C32.7257 62.5381 33.1166 62.4315 33.4719 62.2183C33.8272 62.0051 34.147 61.7208 34.3958 61.401L34.5023 61.2234L34.5734 61.4366L34.8577 62.3604H35.3196V55.2894C35.3196 54.8985 35.2485 54.5432 35.1064 54.1878C34.9998 53.8325 34.8221 53.5482 34.5734 53.264ZM34.4668 57.7411V59.8731C34.4668 60.1218 34.4313 60.3706 34.3247 60.5838C34.2536 60.797 34.1115 61.0102 33.9694 61.1523C33.8272 61.33 33.6496 61.4366 33.4364 61.5432C33.2232 61.6498 33.01 61.6853 32.7612 61.6853H32.015C31.7663 61.6853 31.5531 61.6498 31.3399 61.5432C31.1267 61.4366 30.9491 61.33 30.8069 61.1523C30.6648 60.9746 30.5227 60.797 30.4516 60.5838C30.3805 60.3706 30.3095 60.1218 30.3095 59.8731V59.4467C30.3095 59.198 30.345 58.9492 30.4516 58.7361C30.5227 58.5229 30.6648 58.3097 30.8069 58.1675C30.9491 57.9899 31.1267 57.8833 31.3399 57.7767C31.5531 57.6701 31.7663 57.6345 32.015 57.6345H34.3602H34.4668V57.7411Z" fill="#64B5F6"/>
<path d="M47.9695 52.3401L45.6243 59.7665L45.5888 59.8731L45.4822 60.1929L45.3756 59.8731L45.3401 59.7665L42.9594 52.3401H42.071L45.0203 61.2589V61.2944V61.33L43.4213 65.9848H44.2741L48.8578 52.3401H47.9695Z" fill="#64B5F6"/>
<path d="M13.3602 49.7462C13.3602 50.5635 12.0811 50.5635 12.0811 49.7462C12.0811 48.9645 13.3602 48.9289 13.3602 49.7462ZM13.147 62.5025H12.2943V52.3046H13.147V62.5025Z" fill="#64B5F6"/>
<path d="M24.9796 52.3756L25.0151 53.5837C25.4415 52.7665 26.472 52.1624 27.7156 52.3756V53.1929C26.1877 52.9441 25.0862 53.9391 25.0862 55.3604V62.5381H24.2334V52.3401L24.9796 52.3756Z" fill="#64B5F6"/>
<path d="M38.482 52.3756L38.5176 53.5837C38.944 52.7665 39.9744 52.1624 41.2181 52.3756V53.1929C39.6902 52.9441 38.5886 53.9391 38.5886 55.3604V62.5381H37.7358V52.3401L38.482 52.3756Z" fill="#64B5F6"/>
</svg>
