<svg width="30" height="30" viewBox="0 0 30 30" fill="none" xmlns="http://www.w3.org/2000/svg">
<path d="M26.1775 1.11575C24.6831 -0.371917 22.2644 -0.371917 20.7703 1.11575L2.63997 19.2071C2.41922 19.4274 2.355 19.7597 2.47777 20.0465L0.0268375 29.0368C-0.0454508 29.3018 0.0307207 29.5853 0.226078 29.7787C0.421734 29.9722 0.706406 30.0458 0.971363 29.9716L9.91329 27.4636C10.1998 27.5838 10.5304 27.5188 10.75 27.2997L28.8803 9.20835C30.3732 7.7183 30.3732 5.30274 28.8803 3.81269L26.1775 1.11575ZM19.708 4.33341L25.6231 10.3002L10.209 25.6809L4.26197 19.7466L19.708 4.33341ZM3.70696 21.3511L8.61031 26.2436L1.85674 28.1382L3.70696 21.3511ZM27.7986 8.12933L26.7048 9.22087L20.7897 3.2544L21.8516 2.19506C22.7483 1.30234 24.1995 1.30234 25.0962 2.19506L27.7989 4.892C28.6933 5.7865 28.6933 7.23483 27.7986 8.12933Z" fill="#64B5F6"/>
</svg>
