<svg id="Layer_1" height="512" viewBox="0 0 512 512" width="512" xmlns="http://www.w3.org/2000/svg" data-name="Layer 1"><path d="m266.4 207.39a225.113 225.113 0 0 1 70.96 14.82 242.74 242.74 0 0 0 -10.82 39.87l-2.5 13.78a9.4 9.4 0 0 0 4.78 9.76 16.6 16.6 0 0 0 11.78 1.63l3.34-.77a33.908 33.908 0 0 1 34.74 12.67 33.277 33.277 0 0 1 2.62 35.77l-21.49 39.58a15.517 15.517 0 0 0 -.95 12.71l2.72 7.43a11.285 11.285 0 0 0 8.13 7.17 32.008 32.008 0 0 1 21.89 17.42l3.45 7.15a9.16 9.16 0 0 0 11.42 4.64l18.56-6.77a25.429 25.429 0 0 0 16.66-22.25l.19-2.95a32.207 32.207 0 0 1 19.85-27.83l4.29-1.78c.41-.18.82-.36 1.23-.55l5.1-2.47a227.972 227.972 0 0 1 .55 132.66l-.1.33c-51.01 8.34-55.26-29.21-108.56-29.17-54.09.05-54.07 29.16-108.16 29.21s-54.12-29.06-108.21-29.01c-53.32.05-57.51 37.67-108.55 29.36a225.594 225.594 0 0 1 -7.3-32.3 228.865 228.865 0 0 1 -2.51-33.85 225.445 225.445 0 0 1 41.24-130.34l1.42.17a30.009 30.009 0 0 0 10.22-.5l4.75-1.06a27.414 27.414 0 0 1 7.71-.7 29.269 29.269 0 0 1 22.09 12.34 61.485 61.485 0 0 0 9.05 10.41l10.84 9.73a19.549 19.549 0 0 0 8.43 4.46l1.53.39a26.6 26.6 0 0 1 19.07 18.11l7.62 25.2a24.831 24.831 0 0 0 4.39 8.32l21.97 27.44a27.011 27.011 0 0 1 5.43 11.78l6.61 34.61a5.076 5.076 0 0 0 1.69 3 4.926 4.926 0 0 0 5.2.72 9.8 9.8 0 0 0 5.78-8.29 35.291 35.291 0 0 1 7.7-19.47l6-7.57a13.1 13.1 0 0 0 2.31-4.52l5.85-20.73a30.62 30.62 0 0 1 10.28-15.55l18.52-14.94a6.708 6.708 0 0 0 2.49-4.09 6.4 6.4 0 0 0 -1.55-5.36l-12.91-14.49c-.77-.87-1.51-1.76-2.21-2.69l-9.92-13.16c-5.5-7.31-14.15-12.02-23.29-11.54a4.611 4.611 0 0 1 -2.54-.62l-19.91-11.32a19.107 19.107 0 0 0 -18.77-.01l-10.22 5.78a20.32 20.32 0 0 1 -26.93-6.41l-10.27-15.39a22.068 22.068 0 0 1 -.69-23.64 24.612 24.612 0 0 1 23.67-11.76l15.12 1.56a13.568 13.568 0 0 0 13.31-6.77 23.782 23.782 0 0 1 23.33-12.21l6.61.68a13.4 13.4 0 0 0 12.15-5.38l5.63-7.67a19.687 19.687 0 0 0 .03-23.25l-.75-1.03q9.1-.735 18.41-.74c3.49 0 6.95.08 10.4.24z" fill="#49bdff"/><path d="m472.35 366.42-5.1 2.47c-.41.19-.82.37-1.23.55l-4.29 1.78a32.207 32.207 0 0 0 -19.85 27.83l-.19 2.95a25.429 25.429 0 0 1 -16.66 22.25l-18.56 6.77a9.16 9.16 0 0 1 -11.42-4.64l-3.45-7.15a32.008 32.008 0 0 0 -21.89-17.42 11.285 11.285 0 0 1 -8.13-7.17l-2.72-7.43a15.517 15.517 0 0 1 .95-12.71l21.49-39.58a33.277 33.277 0 0 0 -2.62-35.77 33.908 33.908 0 0 0 -34.74-12.67l-3.34.77a16.6 16.6 0 0 1 -11.78-1.63 9.4 9.4 0 0 1 -4.78-9.76l2.5-13.78a242.74 242.74 0 0 1 10.82-39.87 227.094 227.094 0 0 1 134.99 144.21z" fill="#9be147"/><path d="m391.67 38.55-31.19 41.59 31.19 41.58h-124.75v-83.17z" fill="#e5f5fd"/><path d="m276.15 367.21a6.4 6.4 0 0 1 1.55 5.36 6.708 6.708 0 0 1 -2.49 4.09l-18.52 14.94a30.62 30.62 0 0 0 -10.28 15.55l-5.85 20.73a13.1 13.1 0 0 1 -2.31 4.52l-6 7.57a35.291 35.291 0 0 0 -7.7 19.47 9.8 9.8 0 0 1 -5.78 8.29 4.926 4.926 0 0 1 -5.2-.72 5.076 5.076 0 0 1 -1.69-3l-6.61-34.61a27.011 27.011 0 0 0 -5.43-11.78l-21.97-27.44a24.831 24.831 0 0 1 -4.39-8.32l-7.62-25.2a26.6 26.6 0 0 0 -19.07-18.11l-1.53-.39a19.549 19.549 0 0 1 -8.43-4.46l-10.84-9.73a61.485 61.485 0 0 1 -9.05-10.41 29.269 29.269 0 0 0 -22.09-12.34 27.414 27.414 0 0 0 -7.71.7l-4.75 1.06a30.009 30.009 0 0 1 -10.22.5l-1.42-.17a226.243 226.243 0 0 1 166.84-95.42l.75 1.03a19.687 19.687 0 0 1 -.03 23.25l-5.63 7.67a13.4 13.4 0 0 1 -12.15 5.38l-6.61-.68a23.782 23.782 0 0 0 -23.33 12.21 13.568 13.568 0 0 1 -13.31 6.77l-15.12-1.56a24.612 24.612 0 0 0 -23.67 11.76 22.068 22.068 0 0 0 .69 23.64l10.27 15.39a20.32 20.32 0 0 0 26.93 6.41l10.22-5.78a19.107 19.107 0 0 1 18.77.01l19.91 11.32a4.611 4.611 0 0 0 2.54.62c9.14-.48 17.79 4.23 23.29 11.54l9.92 13.16c.7.93 1.44 1.82 2.21 2.69z" fill="#9be147"/><path d="m72.02 467.5a228.865 228.865 0 0 1 -2.51-33.85 225.422 225.422 0 0 1 39.453-127.75 29.118 29.118 0 0 0 -14.113-4.68 27.414 27.414 0 0 0 -7.71.7l-4.75 1.06a30.009 30.009 0 0 1 -10.22.5l-1.42-.17a225.445 225.445 0 0 0 -41.24 130.34 228.865 228.865 0 0 0 2.51 33.85 225.594 225.594 0 0 0 7.3 32.3c16.949 2.76 28.73.452 38.861-3.861a226.015 226.015 0 0 1 -6.161-28.439z" fill="#3090fc"/><path d="m238.34 208.92-.75-1.03a226.243 226.243 0 0 0 -166.84 95.42l1.42.17a30.009 30.009 0 0 0 10.22-.5l4.75-1.06a27.414 27.414 0 0 1 7.71-.7 29.128 29.128 0 0 1 14.118 4.669l1.782-2.579a226.693 226.693 0 0 1 130.212-89.41 19.614 19.614 0 0 0 -2.622-4.98z" fill="#81c83d"/><path d="m266.92 38.55h30v83.17h-30z" fill="#a6b7d0"/><path d="m272 201.7v-73.7h119.672a6.168 6.168 0 0 0 4.8-9.81l-28.49-38.02 28.49-37.89a5.751 5.751 0 0 0 -4.8-9.28h-119.672v-7.362c4-1.99 5.4-5.473 5.4-9.44a11.126 11.126 0 0 0 -11.1-11.198 11.251 11.251 0 0 0 -6.3 20.638v175.562c-1.333-.022-2.664-.049-4-.049a232.676 232.676 0 0 0 -222.419 300.4 6 6 0 0 0 4.775 4.172 92.229 92.229 0 0 0 14.837 1.268c19.877 0 32.474-7.742 44.727-15.06 12.916-7.713 26.27-15.931 49.951-15.931h.129c25.444 0 37.925 6.695 51.133 13.786 13.937 7.483 28.345 15.214 56.81 15.214h.144c28.558 0 42.976-7.7 56.921-15.219 13.218-7.128 25.702-13.781 51.236-13.781h.1c23.623 0 36.972 8.058 49.88 15.732 15.056 8.951 30.628 18.268 59.547 13.539a5.966 5.966 0 0 0 4.777-4.164l.1-.312a232.558 232.558 0 0 0 -206.648-299.095zm1-156.7h106.672l-23.989 31.76a6.039 6.039 0 0 0 0 7.228l23.989 32.012h-106.672zm-172.912 232.735a218.828 218.828 0 0 1 134.474-63.553 13.628 13.628 0 0 1 -1.091 14.434l-5.63 7.672a7.389 7.389 0 0 1 -6.7 2.968l-6.61-.687a29.779 29.779 0 0 0 -29.2 15.285 7.606 7.606 0 0 1 -7.439 3.695l-15.114-1.558a30.49 30.49 0 0 0 -29.418 14.614 28.109 28.109 0 0 0 .827 30.082l10.268 15.4a26.435 26.435 0 0 0 34.886 8.3l10.213-5.785a13.078 13.078 0 0 1 12.849.008l19.91 11.317a10.627 10.627 0 0 0 5.823 1.4c6.784-.371 13.592 3.062 18.185 9.155l9.918 13.158c.791 1.05 1.639 2.084 2.521 3.073l12.915 14.487a.414.414 0 0 1 .108.391 1.073 1.073 0 0 1 -.336.4l-18.525 14.932a36.5 36.5 0 0 0 -12.281 18.589l-5.86 20.734a6.908 6.908 0 0 1 -1.239 2.421l-6 7.572a41.1 41.1 0 0 0 -8.981 22.794 3.8 3.8 0 0 1 -1.068 2.4l-6.335-33.164a33.073 33.073 0 0 0 -6.639-14.4l-21.969-27.439a18.734 18.734 0 0 1 -3.322-6.311l-7.628-25.2a32.756 32.756 0 0 0 -23.361-22.2l-1.539-.383a13.767 13.767 0 0 1 -5.86-3.105l-10.84-9.731a55.618 55.618 0 0 1 -8.16-9.4 35.1 35.1 0 0 0 -26.614-14.871 33.634 33.634 0 0 0 -9.394.836l-2.612.585a224.291 224.291 0 0 1 16.868-18.915zm368.518 97.116a222.556 222.556 0 0 1 -.479 119.17c-22.193 2.73-34.1-4.474-47.773-12.6-13.638-8.112-29.087-17.421-56.012-17.421h-.11c-28.557 0-42.976 7.7-56.92 15.219-13.218 7.128-25.703 13.781-51.237 13.781h-.132c-25.444 0-37.923-6.694-51.131-13.786-13.936-7.483-28.344-15.214-56.812-15.214h-.143c-26.984 0-42.448 9.48-56.091 17.629-13.666 8.165-25.566 15.382-47.783 12.671a220.914 220.914 0 0 1 29.648-184.668 35.914 35.914 0 0 0 10.07-.8l4.748-1.064a21.7 21.7 0 0 1 6.035-.568 23.156 23.156 0 0 1 17.552 9.821 67.425 67.425 0 0 0 9.943 11.4l10.845 9.735a25.8 25.8 0 0 0 10.988 5.822l1.539.383a20.7 20.7 0 0 1 14.764 14.03l7.627 25.194a30.686 30.686 0 0 0 5.441 10.336l21.969 27.436a21.014 21.014 0 0 1 4.22 9.155l6.612 34.613a11.1 11.1 0 0 0 3.766 6.5 10.908 10.908 0 0 0 11.467 1.576 15.777 15.777 0 0 0 9.318-13.371 29.163 29.163 0 0 1 6.414-16.148l6-7.572a18.811 18.811 0 0 0 3.381-6.612l5.859-20.731a24.562 24.562 0 0 1 8.265-12.51l18.526-14.934a12.7 12.7 0 0 0 4.644-7.8 12.432 12.432 0 0 0 -2.99-10.324l-12.914-14.485c-.662-.743-1.3-1.519-1.894-2.31l-9.92-13.16c-6.9-9.158-17.348-14.346-27.957-13.936l-19.614-11.149a25.141 25.141 0 0 0 -24.694-.016l-10.212 5.785a14.386 14.386 0 0 1 -18.988-4.518l-10.267-15.395a16.067 16.067 0 0 1 -.559-17.189 18.586 18.586 0 0 1 17.932-8.913l15.116 1.559a19.482 19.482 0 0 0 19.182-9.844 17.821 17.821 0 0 1 17.455-9.137l6.61.687a19.439 19.439 0 0 0 17.606-7.8l5.631-7.673a25.585 25.585 0 0 0 3.952-22.37c2.958-.116 5.924-.191 8.9-.191a220.716 220.716 0 0 1 73.762 12.589 249.072 249.072 0 0 0 -9.123 35.266l-2.513 13.842a15.379 15.379 0 0 0 7.805 16.031 22.645 22.645 0 0 0 16.02 2.228l3.346-.774a27.913 27.913 0 0 1 28.586 10.426 27.259 27.259 0 0 1 2.147 29.3l-21.5 39.585a21.506 21.506 0 0 0 -1.305 17.625l2.711 7.435a17.263 17.263 0 0 0 12.445 10.96 26.09 26.09 0 0 1 17.82 14.183l3.449 7.151a15.137 15.137 0 0 0 18.875 7.667l18.567-6.772a31.413 31.413 0 0 0 20.584-27.5l.188-2.948a26.236 26.236 0 0 1 16.18-22.673l4.3-1.793c.088-.039.177-.083.263-.121zm-3.958-11.373c-.311.15-.627.292-.932.419l-4.292 1.79a38.16 38.16 0 0 0 -23.536 32.983l-.189 2.948a19.414 19.414 0 0 1 -12.72 17l-18.568 6.772a3.171 3.171 0 0 1 -3.954-1.607l-3.449-7.151a38.028 38.028 0 0 0 -25.968-20.671 5.311 5.311 0 0 1 -3.827-3.371l-2.712-7.434a9.5 9.5 0 0 1 .577-7.787l21.5-39.584a39.291 39.291 0 0 0 -3.1-42.236 39.922 39.922 0 0 0 -40.886-14.911l-3.345.773a10.649 10.649 0 0 1 -7.54-1.043 3.4 3.4 0 0 1 -1.763-3.431l2.5-13.781a237.38 237.38 0 0 1 8.527-33.089 221.72 221.72 0 0 1 124.1 133.213z" fill="#284268"/></svg>