<?xml version="1.0"?>
<svg xmlns="http://www.w3.org/2000/svg" id="Capa_1" enable-background="new 0 0 511.833 511.833" height="512px" viewBox="0 0 511.833 511.833" width="512px" class=""><g transform="matrix(6.12323e-17 1 1 -6.12323e-17 -5.68434e-14 3.13407e-14)"><g><path d="m429.763 136.384c-39.676-15.271-97.561-14.452-141.035 33.653l-13.165 14.567 39.327 47.742 18.302-22.127c13.447-14.878 30.521-22.743 49.377-22.743 15.366 0 31.902 5.707 44.234 15.265 11.45 8.875 25.1 25.305 25.1 53.174 0 27.868-13.649 44.298-25.101 53.173-12.331 9.558-28.867 15.265-44.233 15.265-18.855 0-35.93-7.864-49.377-22.743l-110.086-131.572c-43.474-48.104-101.359-48.925-141.036-33.653-39.675 15.271-82.07 54.692-82.07 119.53 0 64.839 42.396 104.261 82.071 119.533 39.674 15.27 97.56 14.451 141.035-33.653l13.269-14.683-39.403-47.661-18.329 22.16c-13.447 14.879-30.521 22.743-49.377 22.743-15.366 0-31.902-5.707-44.234-15.265-11.451-8.875-25.1-25.305-25.1-53.173 0-27.869 13.649-44.299 25.1-53.174 12.331-9.559 28.868-15.265 44.234-15.265 18.856 0 35.93 7.864 49.377 22.743l110.085 131.575c43.475 48.104 101.36 48.926 141.035 33.653 39.676-15.272 82.07-54.693 82.07-119.532s-42.394-104.26-82.07-119.532z" data-original="#000000" class="active-path" data-old_color="#000000" fill="#000000"/><path d="m129.265 217.477c-10.94 0-39.334 6.906-39.334 38.439 0 12.617 4.535 22.53 13.479 29.462 8.538 6.618 18.954 8.976 25.855 8.976 10.336 0 19.142-4.132 26.911-12.628l21.337-25.81-21.337-25.809c-7.768-8.498-16.574-12.63-26.911-12.63z" data-original="#000000" class="active-path" data-old_color="#000000" fill="#000000"/><path d="m382.568 294.354c10.94 0 39.334-6.905 39.334-38.438 0-12.618-4.535-22.53-13.479-29.463-8.538-6.618-18.955-8.976-25.855-8.976-10.336 0-19.143 4.132-26.912 12.629l-21.337 25.81 21.337 25.81c7.77 8.496 16.576 12.628 26.912 12.628z" data-original="#000000" class="active-path" data-old_color="#000000" fill="#000000"/></g></g> </svg>
