<?xml version="1.0" encoding="iso-8859-1"?>
<!-- Generator: Adobe Illustrator 19.0.0, SVG Export Plug-In . SVG Version: 6.00 Build 0)  -->
<svg version="1.1" id="Capa_1" xmlns="http://www.w3.org/2000/svg" xmlns:xlink="http://www.w3.org/1999/xlink" x="0px" y="0px"
	 viewBox="0 0 497.32 497.32" style="enable-background:new 0 0 497.32 497.32;" xml:space="preserve">
<g>
	<path style="fill:#455A64;" d="M364.946,486.72c-17.7,0-28.1-23.2-30.1-28c-2.2-5.5,0.5-11.7,6-13.8c5.3-2.1,11.4,0.4,13.7,5.7
		c2.1,5.9,5.8,11.1,10.7,14.9c5.3-7.1,9.2-15,11.6-23.5c4.1-49.3,2.4-108.3-7.7-118.4c-4.1-4.2-4-11,0.3-15.1c4.1-4,10.7-4,14.8,0
		c21.8,21.8,16,110,13.8,136.5c-0.1,0.7-0.2,1.4-0.4,2.1c-3.4,11.2-13.2,37.6-30.4,39.5
		C366.546,486.72,365.746,486.72,364.946,486.72z"/>
	<path style="fill:#455A64;" d="M355.446,465.52c-5.9,0.1-10.7-4.7-10.8-10.5c0-1.5,0.3-3,0.9-4.4c6-11.5,18.3-18.3,31.2-17.3
		c5.9,0,10.7,4.8,10.7,10.7c0,5.9-4.8,10.7-10.7,10.7c-9,0-11.4,4.1-11.7,4.5C363.446,463.02,359.646,465.62,355.446,465.52z"/>
	<path style="fill:#455A64;" d="M132.546,486.72c-0.8,0-1.5,0-2.3-0.1c-17.1-1.9-26.9-28.2-30.4-39.5c-0.2-0.7-0.4-1.4-0.5-2.1
		c-2.3-26.5-8.1-114.6,13.8-136.5c4.1-4.2,10.8-4.4,15.1-0.3c4.2,4.1,4.4,10.8,0.3,15.1c-0.1,0.1-0.2,0.2-0.3,0.3
		c-10.1,10.1-11.8,69.1-7.7,118.4c2.3,8.8,6.6,16.9,12.7,23.6c4.1-4.3,7.4-9.4,9.6-14.9c2.4-5.4,8.7-7.8,14.1-5.3
		c5.1,2.3,7.6,8.2,5.6,13.5C160.646,463.52,150.146,486.72,132.546,486.72z"/>
	<path style="fill:#455A64;" d="M142.046,465.32c-4.2,0-7.9-2.4-9.7-6.2c-0.4-0.7-3-4.5-11.6-4.5c-5.9,0-10.7-4.8-10.7-10.7
		c0-5.9,4.8-10.7,10.7-10.7c12.9-1,25.2,5.8,31.2,17.2c2.3,5.4-0.3,11.7-5.7,13.9l0,0C144.846,465.02,143.446,465.32,142.046,465.32
		z"/>
</g>
<g>
	<path style="fill:#FFC107;" d="M166.146,352.62c-1.4-5-2.3-10.2-2.8-15.4c0-3.2-1.4-6.2-3.9-8.2l-9.3-7.6
		c-29.4-24.3-29.4-24.8-29.4-37.5c0-5.4-3.9-10-9.3-10.7c-5.3-0.9-10.4,2.5-11.7,7.7c33.4,47-2.3,70,10.9,102.4
		c1.5,4.3,5.5,7.2,10.1,7.2h32c5,0.1,9.7-2.1,12.8-5.9C171.946,376.72,169.146,365.02,166.146,352.62z"/>
	<path style="fill:#FFC107;" d="M397.946,282.32c-0.6-5.6-5.5-9.6-11.1-9c-0.1,0-0.2,0-0.3,0c-5.6,0.4-9.9,5.1-9.8,10.7
		c0,12.8,0,13.2-29.5,37.5l-9.3,7.6c-2.4,2-3.9,5-3.9,8.2c-0.4,5.2-1.3,10.4-2.7,15.4c-2.9,12.4-5.6,24.2,0.7,32
		c3.1,3.8,7.9,6,12.8,5.8h31.9c4.3,0,8.1-2.5,9.8-6.4C398.746,351.62,364.046,322.22,397.946,282.32z"/>
</g>
<g>
	<path style="fill:#455A64;" d="M131.446,49.32c-5.9,0-10.7-4.8-10.6-10.7c0-2.8,1.1-5.5,3.1-7.5c31.6-29.9,77.5-39.2,118.2-23.7
		c5.5,2.2,8.1,8.4,6,13.9c-2.2,5.5-8.4,8.1-13.9,6c-32.7-12.4-69.7-5-95.2,19C136.946,48.22,134.246,49.32,131.446,49.32z"/>
	<path style="fill:#455A64;" d="M366.046,49.32c-2.8,0-5.5-1.1-7.6-3.1c-25.5-23.9-62.4-31.3-95.2-19c-5.5,2.2-11.6-0.5-13.8-6
		c-2.2-5.4,0.5-11.6,5.9-13.8c40.7-15.5,86.6-6.3,118.2,23.7c4.2,4.2,4.2,10.9,0,15.1C371.646,48.22,368.946,49.32,366.046,49.32
		L366.046,49.32z"/>
</g>
<path style="fill:#FFC107;" d="M248.746,6.62c-70.7,0.1-127.9,57.3-128,128c0,2.7,0,5.4,0.3,8.1c-0.2,0.9-0.3,1.7-0.3,2.6v128
	c0,3.2,1.5,6.3,3.9,8.3c35.7,27.5,79,43.3,124.1,45.1c45-1.8,88.4-17.5,124.1-45.1c2.5-2,3.9-5.1,3.9-8.3v-138.7
	C376.646,63.92,319.446,6.62,248.746,6.62z"/>
<path style="fill:#455A64;" d="M248.746,283.92c-21.9-1.8-42.8-10.1-60-23.7c-4.5-3.8-5.1-10.5-1.3-15c3.7-4.3,10.1-5.1,14.6-1.6
	c13.5,10.6,29.7,17.1,46.7,19c17.1-1.7,33.3-8.3,46.7-19c4.6-3.7,11.3-2.9,15,1.7s2.9,11.3-1.7,15l0,0
	C291.446,273.92,270.646,282.12,248.746,283.92z"/>
<path style="fill:#2196F3;" d="M376.746,369.22h-27c0.5-3.5,1.6-8.4,2.4-11.8c1.2-4.9,2.2-9.9,2.9-14.9l5.7-4.7
	c30.1-24.7,37.3-30.6,37.3-53.9c0.6-7.9-2.9-15.5-9.4-20c-8.4-4.3-18.3-4.5-26.8-0.5c-0.9,0.4-1.7,0.9-2.5,1.5
	c-31.9,24.3-70.5,38.4-110.6,40.3c-40.1-2-78.7-16-110.6-40.3c-0.8-0.6-1.6-1.1-2.5-1.5c-8.5-4-18.5-3.8-26.8,0.5
	c-6.5,4.5-10,12.1-9.4,20c0,23.3,7.2,29.2,37.3,54l5.7,4.7c0.7,5,1.7,10,3,14.9c0.8,3.3,1.9,8.2,2.4,11.7h-27.1
	c-5.9,0-10.7,4.8-10.7,10.7c0,0.9,0.1,1.7,0.3,2.6c8.4,35.6,36.4,63.2,72.1,71c-2.1,3.7-4.7,7.1-7.6,10.1
	c-6.7,5.9-10.8,14.1-11.4,23c0,5.9,4.8,10.7,10.7,10.7h64c4.9,0,9.2-3.3,10.3-8.1l0.3-1.3l0.3,1.3c1.2,4.8,5.5,8.1,10.3,8.1h64
	c5.9,0,10.7-4.8,10.7-10.7c-0.7-8.8-4.8-17-11.4-22.9c-3-3-5.5-6.4-7.6-10.1c35.7-7.8,63.7-35.5,72.1-71.1
	c1.4-5.7-2.1-11.5-7.8-12.9C378.446,369.32,377.646,369.22,376.746,369.22z"/>
<path style="fill:#1976D2;" d="M307.946,328.42c-3-2-6.8-2.4-10.2-0.9c-15.6,6.2-32.3,9.5-49.1,9.8c-16.8-0.3-33.4-3.6-49.1-9.8
	c-5.4-2.4-11.7,0.1-14,5.5c-0.6,1.4-0.9,2.9-0.9,4.4c0.3,25.8,14,74.7,64,74.7s63.7-48.8,64-74.7
	C312.846,333.82,311.046,330.42,307.946,328.42z"/>
<circle style="fill:#ECEFF1;" cx="211.446" cy="134.62" r="37.3"/>
<path style="fill:#455A64;" d="M211.446,182.62c-26.5,0-48-21.5-48-48s21.5-48,48-48s48,21.5,48,48
	C259.346,161.12,237.946,182.52,211.446,182.62z M211.446,107.92c-14.7,0-26.7,11.9-26.7,26.7c0,14.7,11.9,26.7,26.7,26.7
	s26.7-11.9,26.7-26.7C238.046,119.82,226.146,107.92,211.446,107.92L211.446,107.92z"/>
<circle style="fill:#ECEFF1;" cx="286.046" cy="134.62" r="37.3"/>
<g>
	<path style="fill:#455A64;" d="M286.046,182.62c-26.5,0-48-21.5-48-48s21.5-48,48-48s48,21.5,48,48l0,0
		C334.046,161.12,312.546,182.52,286.046,182.62z M286.046,107.92c-14.7,0-26.7,11.9-26.7,26.7s11.9,26.7,26.7,26.7
		c14.7,0,26.6-11.9,26.7-26.6C312.746,119.92,300.846,107.92,286.046,107.92L286.046,107.92L286.046,107.92z"/>
	<path style="fill:#455A64;" d="M376.746,155.92c-1.3,0-2.5-0.2-3.7-0.7c-16-5.8-32.7-9.1-49.6-10c-5.9,0-10.7-4.8-10.7-10.7
		s4.8-10.7,10.7-10.7c19.5,0.9,38.7,4.7,57.1,11.3c5.5,2,8.4,8.2,6.3,13.7C385.246,153.22,381.246,156.02,376.746,155.92z"/>
	<path style="fill:#455A64;" d="M120.746,155.92c-5.9,0-10.7-4.8-10.7-10.7c0-4.5,2.8-8.5,7-10c18.3-6.6,37.5-10.4,57-11.3
		c5.9,0,10.7,4.8,10.7,10.7s-4.8,10.7-10.7,10.7c-17,1-33.7,4.3-49.7,10C123.246,155.72,121.946,155.92,120.746,155.92z"/>
</g>
<g>
	<circle style="fill:#607D8B;" cx="216.746" cy="145.32" r="10.7"/>
	<circle style="fill:#607D8B;" cx="291.446" cy="145.32" r="10.7"/>
</g>
<path d="M248.746,326.62c-45-1.8-88.4-17.5-124.1-45.1c-2.5-2-3.9-5.1-3.9-8.3v-128c0-0.9,0.1-1.7,0.3-2.5c-0.2-2.7-0.3-5.4-0.3-8.1
	c0-70.7,57.3-128,128-128s128,57.3,128,128v138.7c0,3.2-1.5,6.3-3.9,8.3C337.146,309.12,293.746,324.82,248.746,326.62z
	 M142.046,267.92c31.1,22.6,68.2,35.6,106.7,37.3c38.5-1.7,75.6-14.7,106.7-37.3v-133.3c0-58.9-47.8-106.6-106.7-106.6
	s-106.7,47.7-106.7,106.6c0,3.3,0.2,6.5,0.5,9.7c0.1,1.4,0,2.9-0.5,4.3V267.92z"/>
<path d="M211.446,182.62c-26.5,0-48-21.5-48-48s21.5-48,48-48s48,21.5,48,48C259.346,161.12,237.946,182.52,211.446,182.62z
	 M211.446,107.92c-14.7,0-26.7,11.9-26.7,26.7c0,14.7,11.9,26.7,26.7,26.7s26.7-11.9,26.7-26.7
	C238.046,119.82,226.146,107.92,211.446,107.92L211.446,107.92z"/>
<path d="M286.046,182.62c-26.5,0-48-21.5-48-48s21.5-48,48-48s48,21.5,48,48c0,0,0,0,0,0.1
	C334.046,161.12,312.546,182.52,286.046,182.62z M286.046,107.92c-14.7,0-26.7,11.9-26.7,26.7c0,14.7,11.9,26.7,26.7,26.7
	c14.7,0,26.6-11.9,26.7-26.6C312.746,119.92,300.846,107.92,286.046,107.92L286.046,107.92L286.046,107.92z"/>
<path d="M376.746,156.02c-1.3,0-2.5-0.2-3.7-0.7c-16-5.8-32.7-9.1-49.6-10c-5.9,0-10.7-4.8-10.7-10.7s4.8-10.7,10.7-10.7
	c19.5,0.9,38.7,4.7,57.1,11.3c5.5,2,8.4,8.2,6.3,13.7C385.246,153.22,381.246,156.02,376.746,156.02z"/>
<path d="M120.746,156.02c-5.9,0-10.7-4.8-10.7-10.7c0-4.5,2.8-8.5,7-10c18.3-6.6,37.5-10.4,57-11.3c5.9,0,10.7,4.8,10.7,10.7
	s-4.8,10.7-10.7,10.7c-17,1-33.7,4.3-49.7,10C123.246,155.72,121.946,156.02,120.746,156.02z"/>
<path d="M248.746,283.92c-21.9-1.8-42.7-10.1-60-23.7c-4.6-3.7-5.4-10.4-1.7-15s10.4-5.4,15-1.7c13.5,10.6,29.6,17.2,46.7,19
	c17-1.9,33.2-8.4,46.7-19c4.6-3.7,11.3-2.9,15,1.7s2.9,11.3-1.7,15C291.446,273.92,270.646,282.12,248.746,283.92z"/>
<path d="M132.546,486.72c-0.8,0-1.5,0-2.3-0.1c-17.1-1.9-26.9-28.2-30.4-39.5c-0.2-0.7-0.4-1.4-0.5-2.1
	c-2.3-26.5-8.1-114.6,13.8-136.5c4.1-4.2,10.8-4.4,15.1-0.3c4.2,4.1,4.4,10.8,0.3,15.1c-0.1,0.1-0.2,0.2-0.3,0.3
	c-10.1,10.1-11.8,69.1-7.7,118.4c2.3,8.8,6.6,16.9,12.7,23.6c4.1-4.3,7.4-9.4,9.6-14.9c2.4-5.4,8.7-7.8,14.1-5.3
	c5.1,2.3,7.6,8.2,5.6,13.5C160.646,463.52,150.146,486.72,132.546,486.72z"/>
<path d="M142.046,465.32c-4.2,0-7.9-2.4-9.7-6.2c-0.4-0.7-3-4.5-11.6-4.5c-5.9,0-10.7-4.8-10.7-10.7c0-5.9,4.8-10.7,10.7-10.7
	c12.9-1,25.2,5.8,31.2,17.2c2.3,5.4-0.3,11.7-5.7,13.9l0,0C144.846,465.02,143.446,465.32,142.046,465.32z"/>
<path d="M323.446,497.32h-64c-4.9,0-9.2-3.3-10.3-8.1l-0.3-1.3l-0.3,1.3c-1.2,4.8-5.5,8.1-10.3,8.1h-64c-5.9,0-10.7-4.8-10.7-10.7
	c0.7-8.9,4.8-17.2,11.5-23c2.9-3,5.5-6.3,7.6-9.9c-35.7-7.9-63.7-35.5-72-71.1c-1.4-5.7,2-11.5,7.7-12.9c0.9-0.2,1.7-0.3,2.6-0.3
	h27.1c-0.5-3.5-1.6-8.5-2.4-11.8c-1.3-4.9-2.2-9.9-2.9-14.9l-5.2-4.3c-30.6-25-37.8-30.9-37.8-54.3c-0.6-7.9,3-15.5,9.4-20.1
	c8.4-4.3,18.3-4.4,26.8-0.4c5.5,2.2,8.1,8.4,5.9,13.9c-2.2,5.5-8.4,8.1-13.9,5.9c-0.2-0.1-0.4-0.2-0.6-0.3c-2-0.9-4.2-1.4-6.4-1.3
	c0,0.3,0,1,0,2.1c0,12.8,0,13.3,30,37.9l8.8,7.2c2.5,2,3.9,5.1,3.9,8.3c0.4,5.2,1.3,10.3,2.7,15.3c2.9,12.4,5.7,24.2-0.6,32.1
	c-3.1,3.8-7.9,6-12.8,5.9h-16.7c9.4,24.9,32.8,41.8,59.4,42.7c5.9,0,10.7,4.8,10.7,10.7c-0.2,12-5.1,23.5-13.7,32h37.1l8.6-34.6
	c2.2-5.7,8.6-8.6,14.3-6.4c2.9,1.1,5.3,3.4,6.4,6.4l8.6,34.6h37.3c-8.6-8.5-13.5-20-13.7-32c0-5.9,4.8-10.7,10.7-10.7
	c26.6-0.9,50.1-17.7,59.4-42.7h-16.6c-4.9,0.1-9.7-2-12.8-5.9c-6.3-7.9-3.5-19.7-0.6-32.1c1.4-5,2.3-10.2,2.8-15.3
	c0-3.2,1.4-6.2,3.9-8.2l8.8-7.2c30-24.6,30-25.1,30-37.9c0.1-0.9-0.1-1.9-0.4-2.8c-0.3,0.3-3.8,0.9-6.1,1.9
	c-5.4,2.4-11.7-0.1-14-5.5c-2.4-5.4,0.1-11.7,5.5-14c8.5-4.1,18.4-3.9,26.8,0.4c6.5,4.5,10.1,12.2,9.4,20.1
	c0,23.5-7.3,29.3-37.8,54.4l-5.2,4.3c-0.7,5-1.7,10-2.9,14.9c-0.8,3.3-1.9,8.3-2.4,11.8h27c5.9,0,10.7,4.8,10.7,10.7
	c0,0.9-0.1,1.7-0.3,2.6c-8.3,35.6-36.4,63.2-72,71.1c2.1,3.6,4.6,7,7.6,9.9c6.7,5.9,10.8,14.1,11.5,23
	C334.046,492.52,329.346,497.32,323.446,497.32z"/>
<path d="M364.946,486.72c-17.7,0-28.1-23.2-30.1-28c-2.2-5.5,0.5-11.7,6-13.8c5.3-2.1,11.4,0.4,13.7,5.7c2.1,5.9,5.8,11.1,10.7,14.9
	c5.3-7.1,9.2-15,11.6-23.5c4.1-49.3,2.4-108.3-7.7-118.4c-4.1-4.2-4-11,0.3-15.1c4.1-4,10.7-4,14.8,0c21.8,21.8,16,110,13.8,136.5
	c-0.1,0.7-0.2,1.4-0.4,2.1c-3.4,11.2-13.2,37.6-30.4,39.5C366.546,486.72,365.746,486.72,364.946,486.72z"/>
<path d="M355.446,465.52c-5.9,0.1-10.7-4.7-10.8-10.5c0-1.5,0.3-3,0.9-4.4c6-11.5,18.3-18.3,31.2-17.3c5.9,0,10.7,4.8,10.7,10.7
	c0,5.9-4.8,10.7-10.7,10.7c-9,0-11.4,4.1-11.7,4.5C363.446,463.02,359.646,465.62,355.446,465.52z"/>
<path d="M248.746,411.92c-50,0-63.7-48.8-64-74.7c-0.1-5.9,4.7-10.7,10.5-10.8c1.5,0,3,0.3,4.4,0.9c15.6,6.2,32.3,9.5,49.1,9.8
	c16.8-0.3,33.4-3.6,49.1-9.8c5.4-2.4,11.7,0.1,14,5.5c0.6,1.4,0.9,2.9,0.9,4.4C312.446,363.22,298.746,411.92,248.746,411.92z
	 M208.246,352.82c2.2,21,19.5,37.1,40.5,37.8c21.1-0.7,38.4-16.8,40.5-37.8c-13.2,3.7-26.8,5.7-40.5,5.8
	C235.046,358.52,221.446,356.52,208.246,352.82z"/>
<path d="M131.446,49.32c-5.9,0-10.7-4.8-10.7-10.7c0-2.8,1.1-5.5,3.1-7.5c31.6-29.9,77.5-39.2,118.2-23.7c5.4,2.4,7.8,8.7,5.5,14.1
	c-2.3,5.1-8.1,7.6-13.4,5.7c-32.8-12.3-69.7-5-95.2,19C136.946,48.22,134.246,49.32,131.446,49.32z"/>
<path d="M366.046,49.32c-2.8,0-5.5-1.1-7.6-3.1c-25.6-23.7-62.4-31-95.1-19c-5.5,2.2-11.7-0.5-13.9-5.9c-2.2-5.5,0.5-11.7,5.9-13.9
	c40.7-15.5,86.6-6.3,118.2,23.7c4.2,4.2,4.2,10.9,0,15.1C371.646,48.22,368.946,49.32,366.046,49.32L366.046,49.32z"/>
<circle cx="216.746" cy="145.32" r="10.7"/>
<circle cx="291.446" cy="145.32" r="10.7"/>
<g>
</g>
<g>
</g>
<g>
</g>
<g>
</g>
<g>
</g>
<g>
</g>
<g>
</g>
<g>
</g>
<g>
</g>
<g>
</g>
<g>
</g>
<g>
</g>
<g>
</g>
<g>
</g>
<g>
</g>
</svg>
