<svg height="512" viewBox="0 0 60 60" width="512" xmlns="http://www.w3.org/2000/svg"><g id="023---Avocado" fill="none"><path id="Shape" d="m29.94 5.32v52.13c-3.0120162 1.187043-6.2494941 1.692472-9.48 1.48-9.9638882-.7939375-18.01483239-8.448797-19.31-18.36-.75830384-6.1527918 1.25265803-12.3248697 5.49-16.85 1.18082843-1.2246153 1.94993136-2.7872926 2.2-4.47 1.37-10.31 6-17.1 11.66-18.11 2.91-.59 6.5.49 9.44 4.18z" fill="#549414"/><path id="Shape" d="m28 7-1.06 50.45c-2.0639588.8461852-4.2533298 1.3462267-6.48 1.48-9-.31-18.08-7.94-19.31-18.36-.75830384-6.1527918 1.25265803-12.3248697 5.49-16.85 1.18082843-1.2246153 1.94993136-2.7872926 2.2-4.47 1.37-10.31 6-17.1 11.66-18.11 2.39.42 5.65 3.56 7.5 5.86z" fill="#60a917"/><path id="Shape" d="m53.31 23.67c-1.1475213-1.1887686-1.8956053-2.7059109-2.14-4.34-1.48-11.25-6.8-18.33-13.17-18.33-.4929432.0075034-.9845023.05431856-1.47.14-5.69 1-10.32 7.79-11.69 18.11-.2500686 1.6827074-1.0191716 3.2453847-2.2 4.47-7.7996592 8.3367517-7.5103504 21.3774157.6513566 29.3600625s21.2055798 7.9826468 29.3672868 0 8.4510158-21.0233108.6513566-29.3600625z" fill="#90ac00"/><path id="Shape" d="m50.31 23.67c-1.1475213-1.1887686-1.8956053-2.7059109-2.14-4.34-1.36-10.33-5.96-17.15-11.64-18.19-5.69 1-10.32 7.79-11.69 18.11-.2500686 1.6827074-1.0191716 3.2453847-2.2 4.47-5.480278 5.9074159-7.0970342 14.4297122-4.1610336 21.9337718s9.9069314 12.6663807 17.9410336 13.2862282c8.0743349-.5661751 15.1045333-5.7223983 18.0704574-13.2535823 2.9659242-7.5311839 1.3395434-16.0965335-4.1804574-22.0164177z" fill="#a4c400"/><path id="Shape" d="m55 38c.0211463 7.6271712-5.0401904 14.3348438-12.380389 16.4074439-7.3401986 2.0726-15.1623465-.9972541-19.1335293-7.5090813-3.9711829-6.5118273-3.1192377-14.8715038 2.0839183-20.4483626 1.7494737-1.8296107 2.8794188-4.1629646 3.23-6.67 1-7.67 4.08-13.31 7.71-14.52.4802966-.162948.982901-.25065078 1.49-.26 4.27 0 8.06 6.11 9.21 14.85.3438085 2.4686992 1.4605167 4.7651274 3.19 6.56 2.9563827 3.1346293 4.6021157 7.2811608 4.6 11.59z" fill="#fec108"/><path id="Shape" d="m36.47 54.93c-6.4454778-.5983146-11.9918283-4.8051971-14.3056071-10.8507403-2.3137788-6.0455431-.9934091-12.8804892 3.4056071-17.6292597 1.7494737-1.8296107 2.8794188-4.1629646 3.23-6.67 1-7.67 4.08-13.31 7.71-14.52 3.63 1.24 6.69 6.89 7.7 14.59.3438085 2.4686992 1.4605167 4.7651274 3.19 6.56 4.4255076 4.7510066 5.7583317 11.6078888 3.434799 17.6707575-2.3235328 6.0628686-7.8975856 10.2727605-14.364799 10.8492425z" fill="#ffdc00"/><path id="Shape" d="m45 39c0 5.22-4.23 8.89-8.5 7.82-3.15-.82-5.5-3.99-5.5-7.82s2.35-9.28 5.5-10.67c4.57-2 8.5 5.72 8.5 10.67z" fill="#6d4122"/><path id="Shape" d="m42 39c0 3.83-2.35 7-5.5 7.82-3.15-.82-5.5-3.99-5.5-7.82s2.35-9.28 5.5-10.67c3.15 1.39 5.5 6.84 5.5 10.67z" fill="#91562d"/><g id="Layer_2" fill="#000"><path id="Shape" d="m52.17 19.2c-1.54-11.66-7.1-19.2-14.17-19.2-3.0946355.07981995-6.0068718 1.48133364-8 3.85-1.9923202-2.36970743-4.905055-3.77146104-8-3.85-7 0-12.61 7.5-14.15 19.12-.2292571 1.4630285-.90713147 2.8187772-1.94 3.88-6.99265022 7.510125-7.86460507 18.8570673-2.10150922 27.3474065 5.76309586 8.4903392 16.63043512 11.8688511 26.19150922 8.1425935 9.5471658 3.645923 20.3479042.2373049 26.072767-8.2283359 5.7248628-8.4656409 4.8662115-19.7588842-2.072767-27.2616641-.9967604-1.0410928-1.6375008-2.371592-1.83-3.8zm-50 21.25c-.71845321-5.8550672 1.18452031-11.7286681 5.2-16.05 1.31935369-1.3707514 2.17914997-3.1183048 2.46-5 1.38-10.4 6.27-17.4 12.17-17.4 2.6307042.10681828 5.0827126 1.36022944 6.71 3.43-2.39 3.32-4.11 8-4.86 13.69-.2273415 1.4636404-.9054925 2.8199426-1.94 3.88-4.6188813 4.9621457-6.6921423 11.7766131-5.6194998 18.4703708 1.0726424 6.6937577 5.1713866 12.5191911 11.1094998 15.7896292-5.6135743 1.5772541-11.6359507.6261462-16.4902514-2.604289-4.85430073-3.2304353-8.05708555-8.4184786-8.7697486-14.205711zm49.2 12.46c-12.1 10.8-31.37 3.4-33.23-12.46-.7078252-5.8611675 1.2100633-11.7356158 5.24-16.05 1.3140611-1.3732153 2.1700258-3.1200821 2.45-5 3.08-23.18 21.29-23.2 24.35.07.2699095 1.8405728 1.1091409 3.5505067 2.4 4.89 3.6742023 3.9251046 5.6133529 9.1642124 5.3800598 14.535598s-2.6193805 10.4226372-6.6200598 14.014402z"/><path id="Shape" d="m15.4 10.59c-.2426524-.1075849-.5181224-.1142845-.7657178-.0186226-.2475955.0956619-.4470007.2858359-.5542822.5286226-1.1421752 2.7299641-1.9059082 5.6032151-2.27 8.54-.332093 2.3074766-1.3816269 4.4520243-3 6.13-.2.22-.4.44-.59.67-.24969263.2997233-.30229758.7172862-.13474592 1.0695743s.52466939.5749829.91474592.5704257c.59 0 .78-.4 1.29-.94 1.8908688-1.9880985 3.1173934-4.5145294 3.51-7.23.3281504-2.7528624 1.0418052-5.4458994 2.12-8 .106972-.2438981.1122338-.5203917.014619-.7681832-.0976149-.2477915-.2900413-.446408-.534619-.5518168z"/><path id="Shape" d="m17.88 8c.67 0 .7-.46 1.74-1.18.3140985-.19494287.4950264-.5472678.4704546-.9161266-.0245718-.36885881-.2506345-.69407174-.5878153-.84562912-.3371809-.15155737-.7304686-.10473243-1.0226393.12175572-.4714905.33056624-.9101681.70561887-1.31 1.12-.2813286.28700575-.363505.71454555-.208621 1.08539463.1548841.37084909.5167313.61294376.918621.61460537z"/><path id="Shape" d="m48.2 19.72c-1.2-9.4-5.34-15.72-10.2-15.72s-8.94 6.29-10.19 15.65c-.3373997 2.2999802-1.3864743 4.4365956-3 6.11-6.6848219 7.1459776-6.4364185 18.3233042.5592691 25.165248s18.1757742 6.8419438 25.1714618 0 7.244091-18.0192704.5592691-25.165248c-1.5825322-1.6549901-2.598086-3.7701435-2.9-6.04zm-10.2 34.28c-6.3521032-.0161234-12.0931071-3.7883831-14.6290345-9.6123464-2.5359274-5.8239632-1.38646-12.5965397 2.9290345-17.2576536 1.8889122-1.9830553 3.1093594-4.5078772 3.49-7.22 1.08-8.06 4.53-13.91 8.21-13.91s7.15 5.88 8.22 14c.3652536 2.6763934 1.5736886 5.1668204 3.45 7.11 4.3254117 4.6558516 5.4853598 11.430245 2.9553368 17.2599212-2.5300231 5.8296761-8.2703613 9.6094119-14.6253368 9.6300788z"/><path id="Shape" d="m38 27c-4.64 0-8 7.17-8 12s3.59 9 8 9 8-4 8-9-3.36-12-8-12zm0 19c-3.31 0-6-3.14-6-7 0-4.18 3-10 6-10s6 5.82 6 10c0 3.86-2.69 7-6 7z"/><path id="Shape" d="m37.52 31.16c-1.38.76-3.52 4.46-3.52 7.84 0 .5522847.4477153 1 1 1s1-.4477153 1-1c0-2.77 1.88-5.75 2.48-6.08.3143937-.1786328.509606-.5114234.5121024-.8730127.0024963-.3615893-.1881026-.6970435-.5-.88-.3118974-.1829566-.6977087-.1856201-1.0121024-.0069873z"/><path id="Shape" d="m7 41c-.55228475 0-1 .4477153-1 1s.44771525 1 1 1 1-.4477153 1-1-.44771525-1-1-1z"/><path id="Shape" d="m12.63 44.08c-.5522847 0-1 .4477153-1 1s.4477153 1 1 1 1-.4477153 1-1-.4477153-1-1-1z"/><path id="Shape" d="m15 50c-.5522847 0-1 .4477153-1 1s.4477153 1 1 1 1-.4477153 1-1-.4477153-1-1-1z"/></g></g></svg>