<?xml version="1.0" encoding="iso-8859-1"?>
<!-- Generator: Adobe Illustrator 19.0.0, SVG Export Plug-In . SVG Version: 6.00 Build 0)  -->
<svg version="1.1" id="Capa_1" xmlns="http://www.w3.org/2000/svg" xmlns:xlink="http://www.w3.org/1999/xlink" x="0px" y="0px"
	 viewBox="0 0 512 512" style="enable-background:new 0 0 512 512;" xml:space="preserve">
<path style="fill:#498960;" d="M338.058,194.738l-12.36,39.031l-70.427,96.444l-101.037-105.63l25.721-64.517
	c2.154-17.147,7.431-33.713,14.3-49.084c23.302-52.085,64.905-90.361,64.905-90.361s66.722,61.373,78.49,134.464
	C339.732,168.017,340.1,181.337,338.058,194.738z"/>
<g>
	<path style="fill:#60A571;" d="M337.65,155.085c-14.453,6.91-30.631,10.778-47.727,10.778c-40.786,0-76.438-22.047-95.668-54.882
		c23.302-52.085,64.905-90.361,64.905-90.361S325.882,81.995,337.65,155.085z"/>
	<path style="fill:#60A571;" d="M248.79,360.476l-82.654,63.068C91.473,439.129,7.665,392.78,7.665,392.78
		s19.199-42.828,54.412-79.623c8.247-8.615,17.362-16.892,27.324-24.221l58.709-82.726l60.251,92.32L248.79,360.476z"/>
</g>
<circle style="fill:#ED4444;" cx="314.481" cy="296.955" r="104.895"/>
<path style="fill:#C73636;" d="M272.987,296.956c0-46.883,30.759-86.577,73.196-100.016c-10.002-3.167-20.65-4.881-31.701-4.881
	c-57.933,0-104.897,46.964-104.897,104.897s46.963,104.896,104.897,104.896c11.05,0,21.699-1.714,31.701-4.881
	C303.746,383.533,272.987,343.839,272.987,296.956z"/>
<path style="fill:#498960;" d="M208.361,298.531c-0.684,12.687-2.695,26.405-6.226,41.256
	c-66.865,15.912-110.978,0.919-140.057-26.629c8.247-8.615,17.362-16.892,27.324-24.221l58.709-82.726L208.361,298.531z"/>
<circle style="fill:#ED4444;" cx="399.452" cy="331.076" r="104.895"/>
<path style="fill:#C73636;" d="M357.953,331.072c0-46.883,30.759-86.577,73.196-100.016c-10.002-3.167-20.65-4.881-31.701-4.881
	c-57.933,0-104.897,46.964-104.897,104.897s46.963,104.896,104.897,104.896c11.05,0,21.699-1.714,31.701-4.881
	C388.712,417.649,357.953,377.955,357.953,331.072z"/>
<circle style="fill:#ED4444;" cx="264.284" cy="386.479" r="104.895"/>
<path style="fill:#C73636;" d="M222.786,386.482c0-46.883,30.759-86.577,73.196-100.016c-10.002-3.167-20.65-4.881-31.701-4.881
	c-57.933,0-104.897,46.964-104.897,104.897s46.963,104.896,104.897,104.896c11.05,0,21.699-1.714,31.701-4.881
	C253.545,473.059,222.786,433.365,222.786,386.482z"/>
<path style="fill:#60A571;" d="M203.775,297.058C252.876,90.782,7.746,101.029,7.746,101.029S-2.503,346.16,203.775,297.058z"/>
<g>
	<circle style="fill:#333333;" cx="293.547" cy="390.898" r="27.813"/>
	<ellipse style="fill:#333333;" cx="397.411" cy="272.949" rx="32.585" ry="16.638"/>
</g>
<path d="M399.449,218.52c-1.371,0-2.766,0.031-4.174,0.082c-13.547-13.964-30.427-24.084-48.823-29.545
	c4.221-44.13-15.297-86.352-34.62-116.314c-2.333-3.618-7.192-4.592-10.748-2.164l0,0c-3.429,2.341-4.363,6.981-2.112,10.472
	c17.652,27.361,35.487,65.464,32.418,104.644c-5.564-0.849-11.214-1.29-16.906-1.29c-17.03,0-33.185,3.809-47.669,10.609v-13.707
	l36.806-36.806c2.964-2.964,3.264-7.832,0.391-10.882c-2.973-3.158-7.945-3.215-10.992-0.169l-26.206,26.206v-41.013
	c0-4.192-3.229-7.847-7.419-7.973c-4.335-0.131-7.891,3.346-7.891,7.652v41.333l-26.205-26.206c-2.989-2.99-7.836-2.99-10.825,0
	s-2.99,7.837,0,10.825l37.031,37.031v22.412c-13.677,9.268-25.211,21.466-33.706,35.681c-1.167-31.699-10.915-58.823-29.218-81.023
	c-0.186-0.225-0.38-0.445-0.568-0.669c8.801-58.414,55.437-110.291,71.161-126.35c4.083,4.155,10.237,10.702,17.238,19.108
	c2.659,3.193,7.388,3.673,10.64,1.087l0.003-0.002c3.368-2.678,3.856-7.6,1.103-10.908c-13.154-15.805-23.334-25.216-23.811-25.655
	c-2.928-2.695-7.436-2.695-10.365,0c-2.743,2.523-63.257,58.88-79.015,129.265c-23.924-21.434-57.739-36.801-99.075-44.833
	c-37.261-7.243-67.211-6.09-68.467-6.038c-3.977,0.166-7.162,3.352-7.328,7.328c-0.052,1.256-1.203,31.206,6.037,68.466
	c9.701,49.922,30.089,88.889,58.957,112.689c3.472,2.862,7.078,5.49,10.79,7.934c-47.809,39.583-74.044,97.269-75.201,99.85
	c-1.628,3.632-0.202,7.905,3.28,9.83c3,1.659,64.07,34.953,129.409,34.95c9.32-0.001,18.731-0.694,28.071-2.237
	c17.557,39.347,57.047,66.842,102.842,66.842c43.497,0,81.307-24.805,100.038-61.01c11.291,3.715,23.074,5.601,35.13,5.601
	c19.822,0,39.032-5.135,56.034-14.919c3.825-2.202,4.928-7.225,2.458-10.883l0,0c-2.264-3.351-6.718-4.322-10.227-2.311
	c-14.65,8.396-31.193,12.802-48.265,12.802c-9.948,0-19.672-1.503-29.014-4.427c4.138-11.709,6.399-24.297,6.399-37.405
	c0-44.376-25.817-82.831-63.218-101.147c15.704-29.525,45.347-48.95,79.027-51.272c2.302-0.154,4.591-0.233,6.806-0.233
	c53.619,0,97.241,43.623,97.241,97.241c0,21.844-7.285,42.857-20.645,59.914c-2.485,3.173-2.144,7.712,0.839,10.424l0.002,0.002
	c3.309,3.008,8.456,2.531,11.214-0.989c15.466-19.744,23.9-44.069,23.9-69.351C512,269.011,461.509,218.52,399.449,218.52z
	 M21.233,166.613c-4.905-25.078-5.803-47.095-5.901-58c10.837,0.094,32.65,0.979,57.638,5.834
	c58.61,11.39,88.796,35.471,103.797,53.667c23.43,28.421,30.948,66.568,22.424,113.536l-23.404-23.404V190.24
	c0-4.228-3.427-7.655-7.655-7.655c-4.228,0-7.655,3.427-7.655,7.655v52.695l-33.697-33.697v-52.371c0-4.228-3.427-7.655-7.655-7.655
	c-4.228,0-7.655,3.427-7.655,7.655v37.061l-29.227-29.227c-2.99-2.99-7.837-2.99-10.825,0c-2.99,2.99-2.99,7.837,0,10.825
	l29.227,29.227h-37.06c-4.228,0-7.655,3.427-7.655,7.655c0,4.228,3.427,7.655,7.655,7.655h52.37l33.697,33.697H96.955
	c-4.228,0-7.655,3.427-7.655,7.655c0,4.228,3.427,7.655,7.655,7.655h68.006l23.404,23.404c-46.947,8.521-85.08,1.013-113.496-22.392
	C41.965,242.982,27.54,198.857,21.233,166.613z M17.855,389.378c8.534-16.659,33.808-61.483,72.358-91.456
	c18.376,8.84,39.212,13.291,62.411,13.291c9.659,0,19.738-0.79,30.203-2.328c-6.578,6.902-12.284,14.641-16.954,23.03
	l-33.926,11.321l-46.03-22.996c-3.783-1.889-8.38-0.355-10.27,3.426c-1.889,3.783-0.355,8.38,3.426,10.27l32.334,16.153
	l-52.884,17.649c-4.01,1.338-6.176,5.674-4.838,9.684c1.07,3.207,4.056,5.234,7.26,5.234c0.803,0,1.62-0.128,2.424-0.396
	l54.114-18.058l-16.972,33.971c-1.889,3.783-0.355,8.38,3.426,10.27c1.099,0.549,2.266,0.808,3.415,0.808
	c2.809,0,5.514-1.552,6.854-4.235l23.814-47.668l19.495-6.506c-3.75,11.205-5.786,23.188-5.786,35.638
	c0,10.769,1.523,21.188,4.36,31.056C99.03,425.73,37.588,398.98,17.855,389.378z M361.523,386.482
	c0,53.619-43.622,97.241-97.241,97.241S167.04,440.1,167.04,386.482c0-53.619,43.623-97.242,97.242-97.242
	C317.901,289.24,361.523,332.863,361.523,386.482z M299.37,279.537c-11.047-3.634-22.841-5.608-35.088-5.608
	c-16.437,0-32.062,3.543-46.153,9.904c6.427-47.435,47.184-84.119,96.353-84.119c22.226,0,43.713,7.665,60.852,21.398
	C342.683,228.206,314.831,249.465,299.37,279.537z"/>
<path d="M293.541,426.367c19.56,0,35.474-15.913,35.474-35.473c0-19.559-15.913-35.473-35.474-35.473
	c-19.559,0-35.473,15.913-35.473,35.473C258.069,410.453,273.982,426.367,293.541,426.367z M293.541,370.732
	c11.118,0,20.163,9.045,20.163,20.162c0,11.117-9.045,20.162-20.163,20.162c-11.118,0-20.162-9.045-20.162-20.162
	C273.379,379.777,282.423,370.732,293.541,370.732z"/>
<path d="M357.172,272.95c0,13.85,17.299,24.293,40.24,24.293s40.24-10.444,40.24-24.293c0-13.85-17.299-24.293-40.24-24.293
	S357.172,259.1,357.172,272.95z M422.342,272.95c0,0.887-1.43,2.935-5.37,4.947c-5.024,2.565-12.152,4.036-19.56,4.036
	c-7.408,0-14.536-1.471-19.56-4.036c-3.939-2.012-5.37-4.061-5.37-4.947c0-0.886,1.43-2.935,5.37-4.947
	c5.024-2.565,12.152-4.036,19.56-4.036c7.408,0,14.536,1.471,19.56,4.036C420.912,270.014,422.342,272.064,422.342,272.95z"/>
<g>
</g>
<g>
</g>
<g>
</g>
<g>
</g>
<g>
</g>
<g>
</g>
<g>
</g>
<g>
</g>
<g>
</g>
<g>
</g>
<g>
</g>
<g>
</g>
<g>
</g>
<g>
</g>
<g>
</g>
</svg>
