<svg height="511pt" viewBox="0 -4 511.99906 511" width="511pt" xmlns="http://www.w3.org/2000/svg"><g fill="#ab6dd0"><path d="m123.054688 456.863281c-8.621094 22.292969-29.824219 38.066407-54.621094 38.066407-32.453125 0-58.757813-26.992188-58.757813-60.296876 0-23.773437 13.414063-44.347656 32.90625-54.160156 10.183594 8.722656 23.292969 13.96875 37.597657 13.96875 6.957031 0 13.628906-1.242187 19.820312-3.523437-1.425781 5.214843-2.195312 10.71875-2.195312 16.410156 0 20.523437 9.988281 38.648437 25.25 49.535156zm0 0"/><path d="m142.929688 238.230469c-17.464844 7.558593-30.609376 23.527343-34.65625 42.949219-.734376 3.574218-1.167969 7.253906-1.265626 11.023437-5.953124 2.089844-12.339843 3.21875-18.992187 3.21875-14.070313 0-27-5.066406-37.105469-13.554687-13.21875-11.042969-21.648437-27.875-21.648437-46.738282 0-31.726562 23.871093-57.722656 54.199219-60.117187 8.085937 18.28125 24.824218 31.6875 44.847656 34.722656 2.285156 10.886719 7.441406 20.679687 14.621094 28.496094zm0 0"/><path d="m190.832031 125.992188v.007812c-1.820312 3.367188-3.324219 6.929688-4.488281 10.652344-.207031-.011719-.410156-.011719-.617188-.011719-30.269531 0-55.195312 23.496094-58.390624 53.6875-.238282 2.167969-.355469 4.371094-.355469 6.605469 0 4.390625.453125 8.671875 1.328125 12.796875-20.023438-3.03125-36.761719-16.4375-44.851563-34.71875-3.363281-7.589844-5.234375-16.023438-5.234375-24.914063 0-33.292968 26.300782-60.285156 58.753906-60.285156 24.089844 0 44.792969 14.886719 53.855469 36.179688zm0 0"/><path d="m220.15625 210.972656c-10.636719 7.796875-18.628906 19.136719-22.335938 32.335938-1.183593 4.183594-1.929687 8.554687-2.195312 13.0625-3.21875.5625-6.523438.859375-9.898438.859375-15.125 0-28.910156-5.859375-39.320312-15.496094-1.210938-1.121094-2.371094-2.28125-3.476562-3.503906-7.183594-7.816407-12.339844-17.609375-14.621094-28.496094-.875-4.125-1.328125-8.40625-1.328125-12.796875 0-2.234375.117187-4.441406.355469-6.605469 3.195312-30.191406 28.121093-53.6875 58.390624-53.6875.207032 0 .410157 0 .617188.007813-1.816406 5.820312-2.800781 12.019531-2.800781 18.457031 0 8.566406 1.742187 16.714844 4.878906 24.097656v.011719c6.121094 14.378906 17.542969 25.828125 31.734375 31.753906zm0 0"/><path d="m295.628906 389.078125c-9.242187 20.859375-29.726562 35.367187-53.511718 35.367187-9.988282 0-19.394532-2.558593-27.628907-7.066406.539063-3.269531.816407-6.625.816407-10.050781 0-23.054687-12.605469-43.085937-31.125-53.226563.179687-1.09375.386718-2.164062.621093-3.238281 4.191407-19.144531 17.269531-34.847656 34.558594-42.308593.925781.707031 1.871094 1.378906 2.832031 2.015624v.011719c9.222656 6.183594 20.242188 9.773438 32.078125 9.773438 4.125 0 8.140625-.429688 12.015625-1.257813-1.445312 5.246094-2.222656 10.789063-2.222656 16.515625 0 23.234375 12.800781 43.402344 31.566406 53.464844zm0 0"/><path d="m313.027344 260.0625c0 4.734375-.53125 9.351562-1.546875 13.773438-.207031.925781-.433594 1.839843-.679688 2.746093-4.898437 17.679688-17.464843 32.050781-33.78125 39.078125-3.421875 1.488282-7.015625 2.640625-10.734375 3.4375-3.875.828125-7.890625 1.257813-12.015625 1.257813-11.835937 0-22.855469-3.589844-32.078125-9.773438v-.011719c-.960937-.636718-1.90625-1.308593-2.832031-2.015624-14.464844-10.976563-23.84375-28.605469-23.84375-48.492188 0-1.238281.039063-2.472656.109375-3.691406.265625-4.507813 1.011719-8.878906 2.195312-13.0625 3.707032-13.199219 11.699219-24.539063 22.335938-32.335938 7.0625-5.179687 15.300781-8.800781 24.214844-10.347656 3.21875-.558594 6.523437-.855469 9.898437-.855469.523438 0 1.035157.007813 1.546875.019531 7.269532.195313 14.207032 1.742188 20.585938 4.410157 21.480468 8.96875 36.625 30.605469 36.625 55.863281zm0 0"/><path d="m381.570312 335.617188c0 33.300781-26.308593 60.292968-58.753906 60.292968-9.808594 0-19.058594-2.460937-27.1875-6.832031-18.765625-10.0625-31.566406-30.230469-31.566406-53.464844 0-5.726562.777344-11.269531 2.222656-16.515625 3.71875-.796875 7.3125-1.949218 10.734375-3.4375 16.316407-7.027344 28.882813-21.398437 33.78125-39.078125 3.878907-.828125 7.894531-1.261719 12.015625-1.261719 32.441406 0 58.753906 26.992188 58.753906 60.296876zm0 0"/><path d="m141.878906 348.933594c-1.75.464844-3.464844 1.003906-5.136718 1.625-15.890626 5.835937-28.613282 18.496094-34.8125 34.542968-.738282 1.898438-1.378907 3.839844-1.929688 5.816407-6.191406 2.285156-12.863281 3.523437-19.820312 3.523437-14.304688 0-27.414063-5.246094-37.597657-13.964844-12.929687-11.054687-21.15625-27.703124-21.15625-46.328124 0-22.355469 11.855469-41.875 29.480469-52.277344 10.105469 8.484375 23.035156 13.554687 37.109375 13.554687 6.652344 0 13.035156-1.132812 18.988281-3.21875-.007812.53125-.019531 1.070313-.019531 1.613281 0 22.855469 12.390625 42.730469 30.652344 52.960938 1.378906.777344 2.796875 1.492188 4.242187 2.152344zm0 0"/><path d="m219.359375 308.554688c-17.289063 7.460937-30.367187 23.164062-34.558594 42.308593-.234375 1.074219-.441406 2.148438-.621093 3.238281-1.230469-.667968-2.480469-1.296874-3.757813-1.886718h-.011719c-7.289062-3.328125-15.359375-5.179688-23.851562-5.179688-5.066406 0-9.988282.660156-14.671875 1.898438-.007813 0-.007813 0-.007813 0-1.445312-.65625-2.863281-1.375-4.242187-2.15625-18.261719-10.226563-30.652344-30.101563-30.652344-52.957032 0-.542968.011719-1.085937.019531-1.617187.097656-3.769531.53125-7.449219 1.269532-11.023437 4.042968-19.421876 17.191406-35.390626 34.65625-42.949219 1.101562 1.222656 2.265624 2.382812 3.476562 3.503906 10.410156 9.636719 24.195312 15.496094 39.320312 15.496094 3.375 0 6.679688-.296875 9.898438-.859375-.070312 1.222656-.109375 2.453125-.109375 3.691406 0 19.886719 9.378906 37.515625 23.84375 48.492188zm0 0"/><path d="m215.304688 407.328125c0 3.425781-.273438 6.78125-.816407 10.050781-4.65625 28.519532-28.820312 50.242188-57.929687 50.242188-12.457032 0-24-3.976563-33.503906-10.757813-15.261719-10.886719-25.25-29.011719-25.25-49.535156 0-5.6875.769531-11.191406 2.195312-16.410156.550781-1.976563 1.191406-3.917969 1.929688-5.816407 6.199218-16.046874 18.921874-28.707031 34.8125-34.542968 1.671874-.621094 3.386718-1.160156 5.136718-1.625h.007813c4.6875-1.238282 9.605469-1.898438 14.671875-1.898438 8.492187 0 16.5625 1.851563 23.851562 5.179688h.011719c1.277344.589844 2.527344 1.21875 3.757813 1.886718 18.519531 10.140626 31.125 30.171876 31.125 53.226563zm0 0"/><path d="m371.78125 213.570312c0 33.292969-26.3125 60.285157-58.753906 60.285157-.523438 0-1.035156-.007813-1.546875-.019531 1.011719-4.421876 1.546875-9.039063 1.546875-13.773438 0-25.257812-15.144532-46.894531-36.625-55.863281 14.914062-10.925781 24.636718-28.839844 24.636718-49.089844 0-.1875 0-.386719-.007812-.570313 3.867188-.828124 7.878906-1.261718 11.992188-1.261718 32.445312 0 58.757812 26.992187 58.757812 60.292968zm0 0"/><path d="m301.039062 155.109375c0 20.25-9.71875 38.164063-24.636718 49.089844-6.375-2.667969-13.3125-4.210938-20.585938-4.410157-.511718-.007812-1.023437-.019531-1.542968-.019531-3.375 0-6.683594.296875-9.902344.859375-8.914063 1.542969-17.148438 5.167969-24.214844 10.34375-14.1875-5.925781-25.613281-17.375-31.734375-31.753906v-.011719c-3.136719-7.382812-4.878906-15.535156-4.878906-24.097656 0-6.4375.984375-12.640625 2.800781-18.457031 1.164062-3.722656 2.667969-7.285156 4.488281-10.652344v-.007812c10.007813-18.585938 29.292969-31.175782 51.453125-31.175782 32.265625 0 58.449219 26.6875 58.746094 59.722656.007812.1875.007812.382813.007812.570313zm0 0"/></g><path d="m481.597656 261.472656c-73.632812-47.214844-87.53125-91.277344-82.609375-129.695312 1.414063-10.96875 4.363281-21.476563 7.886719-31.46875 2.617188-7.425782 5.5625-14.554688 8.4375-21.378906 141.78125 74.503906 66.285156 182.542968 66.285156 182.542968zm0 0" fill="#78d0a9"/><path d="m350.804688 271.742188c45.960937-31.695313 35.320312-110.273438-19.4375-125.933594-3.488282-.996094-20.179688-.871094-21.828126-2.441406-3.011718-2.871094-4.570312-16.3125-6.941406-20.84375-6.671875-12.746094-17.476562-23.054688-30.296875-29.5-27.195312-13.679688-60.484375-8.304688-80.925781 14.59375-19.011719-25.734376-52.011719-34.015626-81.066406-20.8125-13.289063 6.039062-24.871094 16.050781-32.457032 28.546874-9.160156 15.089844-7.878906 28.019532-9.015624 44.597657-.496094 7.203125 3.328124 4.992187-4.039063 8.992187-3.234375 1.757813-6.855469 2.8125-10.097656 4.652344-7.777344 4.421875-14.585938 10.40625-20.035157 17.5-10.027343 13.050781-15.328124 29.644531-15.023437 46.078125.144531 7.734375 1.53125 15.429687 4.144531 22.707031 1.441406 4.003906 3.226563 7.878906 5.382813 11.550782 1.042969 1.769531 3.585937 4.480468 4.132812 6.21875 1.601563 5.0625 1.667969 1.046874-.792969 5.894531-4 7.890625-11.460937 13.792969-15.105468 22.421875-4.011719 9.5-5.96875 19.855468-5.722656 30.167968.210937 8.980469 2.101562 17.898438 5.589843 26.171876 1.742188 4.132812 5.90625 8.703124 7.101563 12.902343 1.167968 4.101563 2.273437.992188.976562 4.734375-.765625 2.21875-5.582031 4.988282-7.398437 7-12.34375 13.675782-18.597657 32.210938-17.8945315 50.546875 1.4648435 38.339844 33.8320315 69.558594 72.6406245 66.84375 18.070313-1.265625 35.410157-9.75 47.230469-23.523437 1.460938-1.699219 5.304688-9.402344 7.078125-9.949219 1.703125-.523437 11.042969 4.199219 13.488282 4.785156 9.574218 2.296875 19.636718 2.363281 29.265624.308594 17.914063-3.820313 34.078126-14.910156 43.996094-30.320313 2.003906-3.117187 3.242188-8.09375 5.632813-10.753906 5.390625-6.011718-.757813-2.113281 5.707031-2.632812 1.824219-.144532 4.574219.976562 6.421875 1.257812 10.585937 1.613282 21.527344.566406 31.664063-2.871094 10.140624-3.441406 19.429687-9.265624 26.953124-16.867187 3.980469-4.019531 7.101563-10.289063 11.5-11.292969 3.957032-.90625 11.722657 2.816406 16.25 3.09375 20.890626 1.28125 41.675782-7.683594 55.535157-23.296875 30.257812-34.09375 18.832031-91.136719-22.613281-110.527343 2.691406-1.859376 5.386718-3.714844 8.082031-5.574219-2.695313 1.859375-5.386719 3.714843-8.082031 5.574219zm-56.328126-71.714844c2.46875-2.886719 4.96875-6.304688 6.664063-9.710938.578125-1.011718 1.125-2.035156 1.640625-3.074218 2.441406-4.886719 4.34375-9.90625 5.628906-15.222657 1.996094-8.261719.0625-8.09375 8.085938-8.9375 6.050781-.636719 14.191406 2.699219 19.332031 5.597657 11.871094 6.691406 19.703125 18.777343 22.867187 31.84375 3.167969 13.089843 1.847657 27.597656-4.679687 39.488281-3.074219 5.601562-7.265625 10.550781-12.375 14.40625-1.902344 1.433593-19.234375 9.933593-19.234375 8.054687.023438-.324218.03125-.660156.03125-.996094.0625-2.347656.015625-4.789062-.207031-7.140624-.019531-.355469-.046875-.710938-.085938-1.0625 0-.050782-.011719-.101563-.011719-.160157-2.144531-20.4375-12.480468-39.191406-29.417968-50.996093.585937-.699219 1.171875-1.394532 1.761718-2.089844.292969-.34375-.5625.710937 0 0 2.523438-2.953125-.5625.710937 0 0zm-1.429687 29.679687c.160156.199219.296875.386719.425781.582031 2.480469 3.484376 4.449219 7.28125 5.96875 11.269532.175782.453125.34375.90625.492188 1.367187.078125.1875.136718.375.195312.5625.109375.304688.207032.613281.292969.925781 1.101563 3.199219 1.59375 6.585938 2.066406 9.921876.050781.472656.097657.945312.128907 1.417968.03125.226563.039062.453125.046874.679688.039063.453125.0625.90625.082032 1.359375.007812.109375.007812.226562.007812.335937.203125 4.269532.085938 9.453125-1.277344 13.554688-.089843.382812-.148437.757812-.175781 1.140625-7.183593 17.273437-18.109375 32.53125-37.433593 36.628906-.007813 0-.027344.007813-.039063.007813-12.027344 2.570312-26.511719.398437-36.527344-7.121094-.804687-.523438-1.570312-1.074219-2.289062-1.625-.011719-.011719-.027344-.019532-.039063-.03125-20.578125-15.644532-24.3125-43.894532-12.027344-65.9375 12.691407-22.773438 35.65625-29.4375 59.46875-21.476563.519532.214844 1.03125.453125 1.542969.6875.007813 0 .019531 0 .027344.011719.503906.234375 1.003906.472656 1.496094.730469.089843.039062.175781.085937.265625.125 1.429687.730469 2.8125 1.535156 4.148437 2.414062 1.230469.792969 2.417969 1.636719 3.570313 2.53125 1.097656.847657 2.148437 1.742188 3.15625 2.691407.1875.15625.363281.324218.539062.5 1.296875 1.125 5.453125 6.136718 5.886719 6.746093.160156.199219-.566406-.796875 0 0zm-104.996094 10.855469c-.628906 2.21875-1.140625 4.464844-1.542969 6.75-14.195312.382812-26.792968-5.957031-36.605468-15.820312-6.128906-6.679688-10.355469-14.933594-12.222656-23.871094-9.351563-24.40625 13.3125-54.101563 36.09375-59.824219-2.578126 25 8.859374 50.515625 29.40625 65.035156-7.082032 7.992188-12.320313 17.601563-15.175782 27.886719.394532-1.425781.808594-2.847656 1.199219-4.273438-.382813 1.375-.769531 2.746094-1.152344 4.117188-.628906 2.21875 2.890625-10.304688 0 0zm14.589844 65.980469h-.007813v.011719c-11.347656 8.003906-21.542968 20.441406-25.398437 33.976562h-.011719c-1.613281-.390625-3.210937-.851562-4.785156-1.378906-4.523438-1.511719-9.417969-1.847656-14.160156-1.929688-1.898438-.039062-3.796875-.015625-5.691406.078125-1.46875.257813-2.945313.382813-4.425782.382813-1.207031.0625-2.390625.238281-3.546875.53125-.082031.011718-.167969.019531-.246093.039062-.507813.199219-1.023438.296875-1.546876.296875-16.355468-8.9375-27.148437-27.363281-26.222656-46.0625v-.128906c.027344-.515625.050782-1.03125.070313-1.546875 0-.058594 0-.117188.007812-.167969.023438-.382812.050781-.757812.082031-1.132812 0-.046875.007813-.097657.007813-.148438.125-1.414062.246094-3.269531.609375-4.726562.886719-1.816407 1.328125-3.683594 1.328125-5.605469.019531-.058594.039063-.128906.058594-.1875.019531-.117188.058593-.226562.097656-.34375.972656-3.453125 2.464844-6.410156 4.042969-9.574219.785156-1.433593 1.636718-2.820312 2.554687-4.167969 2.621094-4.007812 5.933594-7.597656 9.675781-10.582031 1.054688-1.105469 2.246094-1.992187 3.578126-2.65625.414062-.289062.828124-.5625 1.25-.820312.292968-.195313.589843-.375.882812-.550781l.011719.007812c12.40625 10.886719 28.148437 16.867188 44.570312 16.867188h.292969c.316406 3.8125.746094 9.347656 2.480469 12.816406.203125.722656.421875 1.441406.660156 2.15625.019531.070312.046875.128906.066406.195312.242188.726563.492188 1.449219.746094 2.167969 2.949219 8.117187 7.355469 15.628906 12.96875 22.183594zm-3.460937-176.003907c.039062-.089843.089843-.175781.128906-.265624.011718-.019532.027344-.050782.039062-.070313 23.851563-43.648437 90.917969-24.183594 91.460938 24.292969 0 .109375 0 .226562.007812.335937v.148438c0 11.613281-3.992187 22.808593-11.050781 31.957031-.058594.066406-.105469.136719-.164063.207031-1.640624 2.074219-3.496093 4.007813-5.449218 5.789063-13.265625-4.347656-31.425782-5.097656-44.253906 1.339844-9.097657 3.390624-10.300782 6.914062-18.582032.019531-6.046875-5.035157-10.9375-11.589844-14.050781-18.8125-.03125-.082031-.058594-.160157-.097656-.238281-6.035157-14.234376-4.554688-32.566407 1.691406-44.117188-.570313 1.058594-.460937.863281.320313-.585938.039062-.089843-1.523438 2.816407 0 0zm-62.464844-31.050781c17.972656 0 34.375 10.1875 42.898437 26.28125-.078125.160157-.148437.316407-.214843.484375-.109376.226563-.207032.453125-.304688.691406-34.925781 3.257813-61.769531 34.570313-62.199219 69.203126-4.027343-1.699219-7.957031-4.210938-11.210937-7.132813-.363282-.296875-.71875-.613281-1.0625-.925781-36.128906-27.128906-10.601563-88.601563 32.09375-88.601563zm-59.042969 86.167969c.058594.105469.128906.226562.199219.324219 1.199218 2.089843 3.015625 5.417969 4.828125 7.230469.265625.363281.550781.730468.835937 1.082031.175782.238281.363282.464843.558594.691406.265625.335937.53125.660156.816406.996094 0 .007812 0 .007812.011719.007812 5.347656 6.464844 12.347656 12.539063 19.957031 16.1875 3.960938 2.136719 12.105469 3.152344 15.210938 5.898438 3.164062 2.800781 5.300781 12.964843 7.835937 16.964843-3.449219 2.125-6.679687 4.859376-9.546875 7.734376-.15625.136718-.316406.285156-.460937.441406-.277344.257812-.542969.523437-.796875.796875-4.625 4.636719-8.449219 9.980469-11.601563 15.703125-.050781.078125-.089843.167968-.128906.246094-.976563.839843-1.464844 1.800781-1.464844 2.875-.222656.523437-.460937 1.039062-.71875 1.546874-.007812.019532-.019531.03125-.019531.050782-.707031 1.550781-1.347656 3.125-1.925781 4.726562-.46875 1.28125-1.058594 2.722656-1.347657 4.078125-.121093.394531-.238281.792969-.34375 1.191407-.117187.386718-.226562.769531-.316406 1.164062-.039062.128906-.066406.253906-.097656.382812-.085938.304688-.164062.609376-.234375.917969-.011719.058594-.03125.105469-.039063.164063-.539062 2.226562-.726562 4.542968-1.277343 6.757812-.011719.050782-.011719.089844-.019531.140625-.011719.039063-.011719.078125-.011719.117188-.019531.078125-.019531.15625-.027344.234375l-.03125.238281s0 0-.011719 0c-.535156.078125-1.066406.183594-1.589844.304687-3.855468.644532-7.929687.953126-11.8125.542969-.039062 0-.085937-.011719-.125-.011719-.472656-.039062-.945312-.078124-1.40625-.128906-.097656-.019531-.1875-.027344-.277343-.027344-4.039063-.527343-8.011719-1.503906-11.816407-2.957031-1.796874-.707031-3.542968-1.519531-5.242187-2.433593-.863281-.566407-1.757813-1.082032-2.683594-1.546876-.5-.308593-.992187-.628906-1.472656-.964843-.375-.253907-.757813-.511719-1.132813-.777344-.019531-.019531-.039062-.027344-.058593-.039063-.960938-.78125-1.941407-1.542968-2.929688-2.285156-30.476562-25.609375-18.863281-79.902344 20.714844-88.566406-.402344-.742188-9.382813 3.023438-9.84375 2.179688.136719.253906 10.09375-2.234376 9.84375-2.179688.058594.105469-22.179687 4.855469 0 0zm-27.226563 108.261719c3.453126 2.289062 10.078126 7.25 14.316407 7.25 6.066406 2.160156 12.667969 3.75 19.136719 3.957031h.007812c3.226562.210938 6.988281.464844 10.1875-.175781 2.421875-1.507813 3.628906-1.648438 3.628906-.421875 1.582032 10.320312 5.503906 22.820312 12.523438 30.851562 0 .011719.011718.019532.011718.019532 3.082032 4.296874 6.578126 8.265624 10.609376 11.703124.039062.03125.066406.070313.117187.097657-9.8125 6.011719-29.023437 22.691406-29.023437 35.90625-2.347657.585937-4.78125 1.082031-7.199219 1.28125-.195313.03125-.390625.050781-.589844.058593-48.234375 4.402344-70.78125-61.476562-33.726563-90.527343.347657.226562-4.476562 4.019531-5.089843 4.300781.972656-.449219 5.316406-4.476562 5.089843-4.300781 1.621094 1.074219-12.070312 9.464843 0 0zm17.777344 191.273437c-25.109375 0-44.449218-19.734375-47.75-43.992187-1.507812-11.054688.332032-22.644531 5.824219-32.417969 2.492187-4.433594 7.464844-12.710938 12.546875-14.460938 6.054688-2.085937 15.242188 4.945313 22.507812 7.375 7.230469 2.070313 15.125 3.199219 22.660157 2.511719 1.273437-.105469 2.542969-.214843 3.816406-.324219-.5 8.488282.558594 17.734376 3.460937 25.742188 1.09375 3.476562 2.402344 7.3125 4.335938 10.410156 2.621094 5.15625 5.882812 10.480469 9.992188 14.597656 5.214843 6.035157 5.441406 5.886719.152343 12.449219-2.695312 3.347657-5.84375 6.367188-9.316406 8.902344-8.15625 5.945313-18.128906 9.207031-28.230469 9.207031zm136.238282-69.339844c0 .019532-.011719.03125-.011719.046876-6.253907 38.183593-53.066407 55.164062-81.210938 28.089843-13.3125-12.800781-19.792969-30.699219-14.636719-48.65625 4.554688-15.851562 17.804688-34.320312 35.539063-36.863281 9.070313-2.40625 27.554687-3.167969 34.960937 4.257812.023438.007813.03125.019532.050782.03125h.011718c.007813 0 .007813.007813.019532.007813 18.855468 10.347656 28.523437 33.664063 25.378906 52.480469.171875-1.03125.136719-.828125-.101562.605468 0 .019532.460937-2.769531 0 0zm37.3125-1.191406c-5.839844 0-11.640626-1.085937-17.078126-3.171875.152344-2.703125.285157-5.816406-.019531-8.550781-.175781-2.933594-.648437-5.789062-1.0625-8.691406-.117187-.609375-.238281-1.21875-.363281-1.832032-.011719-.019531-.011719-.039062-.019531-.058593-.109375-.53125-.226563-1.0625-.355469-1.585938-.011719-.046875-.019531-.089843-.03125-.136719-2.445312-9.199218-7.589844-25.015624-16.007812-30.648437-.390626-.453125-.792969-.894531-1.21875-1.328125-.195313-.226562-.410157-.453125-.648438-.679688-2.96875-3.203124-6.417969-5.992187-9.960938-8.523437.03125-.105469.0625-.207031.101563-.304687.078125-.292969.164063-.578126.265625-.867188.914062-3.050781 2.257812-6.207031 3.863281-8.980469 2.226563-4.21875 5.125-8.09375 8.554688-11.410156.261719-.273437.539062-.539063.816406-.796875.253906-.257812.507813-.492188.773437-.730469.21875-.207031.445313-.402343.671876-.589843.117187-.117188.234374-.226563.351562-.316407.238281-.207031.464844-.402343.699219-.589843 2.148437-1.878907 4.609375-3.542969 7.109375-4.933594 10.804687 6.765625 23.125 10.214844 35.859375 10.265625-.011719.125-.023438.265625-.039063.402343-.84375 12.941407 3.027344 44.367188 16.8125 51.292969.144532.179688.292969.355469.460938.535157 0 .007812.011718.027343.039062.039062l.011719.007812c.304687.355469.617187.710938.941406 1.054688v.007812c5.148438 5.742188 10.109375 5.796876 7.328125 12.5625-1.414062 3.433594-6.636718 7.050782-9.414062 9.101563-8.191406 6.046875-18.246094 9.457031-28.441406 9.457031zm80.636718-28.558594c-30.6875 0-52.472656-29.738281-48.167968-59.046874 8.667968-2.734376 20.285156-8.160157 26.164062-15.535157.695312-.652343 1.371094-1.324219 2.035156-2.007812.117188-.109375.222656-.21875.324219-.335938.917969-.949219 1.804687-1.925781 2.652344-2.9375.265625-.292969.511719-.589843.757812-.894531.109375-.117188.207031-.238281.304688-.363281 1.464843-1.769531 3.550781-4.203125 4.621093-6.34375 2.550782-3.867188 4.804688-8.132813 6.429688-12.472657.117188-.265624.214844-.542968.324219-.816406 65.742187-6.460937 70.457031 100.753906 4.554687 100.753906zm0 0"/><path d="m436.167969 144.46875c-5.429688 0-9.835938-4.414062-9.835938-9.851562 0-5.441407 4.398438-9.851563 9.824219-9.851563h.011719c5.429687 0 9.832031 4.410156 9.832031 9.851563 0 5.4375-4.402344 9.851562-9.832031 9.851562zm0 0"/><path d="m507.777344 167.695312c-8.792969-36.222656-35.160156-67.203124-78.433594-92.183593 6.226562-9.453125 38.351562-71.058594 15.484375-74.859375-13.910156-2.308594-13.832031 21.902344-16.429687 30.496094-4.378907 14.496093-10.914063 28.488281-20.300782 40.433593-.011718 0-.011718 0-.019531.007813-18.234375 23.917968-48.550781 37.472656-78.316406 37.472656-8.421875-.457031-13.558594 10.085938-7.871094 16.394531 3.925781 4.351563 10.558594 3.425781 15.78125 3.097657 19.246094-1.214844 38.539063-7.292969 54.976563-17.363282-18.984376 70.300782 27.628906 122.898438 83.113281 158.523438 0 0 .011719.007812.019531.007812.097656.058594.1875.117188.296875.179688 1.621094 1.003906 3.898437 1.542968 5.761719 1.328125.144531 0 .292968-.019531.453125-.046875.355469-.035156.710937-.097656 1.058593-.1875.609376-.125 1.226563-.367188 1.792969-.621094.066407-.019531.136719-.058594.195313-.089844.070312-.03125.136718-.058594.195312-.097656 1.375-.6875 2.5625-1.730469 3.472656-2.964844.039063-.050781.078126-.109375.117188-.160156 1.296875-1.863281 31.582031-46.09375 18.652344-99.367188-8.792969-36.222656 12.929687 53.273438 0 0zm-24.511719 67.578126c-5.246094-16.757813-10.542969-33.507813-16.21875-50.125-2.738281-8.019532-6.074219-27.601563-16.59375-28.78125-17.175781-1.929688-7.847656 18.507812-5.054687 26.3125 6.390624 17.871093 12.03125 36.03125 17.730468 54.132812-22.128906-17.109375-43.28125-38.660156-51.746094-66.046875-8.179687-26.457031-1.589843-53.082031 8.335938-78.085937 52.070312 30.140624 87.253906 81.433593 63.546875 142.59375-8.203125-26.191407 0 0 0 0zm0 0"/></svg>