<?xml version="1.0" encoding="iso-8859-1"?>
<!-- Generator: Adobe Illustrator 19.0.0, SVG Export Plug-In . SVG Version: 6.00 Build 0)  -->
<svg version="1.1" id="Capa_1" xmlns="http://www.w3.org/2000/svg" xmlns:xlink="http://www.w3.org/1999/xlink" x="0px" y="0px"
	 viewBox="0 0 511.999 511.999" style="enable-background:new 0 0 511.999 511.999;" xml:space="preserve">
<path style="fill:#46C373;" d="M256.079,59.403l16.947,24.805c30.642,44.85,82.83,70.012,137.004,66.056l40.751-2.976
	l-22.929-30.739c-31.967-42.855-84.045-65.836-137.25-60.567L256.079,59.403z"/>
<path style="fill:#E6AA46;" d="M237.788,55.878c-66.222-15.886-135.156,12.561-170.903,70.526c-0.485,0.787-0.969,1.572-1.452,2.353
	c-24.14,39.142-32.34,86.052-22.913,131.063l0.452,2.157c9.622,45.941-0.399,93.813-27.64,132.037l-0.535,0.751
	C1.91,412.85,16.84,437.591,38.847,434.619l26.933-3.637c89.862-12.135,169.38-64.35,216.231-141.986l0,0
	c38.934-64.517,41.208-144.718,5.99-211.336l0,0L237.788,55.878z"/>
<path style="fill:#46C373;" d="M454.531,227.595l2.168-1.869c12.267-10.58,30.985-8.272,40.314,4.972l0,0
	c8.352,11.856,6.025,28.168-5.31,37.215l-4.578,3.653L454.531,227.595z"/>
<path style="fill:#F5B955;" d="M454.531,227.595c-49.407-46.869-123.329-56.7-183.269-24.375c-0.814,0.439-1.626,0.877-2.434,1.313
	c-40.477,21.828-71.033,58.353-85.374,102.047l-0.688,2.094c-14.638,44.598-47.253,81.045-89.956,100.528l-0.838,0.382
	c-20.203,9.217-19.644,38.11,0.9,46.539l25.143,10.317c83.891,34.422,178.862,28.961,258.254-14.848l0,0
	c65.976-36.406,108.046-104.726,110.856-180.028l0,0L454.531,227.595z"/>
<path style="fill:#46C373;" d="M249.43,59.309l13.617-24.877c6.116-11.175,20.502-14.694,31.086-7.605l0,0
	c9.52,6.377,12.435,19.061,6.654,28.954L288.002,77.66L249.43,59.309z"/>
<path style="fill:#A5DC69;" d="M288.226,76.441l25.431,15.991c45.982,28.914,103.875,31.184,151.98,5.957l36.186-18.976
	L468.54,60.365c-46.403-26.557-103.325-26.87-150.017-0.825L288.226,76.441z"/>
<path d="M505.185,224.94c-6.067-8.613-15.545-14.294-26.003-15.584c-8.445-1.041-16.972,0.855-24.146,5.249
	c-37.137-31.828-85.387-45.295-132.179-38.713c-0.115-12.06-1.208-24.066-3.237-35.897c24.179,13.526,51.454,20.671,79.279,20.671
	c3.942,0,7.901-0.144,11.856-0.433l40.751-2.976c3.642-0.267,6.848-2.496,8.365-5.816c1.518-3.321,1.104-7.205-1.08-10.132
	l-16.796-22.517c9.685-2.925,19.161-6.766,28.283-11.549l36.186-18.976c3.233-1.695,5.284-5.019,5.352-8.67
	c0.067-3.65-1.86-7.047-5.03-8.859l-33.283-19.048c-24.261-13.886-51.858-21.306-79.811-21.46
	c-27.93-0.112-55.629,6.963-80.04,20.58l-0.542,0.302c2.458-12.249-2.511-25.285-13.417-32.59
	c-7.37-4.937-16.539-6.561-25.156-4.452c-8.617,2.107-16.002,7.78-20.262,15.561l-9.954,18.185l-2.558-1.11
	c-0.532-0.23-1.083-0.415-1.646-0.55c-28.183-6.762-57.782-6.086-85.594,1.953c-27.459,7.937-52.576,22.849-72.636,43.127
	c-3.883,3.926-3.849,10.255,0.076,14.139c3.926,3.881,10.254,3.849,14.139-0.076c35.865-36.254,88.868-51.501,138.518-39.898
	l46.137,20.014c14.826,29.244,22.411,61.737,22.101,94.556c-12.436,3.334-24.636,8.138-36.35,14.455l-2.427,1.31
	c-42.915,23.142-74.922,61.402-90.128,107.73l-0.688,2.094c-13.725,41.818-44.564,76.281-84.608,94.55l-0.839,0.383
	c-8.889,4.056-15.394,11.207-18.547,19.887c-1.631,0.25-3.246,0.484-4.833,0.698l-26.932,3.638
	c-6.273,0.843-11.95-1.88-15.213-7.289c-3.265-5.409-3.024-11.711,0.643-16.856l0.535-0.751
	c28.773-40.375,39.447-91.363,29.283-139.89l-0.451-2.156c-6.712-32.046-4.042-65.134,7.722-95.687
	c1.983-5.152-0.585-10.937-5.737-12.921c-5.149-1.982-10.937,0.585-12.921,5.737c-13.15,34.155-16.135,71.144-8.632,106.97
	l0.451,2.156c9.023,43.08-0.452,88.343-25.996,124.187l-0.535,0.751c-8.312,11.663-8.879,26.527-1.479,38.79
	c6.534,10.83,17.759,17.107,30.07,17.107c1.63,0,3.278-0.11,4.938-0.334l26.931-3.638c0.31-0.042,0.63-0.092,0.942-0.135
	c2.518,11.052,10.125,20.148,21.02,24.618l25.142,10.318c37.149,15.242,77.503,23.144,117.707,23.144
	c5.83,0,11.662-0.167,17.476-0.501c45.901-2.639,91.442-15.774,131.696-37.988c33.879-18.694,62.509-45.991,82.798-78.939
	c19.478-31.634,30.838-67.789,32.991-104.843l1.051-0.839C513.382,263.401,516.565,241.092,505.185,224.94z M431.862,138.646
	l-22.56,1.646c-34.551,2.527-68.797-7.61-96.423-28.537c-1.053-3.416-2.187-6.807-3.402-10.172
	c26.005,16.053,55.668,24.166,85.402,24.166c8.632,0,17.268-0.699,25.822-2.067L431.862,138.646z M323.394,68.271
	c43.368-24.191,97.08-23.896,140.182,0.771l17.453,9.989l-20.034,10.506c-44.786,23.486-99.203,21.356-142.015-5.567l-11.154-7.014
	L323.394,68.271z M271.816,39.232c1.596-2.913,4.249-4.952,7.475-5.74c3.225-0.788,6.519-0.207,9.279,1.643
	c5.12,3.43,6.695,10.283,3.586,15.603l-8.311,14.222l-21.101-9.153L271.816,39.232z M476.735,229.2
	c4.94,0.609,9.239,3.186,12.105,7.255c4.397,6.241,4.11,14.448-0.22,20.342l-19.816-26.731
	C471.306,229.179,473.994,228.86,476.735,229.2z M371.441,442.84c-77.135,42.564-168.122,47.798-249.631,14.353l-25.142-10.318
	c-5.845-2.397-9.407-7.601-9.53-13.918c-0.122-6.316,3.237-11.654,8.985-14.277l0.838-0.383
	c45.106-20.579,79.844-59.398,95.304-106.505l0.688-2.094c13.602-41.441,42.234-75.664,80.626-96.367l2.429-1.312
	c22.125-11.931,46.211-17.754,70.117-17.754c36.633,0,72.839,13.673,100.905,39.995l29.949,40.4
	C473.152,344.687,432.957,408.895,371.441,442.84z"/>
<path d="M61.67,134.874c1.623,0.999,3.422,1.475,5.201,1.475c3.373,0,6.675-1.705,8.571-4.778c0.005-0.007,0.061-0.098,0.064-0.104
	c2.887-4.701,1.395-10.81-3.304-13.702c-4.698-2.892-10.876-1.39-13.773,3.304c-0.005,0.007-0.061,0.098-0.064,0.104
	C55.479,125.873,56.972,131.982,61.67,134.874z"/>
<path d="M442.313,305.94c-5.269-1.653-10.879,1.278-12.531,6.545c-12.66,40.345-40.967,75.096-77.661,95.343
	c-18.389,10.147-37.928,17.95-58.076,23.19c-5.343,1.39-8.548,6.848-7.158,12.191c1.171,4.5,5.226,7.482,9.668,7.482
	c0.833,0,1.681-0.104,2.523-0.324c21.758-5.659,42.854-14.082,62.701-25.033c41.155-22.709,72.893-61.659,87.078-106.864
	C450.511,313.203,447.581,307.592,442.313,305.94z"/>
<path d="M254.991,437.898c-5.361,0.563-9.332,5.298-8.916,10.708c0.403,5.244,4.784,9.23,9.957,9.23c0.257,0,0.517-0.01,0.777-0.029
	c0.253-0.02,0.541-0.053,0.791-0.091c5.457-0.84,9.2-5.943,8.361-11.401C265.143,441.002,260.291,437.313,254.991,437.898z"/>
<g>
</g>
<g>
</g>
<g>
</g>
<g>
</g>
<g>
</g>
<g>
</g>
<g>
</g>
<g>
</g>
<g>
</g>
<g>
</g>
<g>
</g>
<g>
</g>
<g>
</g>
<g>
</g>
<g>
</g>
</svg>
