<?xml version="1.0" encoding="iso-8859-1"?>
<!-- Generator: Adobe Illustrator 19.0.0, SVG Export Plug-In . SVG Version: 6.00 Build 0)  -->
<svg xmlns="http://www.w3.org/2000/svg" xmlns:xlink="http://www.w3.org/1999/xlink" version="1.1" id="Layer_1" x="0px" y="0px" viewBox="0 0 505.003 505.003" style="enable-background:new 0 0 505.003 505.003;" xml:space="preserve" width="512" height="512">
<g>
	<g>
		<path style="fill:#FFB83B;" d="M497.503,210.786c0,92.244-79.565,169.058-184.831,185.714    c-13.896,2.194-28.229,3.346-42.896,3.346c-125.771,0-227.728-84.64-227.728-189.061c0-104.411,101.957-189.061,227.728-189.061    c14.668,0,29,1.153,42.896,3.346C417.938,41.729,497.503,118.552,497.503,210.786z"/>
		<path style="fill:#FFE239;" d="M497.503,210.786c0,92.244-79.565,169.058-184.831,185.714    c-105.266-16.657-184.831-93.471-184.831-185.714c0-92.234,79.565-169.058,184.831-185.714    C417.938,41.729,497.503,118.552,497.503,210.786z"/>
		<path style="fill:#FFB83B;" d="M438.859,304.222c0,98.895-96.562,179.056-215.678,179.056S7.503,403.117,7.503,304.222h128.702    c0,39.878,38.945,72.212,86.975,72.212s86.975-32.334,86.975-72.212H438.859z"/>
		<path style="fill:#FCE98D;" d="M407.572,304.222c0,84.546-82.556,153.087-184.391,153.087    c-101.835,0-184.391-68.541-184.391-153.087h97.416c0,39.878,38.945,72.212,86.975,72.212s86.975-32.334,86.975-72.212H407.572z"/>
	</g>
	<g>
		<path d="M505.003,210.785c0-27.162-6.502-53.466-19.327-78.182c-12.325-23.753-29.902-44.965-52.245-63.048    c-3.22-2.605-7.941-2.108-10.548,1.112c-2.605,3.22-2.108,7.942,1.112,10.548c42.566,34.45,66.008,80.466,66.008,129.57    c0,39.838-15.641,77.966-44.454,109.347c0.527-5.262,0.809-10.567,0.809-15.91c0-4.142-3.358-7.5-7.5-7.5H310.156    c-4.142,0-7.5,3.358-7.5,7.5c0,35.683-35.652,64.712-79.476,64.712c-43.823,0-79.475-29.03-79.475-64.712    c0-4.142-3.358-7.5-7.5-7.5H75.762c-17.157-26.269-26.213-55.887-26.218-85.911c0-0.008,0.001-0.016,0.001-0.024    c0-0.008-0.001-0.015-0.001-0.023c0.013-100.103,98.803-181.54,220.23-181.54c45.877,0,89.854,11.531,127.175,33.345    c3.576,2.09,8.17,0.886,10.26-2.69c2.09-3.576,0.886-8.169-2.69-10.26c-39.616-23.156-86.21-35.395-134.745-35.395    c-62.574,0-121.463,20.281-165.819,57.106c-42.191,35.027-66.505,81.043-69.158,130.404C25.652,197.951,15,186.527,15,159.887    c0-4.142-3.358-7.5-7.5-7.5s-7.5,3.358-7.5,7.5c0,25.616,10.918,53.001,34.687,57.689c1.135,27.523,9.155,54.536,23.457,79.146    H7.503c-4.142,0-7.5,3.358-7.5,7.5c0,42.691,16.763,82.855,48.477,116.15c2.857,3,7.604,3.115,10.604,0.258    s3.115-7.604,0.258-10.604c-27.128-28.48-42.295-62.329-44.146-98.304H31.5c2.195,40.335,22.059,77.919,56.506,106.519    c36.17,30.03,84.176,46.568,135.174,46.568s99.004-16.538,135.175-46.568c34.447-28.599,54.312-66.184,56.506-106.519h16.3    c-4.778,91.133-96.24,164.056-207.981,164.056c-52.119,0-101.999-15.969-140.451-44.965c-3.308-2.495-8.011-1.835-10.504,1.473    c-2.494,3.307-1.834,8.01,1.473,10.504c41.038,30.946,94.125,47.988,149.482,47.988c59.356,0,115.219-19.239,157.298-54.172    c30.497-25.318,51.156-56.689,60.387-90.909C482.238,309.091,505.003,261.276,505.003,210.785z M223.181,449.809    c-94.482,0-171.9-61.282-176.659-138.087h82.598c4.496,40.449,44.965,72.212,94.061,72.212c49.096,0,89.565-31.764,94.061-72.212    h82.598C395.082,388.527,317.663,449.809,223.181,449.809z"/>
		<path d="M97.328,186.227c0.602,0,1.213-0.073,1.823-0.225c25.662-6.409,58.799-11.277,95.83-14.075    c4.13-0.312,7.226-3.914,6.913-8.044c-0.312-4.13-3.899-7.224-8.044-6.914c-37.861,2.862-71.865,7.869-98.334,14.48    c-4.019,1.004-6.463,5.075-5.459,9.094C90.908,183.951,93.966,186.227,97.328,186.227z"/>
		<path d="M444.031,171.448c-43.902-10.965-107.417-17.253-174.257-17.253c-11.556,0-23.165,0.187-34.505,0.556    c-4.14,0.135-7.387,3.6-7.252,7.74s3.607,7.392,7.74,7.252c11.179-0.364,22.624-0.548,34.018-0.548    c65.668,0,127.858,6.126,170.623,16.807c0.61,0.152,1.221,0.225,1.823,0.225c3.361,0,6.419-2.276,7.271-5.684    C450.494,176.523,448.049,172.452,444.031,171.448z"/>
		<path d="M95.516,250.121c43.9,10.965,107.415,17.254,174.257,17.254c66.842,0,130.356-6.289,174.257-17.254    c4.019-1.004,6.463-5.075,5.459-9.094c-1.003-4.019-5.077-6.465-9.094-5.459c-42.764,10.681-104.953,16.806-170.623,16.806    c-65.67,0-127.859-6.126-170.623-16.806c-4.02-1.004-8.09,1.44-9.094,5.459C89.053,245.046,91.498,249.117,95.516,250.121z"/>
		<path d="M427.688,102.805c-43.228-24.118-99.309-37.4-157.914-37.4c-58.491,0-114.465,13.229-157.658,37.258    c-2.438,1.238-4.107,3.77-4.107,6.692c0,4.142,3.363,7.5,7.505,7.5c1.279,0,2.537-0.327,3.654-0.95    c41.03-22.892,94.517-35.5,150.606-35.5s109.575,12.607,150.605,35.5c1.157,0.646,2.411,0.952,3.647,0.952    c2.63,0,5.184-1.387,6.557-3.847C432.601,109.392,431.305,104.823,427.688,102.805z"/>
	</g>
</g>















</svg>
