<svg height="512pt" viewBox="-16 0 512 512.00052" width="512pt" xmlns="http://www.w3.org/2000/svg"><path d="m86.71875 376.902344c4.242188-.394532 8.296875.851562 11.585938 3.554687 2.027343 1.664063 5.066406 3.328125 9.605468 4.722657 15.898438 4.878906 121.78125-16.292969 154.398438-122.566407 27.597656-89.925781-10.949219-146.480469-22.671875-221.636719-2.929688-18.789062-18.824219-23.667968-34.71875-28.546874-15.894531-4.875-31.792969-9.753907-44.757813 4.15625-51.863281 55.640624-115.5 80.835937-143.097656 170.757812-32.617188 106.277344 43.164062 183.203125 59.058594 188.078125 4.539062 1.394531 7.988281 1.722656 10.597656 1.480469zm0 0" fill="#c8e682"/><path d="m160.160156 16.585938c-51.863281 55.640624-115.5 80.835937-143.097656 170.761718-32.617188 106.273438 43.164062 183.199219 59.058594 188.074219 4.539062 1.394531 7.988281 1.722656 10.597656 1.480469l118.195312-364.472656c-15.894531-4.878907-31.789062-9.757813-44.753906 4.15625zm0 0" fill="#96cd82"/><path d="m176.921875 21.730469c-38.453125 59.757812-80.539063 91.566406-108.136719 181.488281-31.207031 101.683594 1.683594 165.582031 12.636719 173.394531 2.03125.308594 3.835937.425781 5.296875.289063 4.242188-.394532 8.296875.851562 11.585938 3.554687 1.128906.929688 2.617187 1.851563 4.460937 2.730469 13.238281-.15625 76.535156-34.515625 107.820313-136.449219 27.597656-89.925781 10.597656-139.863281 12.289062-210.90625.421875-17.761719-8.769531-20.582031-17.960938-23.402343-9.1875-2.820313-18.378906-5.640626-27.992187 9.300781zm0 0" fill="#afdc82"/><path d="m338.152344 502.804688c3.9375-1.621094 8.179687-1.621094 12.117187 0 2.425781.996093 5.816407 1.695312 10.566407 1.695312 16.628906 0 111.644531-51.308594 111.644531-162.472656 0-94.066406-53.445313-136.820313-86.703125-205.230469-8.3125-17.101563-24.941406-17.101563-41.566406-17.101563-16.628907 0-33.253907 0-41.570313 17.101563-33.253906 68.410156-86.699219 111.164063-86.699219 205.230469 0 111.164062 95.015625 162.472656 111.640625 162.472656 4.75 0 8.144531-.699219 10.570313-1.695312zm0 0" fill="#ffc369"/><path d="m424.378906 336.148438c0-66.414063-35.894531-120.253907-80.167968-120.253907-44.277344 0-80.167969 53.839844-80.167969 120.253907 0 66.414062 35.890625 120.25 80.167969 120.25 44.273437 0 80.167968-53.835938 80.167968-120.25zm0 0" fill="#ffaa5f"/><path d="m344.210938 239.945312c-30.992188 0-56.117188 48.101563-56.117188 97.597657 0 53.207031 30.886719 90.300781 50.566406 118.597656 1.355469 1.949219 3.453125 2.921875 5.550782 2.921875 2.097656 0 4.195312-.972656 5.550781-2.921875 19.675781-28.296875 50.566406-65.390625 50.566406-118.597656 0-49.496094-25.125-97.597657-56.117187-97.597657zm0 0" fill="#785353"/><path d="m376.277344 408.300781c-39.847656 0-72.152344-46.660156-72.152344-104.21875 0-15.550781 2.421875-30.25 6.652344-43.503906-13.742188 18.621094-22.683594 47.503906-22.683594 76.964844 0 53.207031 30.886719 90.300781 50.566406 118.601562 1.355469 1.945313 3.453125 2.917969 5.550782 2.917969 2.097656 0 4.195312-.972656 5.550781-2.917969 9.539062-13.722656 21.695312-29.535156 31.707031-48.222656-1.71875.175781-3.4375.378906-5.191406.378906zm0 0" fill="#6e4848"/><path d="m425.242188 189.09375c-11.308594-17.503906-23.003907-35.597656-32.71875-55.578125-10.363282-21.320313-31.40625-21.320313-48.3125-21.320313s-37.949219 0-48.316407 21.320313c-5.960937 12.273437-12.679687 23.828125-19.589843 34.976563-3.03125-22.808594-8.941407-44.335938-14.707032-65.316407-5.523437-20.089843-11.234375-40.867187-14.484375-62.84375-3.472656-23.453125-23.539062-29.78125-39.664062-34.867187-16.125-5.085938-36.191407-11.414063-52.492188 5.800781-15.269531 16.132813-31.867187 29.875-47.917969 43.160156-38.1875 31.613281-77.679687 64.304688-98.207031 129.386719-18.5625 58.847656-4.398437 107.390625 10.753907 137.75 16.953124 33.972656 40.941406 56.78125 51.738281 60.1875 5.019531 1.585938 9.554687 2.21875 13.480469 1.882812 2.257812-.191406 4.375.476563 6.113281 1.929688 3.027343 2.527344 7.101562 4.609375 12.121093 6.191406 2.085938.660156 5.007813 1.011719 8.621094 1.011719 20.023438-.003906 61.144532-10.796875 97.085938-39.820313 3.066406 55.777344 29.222656 94.289063 51.390625 117.21875 26.386719 27.296876 56.125 41.835938 67.449219 41.835938 5.257812 0 9.773437-.757812 13.417968-2.257812 2.097656-.863282 4.316406-.863282 6.414063 0 3.644531 1.5 8.160156 2.257812 13.417969 2.257812 11.324218 0 41.0625-14.539062 67.449218-41.835938 23.585938-24.394531 51.695313-66.429687 51.695313-128.136718 0-68.242188-27.828125-111.296875-54.738281-152.933594zm-317.691407 188.355469c-3.914062-1.234375-5.976562-2.53125-7.015625-3.398438-4.769531-3.984375-10.804687-5.890625-17-5.363281-1.351562.113281-3.785156-.007812-7.699218-1.242188-4.007813-1.265624-25.726563-18.3125-42.828126-52.582031-13.917968-27.882812-26.925781-72.472656-9.871093-126.539062 19.199219-60.863281 55.273437-90.726563 93.46875-122.34375 16.394531-13.574219 33.347656-27.605469 49.246093-44.402344 9.371094-9.898437 20.195313-7.136719 37.085938-1.808594.667969.210938 1.304688.417969 1.949219.621094 7.304687 2.375 10.632812 4.304687 10.242187 15.390625-.394531 11.085938-.378906 22.539062.050782 36.042969.257812 8.144531.640624 16.210937 1.007812 24.011719l.003906.15625c.191406 4.019531 3.507813 7.148437 7.488282 7.148437.117187 0 .238281 0 .359374-.007813 4.136719-.195312 7.332032-3.707031 7.140626-7.84375l-.007813-.160156c-.367187-7.742187-.742187-15.75-1-23.78125-.417969-13.160156-.433594-24.292968-.054687-35.035156.011718-.234375.007812-.453125.011718-.683594 1.023438 1.992188 1.75 4.257813 2.140625 6.898438 3.386719 22.875 9.21875 44.097656 14.859375 64.621094 7.53125 27.40625 14.640625 53.332031 16.003906 82.003906-25.710937 39.785156-52.226562 80.894531-54.515624 144.023437-41.183594 38.65625-92.964844 46.824219-101.066407 44.273438zm309.949219 82.289062c-26.617188 27.535157-52.460938 37.261719-56.664062 37.261719-4.101563 0-6.457032-.617188-7.710938-1.132812-.46875-.191407-.941406-.339844-1.414062-.503907v-6.898437c0-4.140625-3.359376-7.5-7.5-7.5-4.144532 0-7.503907 3.359375-7.503907 7.5v6.898437c-.46875.160157-.945312.3125-1.410156.503907-1.253906.515624-3.613281 1.132812-7.714844 1.132812-4.203125 0-30.042969-9.726562-56.664062-37.265625-21.65625-22.402344-47.476563-61.015625-47.476563-117.710937 0-63.816407 25.421875-103.148438 52.335938-144.789063 11.550781-17.878906 23.5-36.363281 33.609375-57.160156 5.960937-12.257813 17.113281-12.882813 34.824219-12.882813 17.707031 0 28.863281.625 34.820312 12.882813 10.109375 20.796875 22.058594 39.28125 33.613281 57.160156 26.910157 41.640625 52.332031 80.972656 52.332031 144.789063 0 56.699218-25.816406 95.308593-47.476562 117.714843zm0 0"/><path d="m59.074219 256.585938c-4.09375-.640626-7.929688 2.15625-8.570313 6.25-1.035156 6.601562-1.832031 13.234374-2.375 19.714843-.34375 4.128907 2.722656 7.753907 6.851563 8.097657.210937.019531.421875.027343.632812.027343 3.859375 0 7.136719-2.960937 7.464844-6.875.511719-6.125 1.265625-12.398437 2.246094-18.648437.640625-4.089844-2.15625-7.925782-6.25-8.566406zm0 0"/><path d="m108.40625 116.710938c-3.53125-2.167969-8.148438-1.0625-10.316406 2.46875-15.382813 25.058593-27.011719 50.875-36.589844 81.242187-1.894531 6.003906-3.625 12.066406-5.144531 18.019531-1.023438 4.015625 1.398437 8.097656 5.414062 9.125.621094.15625 1.246094.234375 1.859375.234375 3.347656 0 6.394532-2.257812 7.261719-5.648437 1.453125-5.683594 3.105469-11.476563 4.914063-17.214844 9.203124-29.167969 20.34375-53.921875 35.070312-77.910156 2.167969-3.53125 1.0625-8.148438-2.46875-10.316406zm0 0"/><path d="m216.292969 216.535156c.515625.105469 1.03125.15625 1.539062.15625 3.476563 0 6.597657-2.433594 7.332031-5.972656 7.121094-34.167969 7.597657-62.382812 7.21875-83.144531-.074218-4.140625-3.511718-7.417969-7.636718-7.363281-4.140625.074218-7.4375 3.496093-7.359375 7.636718.363281 19.976563-.09375 47.105469-6.90625 79.8125-.84375 4.054688 1.757812 8.027344 5.8125 8.875zm0 0"/><path d="m390.554688 283.847656c-3.933594 1.300782-6.066407 5.542969-4.769532 9.476563 4.605469 13.929687 7.042969 29.222656 7.042969 44.21875 0 45.253906-23.671875 78.433593-42.695313 105.089843-2.066406 2.894532-4.03125 5.648438-5.921874 8.355469-1.890626-2.707031-3.855469-5.460937-5.921876-8.355469-19.023437-26.65625-42.695312-59.835937-42.695312-105.089843 0-22.835938 5.644531-46.054688 15.488281-63.707031 9.351563-16.769532 21.425781-26.390626 33.128907-26.390626 13.332031 0 23.691406 12.054688 28.683593 19.238282 2.363281 3.402344 7.035157 4.246094 10.4375 1.882812 3.402344-2.363281 4.246094-7.039062 1.882813-10.4375-9.566406-13.773437-21.25-22.378906-33.503906-24.890625v-9.324219c0-4.140624-3.359376-7.5-7.5-7.5-4.144532 0-7.5 3.359376-7.5 7.5v9.285157c-14.695313 2.945312-28.242188 14.515625-38.730469 33.332031-11.050781 19.816406-17.386719 45.699219-17.386719 71.011719 0 50.058593 26.289062 86.902343 45.484375 113.804687 2.261719 3.167969 4.394531 6.164063 6.421875 9.078125 2.675781 3.84375 7.050781 6.140625 11.710938 6.140625 4.65625 0 9.035156-2.296875 11.707031-6.140625 2.027343-2.917969 4.164062-5.910156 6.425781-9.082031 19.195312-26.898438 45.484375-63.742188 45.484375-113.800781 0-16.578125-2.695313-33.496094-7.796875-48.929688-1.300781-3.933593-5.542969-6.066406-9.476562-4.765625zm0 0"/><path d="m322.800781 341.363281c-1.914062-3.675781-6.445312-5.097656-10.117187-3.179687-3.675782 1.914062-5.097656 6.445312-3.183594 10.117187l4.011719 7.683594c1.335937 2.566406 3.949219 4.03125 6.65625 4.03125 1.167969 0 2.355469-.273437 3.460937-.851563 3.671875-1.914062 5.097656-6.445312 3.179688-10.117187zm0 0"/><path d="m350.6875 314.332031c-2.085938-3.578125-6.679688-4.789062-10.257812-2.699219l-8.015626 4.675782c-3.578124 2.085937-4.785156 6.679687-2.699218 10.257812 1.394531 2.390625 3.90625 3.722656 6.484375 3.722656 1.285156 0 2.585937-.332031 3.773437-1.023437l8.015625-4.675781c3.578125-2.089844 4.789063-6.679688 2.699219-10.257813zm0 0"/><path d="m332.722656 290.515625-3.339844-3.671875c-2.785156-3.066406-7.527343-3.292969-10.59375-.503906-3.066406 2.785156-3.289062 7.527344-.503906 10.59375l3.339844 3.675781c1.480469 1.625 3.511719 2.453125 5.554688 2.453125 1.796874 0 3.605468-.644531 5.039062-1.949219 3.066406-2.789062 3.292969-7.53125.503906-10.597656zm0 0"/><path d="m346.75 282.882812 2.671875 1.671876c1.234375.769531 2.609375 1.140624 3.964844 1.140624 2.5 0 4.945312-1.25 6.371093-3.527343 2.195313-3.511719 1.125-8.140625-2.386718-10.335938l-2.671875-1.667969c-3.515625-2.195312-8.140625-1.128906-10.335938 2.386719-2.195312 3.511719-1.128906 8.136719 2.386719 10.332031zm0 0"/><path d="m377.4375 327.855469c3.90625-1.378907 5.957031-5.664063 4.574219-9.570313l-2.003907-5.679687c-1.375-3.90625-5.664062-5.953125-9.566406-4.574219-3.90625 1.378906-5.957031 5.664062-4.578125 9.566406l2.003907 5.679688c1.089843 3.082031 3.984374 5.007812 7.074218 5.007812.828125 0 1.671875-.140625 2.496094-.429687zm0 0"/><path d="m370.398438 357.621094 2.339843-2.671875c2.726563-3.117188 2.410157-7.855469-.707031-10.585938-3.117188-2.726562-7.855469-2.410156-10.585938.707031l-2.335937 2.671876c-2.730469 3.117187-2.414063 7.855468.707031 10.585937 1.421875 1.242187 3.179688 1.855469 4.933594 1.855469 2.089844 0 4.164062-.867188 5.648438-2.5625zm0 0"/><path d="m335.722656 383.667969c.328125.042969.65625.066406.980469.066406 3.710937 0 6.933594-2.753906 7.429687-6.53125l1-7.683594c.535157-4.109375-2.359374-7.871093-6.46875-8.410156-4.105468-.535156-7.871093 2.359375-8.40625 6.46875l-1 7.683594c-.539062 4.105469 2.359376 7.871093 6.464844 8.40625zm0 0"/><path d="m330.125 413.496094 4.007812 3.671875c1.4375 1.320312 3.253907 1.972656 5.0625 1.972656 2.03125 0 4.054688-.820313 5.53125-2.433594 2.800782-3.054687 2.59375-7.796875-.460937-10.597656l-4.007813-3.675781c-3.050781-2.796875-7.796874-2.589844-10.59375.464844-2.800781 3.050781-2.59375 7.796874.460938 10.597656zm0 0"/><path d="m350.585938 398.875c1.429687 1.269531 3.207031 1.894531 4.976562 1.894531 2.070312 0 4.128906-.851562 5.609375-2.519531l2.675781-3.007812c2.75-3.09375 2.46875-7.835938-.625-10.585938-3.097656-2.753906-7.839844-2.472656-10.589844.621094l-2.671874 3.007812c-2.75 3.09375-2.472657 7.835938.625 10.589844zm0 0"/></svg>